<?xml version="1.0" encoding="UTF-8" standalone="no"?>
<!-- Created with Inkscape (http://www.inkscape.org/) -->

<svg
   xmlns:dc="http://purl.org/dc/elements/1.1/"
   xmlns:cc="http://creativecommons.org/ns#"
   xmlns:rdf="http://www.w3.org/1999/02/22-rdf-syntax-ns#"
   xmlns:svg="http://www.w3.org/2000/svg"
   xmlns="http://www.w3.org/2000/svg"
   xmlns:xlink="http://www.w3.org/1999/xlink"
   xmlns:sodipodi="http://sodipodi.sourceforge.net/DTD/sodipodi-0.dtd"
   xmlns:inkscape="http://www.inkscape.org/namespaces/inkscape"
   width="96"
   height="96"
   id="svg5023"
   version="1.1"
   inkscape:version="0.48.5 r10040"
   sodipodi:docname="abiword12.svg">
  <defs
     id="defs5025">
    <linearGradient
       inkscape:collect="always"
       id="linearGradient4133">
      <stop
         style="stop-color:#ffffff;stop-opacity:1;"
         offset="0"
         id="stop4135" />
      <stop
         style="stop-color:#ffffff;stop-opacity:0;"
         offset="1"
         id="stop4137" />
    </linearGradient>
    <linearGradient
       id="linearGradient5700">
      <stop
         id="stop5702"
         offset="0"
         style="stop-color:#ffffff;stop-opacity:0;" />
      <stop
         style="stop-color:#ffffff;stop-opacity:0.85135138;"
         offset="0.02897836"
         id="stop5704" />
      <stop
         id="stop5706"
         offset="0.05199923"
         style="stop-color:#ffffff;stop-opacity:0;" />
      <stop
         style="stop-color:#ffffff;stop-opacity:0;"
         offset="0.96583712"
         id="stop5712" />
      <stop
         style="stop-color:#ffffff;stop-opacity:0.85135138;"
         offset="0.9788844"
         id="stop5710" />
      <stop
         id="stop5708"
         offset="1"
         style="stop-color:#ffffff;stop-opacity:0;" />
    </linearGradient>
    <linearGradient
       inkscape:collect="always"
       id="linearGradient3888-8-4-8-4-6-9-0-8-7-9">
      <stop
         style="stop-color:#ffffff;stop-opacity:1;"
         offset="0"
         id="stop3890-4-7-9-5-7-0-8-8-8-6" />
      <stop
         style="stop-color:#ffffff;stop-opacity:0;"
         offset="1"
         id="stop3892-5-8-2-8-3-3-3-06-4-4" />
    </linearGradient>
    <linearGradient
       id="linearGradient3921">
      <stop
         style="stop-color:#2cffee;stop-opacity:1;"
         offset="0"
         id="stop3923" />
      <stop
         style="stop-color:#00586e;stop-opacity:1;"
         offset="1"
         id="stop3925" />
    </linearGradient>
    <linearGradient
       inkscape:collect="always"
       id="linearGradient3888-8-4-8-6">
      <stop
         style="stop-color:#ffffff;stop-opacity:1;"
         offset="0"
         id="stop3890-4-7-9-7" />
      <stop
         style="stop-color:#ffffff;stop-opacity:0;"
         offset="1"
         id="stop3892-5-8-2-7" />
    </linearGradient>
    <linearGradient
       id="linearGradient4091-0-3-0-7">
      <stop
         style="stop-color:#ffffff;stop-opacity:1;"
         offset="0"
         id="stop4093-3-6-4-2" />
      <stop
         id="stop4099-6-1-8-3"
         offset="0.80000001"
         style="stop-color:#ffffff;stop-opacity:1;" />
      <stop
         style="stop-color:#ffffff;stop-opacity:0;"
         offset="1"
         id="stop4095-1-0-7-9" />
    </linearGradient>
    <linearGradient
       id="linearGradient3832-0-6-1-1">
      <stop
         style="stop-color:#000000;stop-opacity:1;"
         offset="0"
         id="stop3834-6-3-7-1" />
      <stop
         id="stop3872-2-4"
         offset="0.1"
         style="stop-color:#000000;stop-opacity:0.58823532;" />
      <stop
         style="stop-color:#000000;stop-opacity:0.58823532;"
         offset="0.89999998"
         id="stop3844-6-2-7-6" />
      <stop
         style="stop-color:#000000;stop-opacity:1;"
         offset="1"
         id="stop3836-5-0-2-9" />
    </linearGradient>
    <linearGradient
       inkscape:collect="always"
       xlink:href="#linearGradient6139-0"
       id="linearGradient3923"
       x1="6"
       y1="47.000011"
       x2="90"
       y2="47.000011"
       gradientUnits="userSpaceOnUse" />
    <linearGradient
       id="linearGradient6139-0">
      <stop
         id="stop6141-2"
         offset="0"
         style="stop-color:#b7b7b7;stop-opacity:1;" />
      <stop
         style="stop-color:#ffffff;stop-opacity:1;"
         offset="0.25"
         id="stop6151-0" />
      <stop
         style="stop-color:#9d9d9d;stop-opacity:1;"
         offset="0.5"
         id="stop6147-1" />
      <stop
         id="stop6149-4"
         offset="0.75"
         style="stop-color:#fafafa;stop-opacity:1;" />
      <stop
         id="stop6143-4"
         offset="1"
         style="stop-color:#b7b7b7;stop-opacity:1;" />
    </linearGradient>
    <radialGradient
       inkscape:collect="always"
       xlink:href="#linearGradient3888-8-4-8-6"
       id="radialGradient4073"
       gradientUnits="userSpaceOnUse"
       gradientTransform="matrix(0,1.6209438,-2.0382846,0,160.66427,-243.03657)"
       cx="158"
       cy="6.2131939"
       fx="158"
       fy="6.2131939"
       r="41" />
    <radialGradient
       inkscape:collect="always"
       xlink:href="#linearGradient4091-0-3-0-7"
       id="radialGradient4075"
       gradientUnits="userSpaceOnUse"
       gradientTransform="matrix(-1.0721726,0,0,-0.87502024,199.46429,-19.125546)"
       cx="48"
       cy="-27"
       fx="48"
       fy="-27"
       r="42" />
    <linearGradient
       inkscape:collect="always"
       xlink:href="#linearGradient4213-7"
       id="linearGradient4767"
       gradientUnits="userSpaceOnUse"
       x1="2.7713892"
       y1="-28.64156"
       x2="50.527882"
       y2="14.514202" />
    <linearGradient
       inkscape:collect="always"
       id="linearGradient4213-7">
      <stop
         style="stop-color:#ffffff;stop-opacity:1;"
         offset="0"
         id="stop4215-6" />
      <stop
         style="stop-color:#ffffff;stop-opacity:0;"
         offset="1"
         id="stop4217-5" />
    </linearGradient>
    <clipPath
       clipPathUnits="userSpaceOnUse"
       id="clipPath4156-4">
      <path
         style="opacity:0.6;fill:#ffffff;fill-opacity:1;stroke:none"
         d="m 27.046336,-55.695463 -14.21366,13.321486 0.06127,0 15.653407,21.770763 10.231384,-10.546177 C 38.561832,-32.30156 27.468089,-54.819245 27.046336,-55.695463 z M 9.6468554,-39.382809 -5.2407289,-25.32124 15.987863,-7.8059573 26.372412,-18.382966 9.6468554,-39.382809 z m 31.4906096,12.951445 -9.741259,9.713584 8.944804,12.4580526 7.780753,-7.5550056 -6.984298,-14.616631 z m -49.8397109,4.378822 -13.7541661,12.9822847 26.2830181,13.84571 0.06127,-0.0617 -0.122531,-0.0617 L 13.598503,-5.4007374 -8.7022409,-22.052595 z m 38.0154159,7.400825 -9.802525,9.7752596 11.579232,9.5594001 7.62759,-7.40083 -8.669108,-11.0087257 -0.735189,-0.925104 z m 20.187073,5.6739697 -7.382526,7.2158 6.187844,8.54179 5.820249,-6.13651996 -4.625567,-9.62107004 z m -32.195166,6.32154 -9.5574606,9.49772 13.6622686,7.1849703 7.933918,-7.6783603 -12.038726,-9.00433 z m 23.311629,2.37443004 -7.10683,6.93826996 8.362778,6.9074403 5.360756,-5.6739699 -0.06127,-0.0925 -0.0919,0.12335 -6.463539,-8.20258036 z m -8.730374,8.54178036 -7.505057,7.3391599 10.353916,5.45811 c 1.397496,-1.32103 5.67514,-6.12292 5.850882,-6.32154 L 31.886332,8.2600031 z"
         id="path4158-0"
         inkscape:connector-curvature="0" />
    </clipPath>
    <linearGradient
       inkscape:collect="always"
       xlink:href="#linearGradient3888-8-4-8-4-6-9-0-8-7-9"
       id="linearGradient4112"
       gradientUnits="userSpaceOnUse"
       gradientTransform="matrix(1.1376233,0,0,1.1422854,-40.393161,-45.01103)"
       x1="45.99942"
       y1="42.063522"
       x2="76.197693"
       y2="29.454437" />
    <linearGradient
       inkscape:collect="always"
       xlink:href="#linearGradient3832-0-6-1-1"
       id="linearGradient4129"
       x1="1.5"
       y1="88.171875"
       x2="94.5"
       y2="88.171875"
       gradientUnits="userSpaceOnUse"
       gradientTransform="matrix(1.0277057,0,0,1.0666195,-34.86898,-46.687112)" />
    <radialGradient
       inkscape:collect="always"
       xlink:href="#linearGradient4133"
       id="radialGradient4139"
       cx="13.948145"
       cy="44.892843"
       fx="13.948145"
       fy="44.892843"
       r="43.199203"
       gradientTransform="matrix(0.95431793,0,0,0.04806809,-1.393303,33.948745)"
       gradientUnits="userSpaceOnUse" />
    <radialGradient
       inkscape:collect="always"
       xlink:href="#linearGradient4133"
       id="radialGradient4143"
       gradientUnits="userSpaceOnUse"
       gradientTransform="matrix(0.86805317,0,0,0.04814066,-12.400957,-52.246305)"
       cx="13.948145"
       cy="44.892843"
       fx="13.948145"
       fy="44.892843"
       r="43.199203" />
    <linearGradient
       inkscape:collect="always"
       xlink:href="#linearGradient3719"
       id="linearGradient4747"
       gradientUnits="userSpaceOnUse"
       gradientTransform="matrix(1.5026823,0,0,1.5189631,11.130641,11.16563)"
       x1="25.071428"
       y1="4.7142863"
       x2="35.09507"
       y2="44.5" />
    <linearGradient
       id="linearGradient3719">
      <stop
         id="stop3721"
         style="stop-color:#eaedf1;stop-opacity:1"
         offset="0" />
      <stop
         id="stop3723"
         style="stop-color:#c1ccdb;stop-opacity:1"
         offset="1" />
    </linearGradient>
    <linearGradient
       inkscape:collect="always"
       xlink:href="#linearGradient11508"
       id="linearGradient4749"
       gradientUnits="userSpaceOnUse"
       gradientTransform="matrix(0.8665485,0.18119434,-0.27628685,0.56829955,37.568198,28.213422)"
       x1="43.700191"
       y1="82.473648"
       x2="77.923637"
       y2="16.211916" />
    <linearGradient
       id="linearGradient11508">
      <stop
         id="stop11510"
         style="stop-color:#000000;stop-opacity:1"
         offset="0" />
      <stop
         id="stop11512"
         style="stop-color:#000000;stop-opacity:0"
         offset="1" />
    </linearGradient>
    <linearGradient
       inkscape:collect="always"
       xlink:href="#linearGradient11508"
       id="linearGradient4751"
       gradientUnits="userSpaceOnUse"
       gradientTransform="matrix(0.84442773,0.12130865,-0.12943075,0.79143776,26.341674,12.197185)"
       x1="43.700191"
       y1="82.473648"
       x2="87.732079"
       y2="6.208179" />
    <linearGradient
       id="linearGradient3348">
      <stop
         id="stop3350"
         style="stop-color:#000000;stop-opacity:1"
         offset="0" />
      <stop
         id="stop3352"
         style="stop-color:#000000;stop-opacity:0"
         offset="1" />
    </linearGradient>
    <linearGradient
       inkscape:collect="always"
       xlink:href="#linearGradient10394"
       id="linearGradient4753"
       gradientUnits="userSpaceOnUse"
       gradientTransform="matrix(0.81423351,0,0,0.81423351,16.895076,15.45345)"
       x1="60.899021"
       y1="35.60585"
       x2="68.2229"
       y2="39.53442" />
    <linearGradient
       id="linearGradient10394">
      <stop
         id="stop10396"
         style="stop-color:#1a1a1a;stop-opacity:1"
         offset="0" />
      <stop
         id="stop10404"
         style="stop-color:#636363;stop-opacity:1"
         offset="0.35185185" />
      <stop
         id="stop10402"
         style="stop-color:#c7c7c7;stop-opacity:1"
         offset="0.5" />
      <stop
         id="stop10406"
         style="stop-color:#636363;stop-opacity:1"
         offset="0.64999998" />
      <stop
         id="stop10398"
         style="stop-color:#000000;stop-opacity:1"
         offset="1" />
    </linearGradient>
    <linearGradient
       inkscape:collect="always"
       xlink:href="#linearGradient6531"
       id="linearGradient4755"
       gradientUnits="userSpaceOnUse"
       gradientTransform="matrix(0.59071981,-0.15821626,0.15862362,0.59174222,38.27202,30.327666)"
       x1="24.248737"
       y1="77.502068"
       x2="13.405647"
       y2="67.6745" />
    <linearGradient
       id="linearGradient6531">
      <stop
         id="stop6533"
         style="stop-color:#c38125;stop-opacity:1"
         offset="0" />
      <stop
         id="stop10377"
         style="stop-color:#c68d31;stop-opacity:1"
         offset="0.62962961" />
      <stop
         id="stop6535"
         style="stop-color:#fffce6;stop-opacity:1"
         offset="1" />
    </linearGradient>
    <linearGradient
       inkscape:collect="always"
       xlink:href="#linearGradient10386"
       id="linearGradient4757"
       gradientUnits="userSpaceOnUse"
       gradientTransform="matrix(0.81423351,0,0,0.81423351,16.895076,15.45345)"
       x1="58.651787"
       y1="68.171875"
       x2="47.450871"
       y2="57.993305" />
    <linearGradient
       id="linearGradient10386">
      <stop
         id="stop10388"
         style="stop-color:#ffffff;stop-opacity:1"
         offset="0" />
      <stop
         id="stop10390"
         style="stop-color:#ffffff;stop-opacity:0"
         offset="1" />
    </linearGradient>
    <radialGradient
       inkscape:collect="always"
       xlink:href="#linearGradient10410"
       id="radialGradient4759"
       gradientUnits="userSpaceOnUse"
       gradientTransform="matrix(1,0,0,0.125,0,36.491262)"
       cx="59.85154"
       cy="41.7043"
       fx="59.85154"
       fy="41.7043"
       r="18.182745" />
    <linearGradient
       id="linearGradient10410">
      <stop
         id="stop10412"
         style="stop-color:#ffffff;stop-opacity:1"
         offset="0" />
      <stop
         id="stop10414"
         style="stop-color:#ffffff;stop-opacity:0"
         offset="1" />
    </linearGradient>
    <radialGradient
       r="18.182745"
       fy="41.7043"
       fx="59.85154"
       cy="41.7043"
       cx="59.85154"
       gradientTransform="matrix(1,0,0,0.125,0,36.491262)"
       gradientUnits="userSpaceOnUse"
       id="radialGradient3390"
       xlink:href="#linearGradient10410"
       inkscape:collect="always" />
    <linearGradient
       inkscape:collect="always"
       xlink:href="#linearGradient4213-7-6"
       id="linearGradient4767-2"
       gradientUnits="userSpaceOnUse"
       x1="2.7713892"
       y1="-28.64156"
       x2="50.527882"
       y2="14.514202" />
    <linearGradient
       inkscape:collect="always"
       id="linearGradient4213-7-6">
      <stop
         style="stop-color:#ffffff;stop-opacity:1;"
         offset="0"
         id="stop4215-6-9" />
      <stop
         style="stop-color:#ffffff;stop-opacity:0;"
         offset="1"
         id="stop4217-5-9" />
    </linearGradient>
    <clipPath
       clipPathUnits="userSpaceOnUse"
       id="clipPath4156-4-0">
      <path
         style="opacity:0.6;fill:#ffffff;fill-opacity:1;stroke:none"
         d="m 27.046336,-55.695463 -14.21366,13.321486 0.06127,0 15.653407,21.770763 10.231384,-10.546177 C 38.561832,-32.30156 27.468089,-54.819245 27.046336,-55.695463 z M 9.6468554,-39.382809 -5.2407289,-25.32124 15.987863,-7.8059573 26.372412,-18.382966 9.6468554,-39.382809 z m 31.4906096,12.951445 -9.741259,9.713584 8.944804,12.4580526 7.780753,-7.5550056 -6.984298,-14.616631 z m -49.8397109,4.378822 -13.7541661,12.9822847 26.2830181,13.84571 0.06127,-0.0617 -0.122531,-0.0617 L 13.598503,-5.4007374 -8.7022409,-22.052595 z m 38.0154159,7.400825 -9.802525,9.7752596 11.579232,9.5594001 7.62759,-7.40083 -8.669108,-11.0087257 -0.735189,-0.925104 z m 20.187073,5.6739697 -7.382526,7.2158 6.187844,8.54179 5.820249,-6.13651996 -4.625567,-9.62107004 z m -32.195166,6.32154 -9.5574606,9.49772 13.6622686,7.1849703 7.933918,-7.6783603 -12.038726,-9.00433 z m 23.311629,2.37443004 -7.10683,6.93826996 8.362778,6.9074403 5.360756,-5.6739699 -0.06127,-0.0925 -0.0919,0.12335 -6.463539,-8.20258036 z m -8.730374,8.54178036 -7.505057,7.3391599 10.353916,5.45811 c 1.397496,-1.32103 5.67514,-6.12292 5.850882,-6.32154 L 31.886332,8.2600031 z"
         id="path4158-0-3"
         inkscape:connector-curvature="0" />
    </clipPath>
    <linearGradient
       inkscape:collect="always"
       xlink:href="#linearGradient3719"
       id="linearGradient4405"
       gradientUnits="userSpaceOnUse"
       gradientTransform="matrix(1.5026823,0,0,1.5189631,11.130641,11.16563)"
       x1="25.071428"
       y1="4.7142863"
       x2="35.09507"
       y2="44.5" />
    <linearGradient
       inkscape:collect="always"
       xlink:href="#linearGradient11508"
       id="linearGradient4407"
       gradientUnits="userSpaceOnUse"
       gradientTransform="matrix(0.8665485,0.18119434,-0.27628685,0.56829955,37.568198,28.213422)"
       x1="43.700191"
       y1="82.473648"
       x2="77.923637"
       y2="16.211916" />
    <linearGradient
       inkscape:collect="always"
       xlink:href="#linearGradient11508"
       id="linearGradient4409"
       gradientUnits="userSpaceOnUse"
       gradientTransform="matrix(0.84442773,0.12130865,-0.12943075,0.79143776,26.341674,12.197185)"
       x1="43.700191"
       y1="82.473648"
       x2="87.732079"
       y2="6.208179" />
    <linearGradient
       inkscape:collect="always"
       xlink:href="#linearGradient10394"
       id="linearGradient4411"
       gradientUnits="userSpaceOnUse"
       gradientTransform="matrix(0.81423351,0,0,0.81423351,16.895076,15.45345)"
       x1="60.899021"
       y1="35.60585"
       x2="68.2229"
       y2="39.53442" />
    <linearGradient
       inkscape:collect="always"
       xlink:href="#linearGradient6531"
       id="linearGradient4413"
       gradientUnits="userSpaceOnUse"
       gradientTransform="matrix(0.59071981,-0.15821626,0.15862362,0.59174222,38.27202,30.327666)"
       x1="24.248737"
       y1="77.502068"
       x2="13.405647"
       y2="67.6745" />
    <linearGradient
       inkscape:collect="always"
       xlink:href="#linearGradient10386"
       id="linearGradient4415"
       gradientUnits="userSpaceOnUse"
       gradientTransform="matrix(0.81423351,0,0,0.81423351,16.895076,15.45345)"
       x1="58.651787"
       y1="68.171875"
       x2="47.450871"
       y2="57.993305" />
    <radialGradient
       inkscape:collect="always"
       xlink:href="#linearGradient10410"
       id="radialGradient4417"
       gradientUnits="userSpaceOnUse"
       gradientTransform="matrix(1,0,0,0.125,0,36.491262)"
       cx="59.85154"
       cy="41.7043"
       fx="59.85154"
       fy="41.7043"
       r="18.182745" />
    <linearGradient
       inkscape:collect="always"
       xlink:href="#linearGradient3719"
       id="linearGradient4464"
       gradientUnits="userSpaceOnUse"
       gradientTransform="matrix(1.5026823,0,0,1.5189631,11.130641,11.16563)"
       x1="25.071428"
       y1="4.7142863"
       x2="35.09507"
       y2="44.5" />
    <linearGradient
       inkscape:collect="always"
       xlink:href="#linearGradient11508"
       id="linearGradient4466"
       gradientUnits="userSpaceOnUse"
       gradientTransform="matrix(0.8665485,0.18119434,-0.27628685,0.56829955,37.568198,28.213422)"
       x1="43.700191"
       y1="82.473648"
       x2="77.923637"
       y2="16.211916" />
    <linearGradient
       inkscape:collect="always"
       xlink:href="#linearGradient11508"
       id="linearGradient4468"
       gradientUnits="userSpaceOnUse"
       gradientTransform="matrix(0.84442773,0.12130865,-0.12943075,0.79143776,26.341674,12.197185)"
       x1="43.700191"
       y1="82.473648"
       x2="87.732079"
       y2="6.208179" />
    <linearGradient
       inkscape:collect="always"
       xlink:href="#linearGradient10394"
       id="linearGradient4470"
       gradientUnits="userSpaceOnUse"
       gradientTransform="matrix(0.81423351,0,0,0.81423351,16.895076,15.45345)"
       x1="60.899021"
       y1="35.60585"
       x2="68.2229"
       y2="39.53442" />
    <linearGradient
       inkscape:collect="always"
       xlink:href="#linearGradient6531"
       id="linearGradient4472"
       gradientUnits="userSpaceOnUse"
       gradientTransform="matrix(0.59071981,-0.15821626,0.15862362,0.59174222,38.27202,30.327666)"
       x1="24.248737"
       y1="77.502068"
       x2="13.405647"
       y2="67.6745" />
    <linearGradient
       inkscape:collect="always"
       xlink:href="#linearGradient10386"
       id="linearGradient4474"
       gradientUnits="userSpaceOnUse"
       gradientTransform="matrix(0.81423351,0,0,0.81423351,16.895076,15.45345)"
       x1="58.651787"
       y1="68.171875"
       x2="47.450871"
       y2="57.993305" />
    <radialGradient
       inkscape:collect="always"
       xlink:href="#linearGradient10410"
       id="radialGradient4476"
       gradientUnits="userSpaceOnUse"
       gradientTransform="matrix(1,0,0,0.125,0,36.491262)"
       cx="59.85154"
       cy="41.7043"
       fx="59.85154"
       fy="41.7043"
       r="18.182745" />
    <radialGradient
       inkscape:collect="always"
       xlink:href="#linearGradient4133"
       id="radialGradient4478"
       gradientUnits="userSpaceOnUse"
       gradientTransform="matrix(0.95431793,0,0,0.04806809,-1.393303,33.948745)"
       cx="13.948145"
       cy="44.892843"
       fx="13.948145"
       fy="44.892843"
       r="43.199203" />
    <radialGradient
       inkscape:collect="always"
       xlink:href="#linearGradient4133"
       id="radialGradient4480"
       gradientUnits="userSpaceOnUse"
       gradientTransform="matrix(0.86805317,0,0,0.04814066,-12.400957,-52.246305)"
       cx="13.948145"
       cy="44.892843"
       fx="13.948145"
       fy="44.892843"
       r="43.199203" />
    <linearGradient
       inkscape:collect="always"
       xlink:href="#linearGradient4213-7-6"
       id="linearGradient4482"
       gradientUnits="userSpaceOnUse"
       x1="2.7713892"
       y1="-28.64156"
       x2="50.527882"
       y2="14.514202" />
  </defs>
  <sodipodi:namedview
     id="base"
     pagecolor="#ffffff"
     bordercolor="#666666"
     borderopacity="1.0"
     inkscape:pageopacity="0.0"
     inkscape:pageshadow="2"
     inkscape:zoom="4"
     inkscape:cx="45.843073"
     inkscape:cy="44.039604"
     inkscape:current-layer="g4060"
     showgrid="true"
     inkscape:grid-bbox="true"
     inkscape:document-units="px"
     inkscape:window-width="1280"
     inkscape:window-height="966"
     inkscape:window-x="0"
     inkscape:window-y="0"
     inkscape:window-maximized="1"
     showguides="true"
     inkscape:guide-bbox="true">
    <sodipodi:guide
       orientation="0,1"
       position="74,7.75"
       id="guide4116" />
  </sodipodi:namedview>
  <metadata
     id="metadata5028">
    <rdf:RDF>
      <cc:Work
         rdf:about="">
        <dc:format>image/svg+xml</dc:format>
        <dc:type
           rdf:resource="http://purl.org/dc/dcmitype/StillImage" />
        <dc:title />
      </cc:Work>
    </rdf:RDF>
  </metadata>
  <g
     id="layer1"
     inkscape:label="Layer 1"
     inkscape:groupmode="layer"
     transform="translate(0,80)">
    <g
       id="g5148"
       transform="matrix(1.0034441,0,0,1.0049592,33.489303,-38.526762)">
      <g
         id="g5766"
         transform="matrix(0.88387919,0,0,0.83393165,-3.5257642,5.0081212)" />
      <path
         style="opacity:0.15;fill:#000000;fill-opacity:1;fill-rule:nonzero;stroke:none;display:inline"
         d="m 55.462534,-41.268579 -82.003291,0 c -3.78581,0 -6.8336,3.043193 -6.8336,6.823302 l 0,81.87966 c 0,3.780111 3.04779,6.823304 6.8336,6.823304 l 82.003291,0 c 3.785819,0 6.833607,-3.043193 6.833607,-6.823304 l 0,-81.87966 c 0,-3.780109 -3.047788,-6.823302 -6.833607,-6.823302 z"
         id="path3288"
         inkscape:connector-curvature="0" />
      <path
         inkscape:connector-curvature="0"
         id="path4085"
         d="m 54.821885,-40.52228 -80.721993,0 c -3.726657,0 -6.726825,2.995643 -6.726825,6.716688 l 0,80.60029 c 0,3.721047 3.000168,6.71669 6.726825,6.71669 l 80.721993,0 c 3.726665,0 6.726832,-2.995643 6.726832,-6.71669 l 0,-80.60029 c 0,-3.721045 -3.000167,-6.716688 -6.726832,-6.716688 z"
         style="opacity:0.15;fill:#000000;fill-opacity:1;fill-rule:nonzero;stroke:none;display:inline" />
      <g
         id="g4060"
         transform="matrix(0.97178685,0,0,0.97178682,0.40798707,0.18323223)">
        <path
           style="fill:#3771c8;fill-opacity:1;fill-rule:nonzero;stroke:none;display:inline"
           d="m 55.334401,-41.11932 -81.747021,0 c -3.773988,0 -6.812252,3.033683 -6.812252,6.80198 l 0,81.623788 c 0,3.768297 3.038264,6.80198 6.812252,6.80198 l 81.747021,0 c 3.773988,0 6.812252,-3.033683 6.812252,-6.80198 l 0,-81.623788 c 0,-3.768297 -3.038264,-6.80198 -6.812252,-6.80198 z"
           id="rect4251-1"
           inkscape:connector-curvature="0" />
        <g
           id="g3272"
           transform="matrix(1.1353753,0,0,1.1336634,-153.57465,-46.220805)">
          <path
             sodipodi:nodetypes="sscccsccscccsss"
             inkscape:connector-curvature="0"
             id="path3400-6"
             d="m 112,5.5 c -2.7873,0 -5,2.2127028 -5,5 l 0,20.71875 0,7 0,38.59375 c 1.07066,1.628779 2.89693,2.71875 5,2.71875 l 4,0 64,0 4,0 c 2.10307,0 3.92934,-1.089971 5,-2.71875 l 0,-38.59375 0,-7 L 189,10.5 c 0,-2.7872972 -2.2127,-5 -5,-5 z"
             style="opacity:0.2;fill:url(#radialGradient4073);fill-opacity:1;fill-rule:nonzero;stroke:none;display:inline" />
          <path
             inkscape:connector-curvature="0"
             id="path4236-5"
             d="m 112,4.5 c -3.324,0 -6,2.6759996 -6,6 l 0,15 1,0 0,-15 c 0,-2.7872972 2.2127,-5 5,-5 l 72,0 c 2.7873,0 5,2.2127028 5,5 l 0,15 1,0 0,-15 c 0,-3.3240004 -2.676,-6 -6,-6 l -72,0 z"
             style="opacity:0.45;fill:url(#radialGradient4075);fill-opacity:1;fill-rule:nonzero;stroke:none;display:inline" />
        </g>
        <path
           style="opacity:0.65;fill:url(#linearGradient4129);fill-opacity:1;fill-rule:nonzero;stroke:none;display:inline"
           d="m -33.327422,40.609027 0,6.399717 c 0,3.925312 3.058563,7.099686 6.840667,7.099686 l 81.8953,0 c 3.782103,0 6.840662,-3.174374 6.840662,-7.099686 l 0,-6.399717 c 0,3.925311 -3.058559,7.099687 -6.840662,7.099687 l -81.8953,0 c -3.782104,0 -6.840667,-3.174376 -6.840667,-7.099687 z"
           id="path4118"
           inkscape:connector-curvature="0" />
      </g>
      <g
         id="g4439"
         transform="translate(1.7858053,1.9901305)">
        <g
           style="display:inline"
           id="layer4"
           transform="matrix(1.0051058,0,0,1.0035905,-39.992469,-47.943675)">
          <path
             d="m 48.40625,17.03125 c -1.882017,0.04244 -3.582857,0.99159 -5.25,2.3125 -1.671435,1.32431 -3.376006,3.128229 -5.09375,5.28125 -3.436115,4.306828 -6.941865,10.062358 -10.1875,16.25 -3.245909,6.188165 -6.207807,12.80984 -8.34375,18.84375 -2.130013,6.017157 -3.504072,11.377369 -3.5,15.4375 9e-6,0.0089 -2.2e-5,0.02234 0,0.03125 -4.7e-5,0.03106 -9.4e-5,0.09048 0,0.09375 a 0.8642156,0.8642156 0 0 0 0,0.03125 c 0.148488,2.601675 1.897504,4.33247 3.75,5 1.76817,0.637144 3.569236,0.621341 4.8125,0.65625 a 0.8642156,0.8642156 0 0 0 0.03125,0 c 0.0044,-3.9e-5 0.120602,2.93e-4 0.125,0 0.0044,-2.93e-4 0.08938,-0.0307 0.09375,-0.03125 0.0044,-5.47e-4 0.120665,7.98e-4 0.125,0 0.0033,-6.1e-4 0.06361,-0.02474 0.09375,-0.03125 0.0095,-0.002 0.0218,0.002 0.03125,0 C 33.987727,79.053608 44.004046,74.332664 52,69.9375 c 4.002003,-2.199795 7.482927,-4.311435 10.03125,-5.96875 1.281716,-0.83357 2.306593,-1.574927 3.0625,-2.125 0.360696,-0.262477 0.706892,-0.477305 1,-0.71875 0.165633,-0.136439 0.385899,-0.372311 0.625,-0.6875 5.159013,9.257366 9.53125,17.625 9.53125,17.625 0.003,0.0057 0.09033,0.119584 0.09375,0.125 0.0034,0.0054 0.08988,0.15114 0.09375,0.15625 0.0039,0.0051 0.08947,0.120232 0.09375,0.125 0.0043,0.0048 0.120334,0.08936 0.125,0.09375 0.0047,0.0044 0.119983,0.121015 0.125,0.125 0.005,0.004 0.119666,0.0902 0.125,0.09375 0.0053,0.0036 0.150637,0.09066 0.15625,0.09375 0.0056,0.0031 0.150398,0.05989 0.15625,0.0625 0.0059,0.0026 0.11895,0.06039 0.125,0.0625 0.0061,0.0021 0.150044,0.06091 0.15625,0.0625 0.0062,0.0016 0.181182,0.03018 0.1875,0.03125 0.0063,0.0011 0.149865,-5.35e-4 0.15625,0 0.0064,5.35e-4 0.149842,2e-6 0.15625,0 0.0064,-2e-6 0.149865,5.39e-4 0.15625,0 0.0064,-5.39e-4 0.181183,0.0011 0.1875,0 0.0063,-0.0011 0.150045,-0.02965 0.15625,-0.03125 0.0062,-0.0016 0.150201,-0.06039 0.15625,-0.0625 0.006,-0.0021 0.150399,-0.05989 0.15625,-0.0625 0.0059,-0.0026 0.119389,-0.05941 0.125,-0.0625 0.0056,-0.0031 0.150918,-0.0902 0.15625,-0.09375 0.0053,-0.0036 0.119985,-0.08976 0.125,-0.09375 0.005,-0.004 0.120337,-0.120605 0.125,-0.125 0.0047,-0.0044 0.120722,-0.08898 0.125,-0.09375 0.0043,-0.0048 0.08989,-0.119888 0.09375,-0.125 0.0039,-0.0051 0.09033,-0.150832 0.09375,-0.15625 0.0034,-0.0054 0.09079,-0.119314 0.09375,-0.125 0.003,-0.0057 0.06003,-0.150337 0.0625,-0.15625 0.0025,-0.0059 0.06054,-0.150151 0.0625,-0.15625 0.002,-0.0061 0.0298,-0.150007 0.03125,-0.15625 0.0014,-0.0062 0.03033,-0.149908 0.03125,-0.15625 9.16e-4,-0.0063 0.03087,-0.149854 0.03125,-0.15625 3.82e-4,-0.0064 1.56e-4,-0.181094 0,-0.1875 -0.244863,-11.233476 -5.323286,-25.908896 -11.53125,-38 -3.104387,-6.046345 -6.514423,-11.427662 -9.84375,-15.375 -3.318106,-3.934034 -6.573111,-6.769001 -10.1875,-6.6875 z m 0.125,16.1875 c 0.08788,0.04886 0.177731,0.09874 0.3125,0.1875 0.352823,0.232363 0.858218,0.611948 1.375,1.15625 1.077623,1.135009 2.424224,2.916281 3.90625,5.03125 2.959851,4.223947 6.436076,9.91872 9.71875,15.625 0.43789,0.761184 0.726242,1.335866 1.15625,2.09375 -0.04105,0.0045 -0.09031,-5.17e-4 -0.09375,0 -0.0057,8.61e-4 -0.150594,0.02996 -0.15625,0.03125 -0.0057,0.0013 -0.119459,0.06078 -0.125,0.0625 a 0.8642156,0.8642156 0 0 0 -0.03125,0 c 0,0 -8.652158,2.803459 -17.53125,5.1875 -4.439338,1.191964 -8.942097,2.294481 -12.34375,2.84375 -1.702928,0.274973 -3.12648,0.396227 -4.03125,0.375 -0.145997,-0.0034 -0.18746,-0.01613 -0.3125,-0.03125 0.01257,-0.25575 0.01914,-0.50259 0.09375,-0.84375 0.233494,-1.067623 0.725909,-2.561159 1.375,-4.28125 1.295908,-3.434153 3.264691,-7.800477 5.5,-12 2.235864,-4.200565 4.746385,-8.275934 6.96875,-11.21875 1.107992,-1.467182 2.154049,-2.636504 3,-3.375 0.410732,-0.35856 0.767836,-0.611626 1.03125,-0.75 0.17923,-0.09415 0.169214,-0.08177 0.1875,-0.09375 z"
             id="path3766"
             style="opacity:0.05;fill:#000000;fill-opacity:1;fill-rule:evenodd;stroke:none"
             inkscape:connector-curvature="0" />
          <path
             d="m 48.4375,17.90625 c -1.59764,0.03602 -3.153886,0.860368 -4.75,2.125 -1.596114,1.264632 -3.246845,3.005932 -4.9375,5.125 -3.38131,4.238136 -6.896708,9.970421 -10.125,16.125 C 25.396708,47.435829 22.462414,54.014902 20.34375,60 c -2.118664,5.985098 -3.4471,11.324313 -3.4375,15.1875 a 1.0931349,1.0931349 0 0 0 0,0.0625 c 0.128608,2.253359 1.579232,3.681736 3.15625,4.25 1.577018,0.568264 3.292797,0.558099 4.5625,0.59375 a 1.0931349,1.0931349 0 0 0 0.25,-0.03125 c 8.739984,-1.81509 18.754337,-6.497173 26.71875,-10.875 3.982207,-2.188914 7.439859,-4.292823 9.96875,-5.9375 1.264445,-0.822338 2.281144,-1.547899 3.03125,-2.09375 0.375053,-0.272925 0.698382,-0.490529 0.9375,-0.6875 0.239118,-0.196971 0.351193,-0.251384 0.59375,-0.625 a 1.0931349,1.0931349 0 0 0 -1.25,-1.625 c 0,0 -8.68583,2.826969 -17.59375,5.21875 -4.45396,1.19589 -8.978364,2.285199 -12.4375,2.84375 -1.729568,0.279275 -3.177501,0.429946 -4.1875,0.40625 -0.504999,-0.01185 -0.919886,-0.09305 -1.125,-0.15625 -0.205114,-0.0632 -0.138548,-0.08026 -0.0625,0.0625 0.06829,0.128195 -0.09431,-0.698085 0.15625,-1.84375 0.250562,-1.145665 0.749515,-2.665902 1.40625,-4.40625 1.313471,-3.480696 3.310465,-7.862804 5.5625,-12.09375 2.252035,-4.230946 4.765247,-8.343149 7.03125,-11.34375 1.133002,-1.5003 2.208949,-2.700308 3.125,-3.5 0.916051,-0.799692 1.662259,-1.099305 1.90625,-1.09375 0.02708,6.28e-4 1.051344,0.459591 2.1875,1.65625 1.136156,1.196659 2.506414,2.993533 4,5.125 2.987171,4.262934 6.460133,9.968717 9.75,15.6875 6.579733,11.437565 12.4375,22.875 12.4375,22.875 A 1.0931349,1.0931349 0 0 0 79.09375,77.125 C 78.854271,66.138538 73.821222,51.507369 67.65625,39.5 64.573617,33.496025 61.203153,28.153094 57.9375,24.28125 c -3.265653,-3.871844 -6.372164,-6.44553 -9.5,-6.375 z"
             id="path3762"
             style="opacity:0.1;fill:#000000;fill-opacity:1;fill-rule:evenodd;stroke:none"
             inkscape:connector-curvature="0" />
          <path
             d="M 18.000046,75.202593 C 17.964276,60.80861 38.789585,19.219527 48.483028,19.000964 53.330648,18.891654 60.593613,28.095853 66.70281,39.994598 72.81201,51.893341 77.767443,66.486637 78,77.155544 c 0,0 -23.452575,-45.813006 -29.302302,-45.948628 C 42.740636,31.071288 26.571705,63.484253 28.495014,67.094812 30.373366,70.620977 65.227201,59.253481 65.227201,59.253481 64.475861,60.410786 41.720959,75.455754 24.654781,79 22.078756,78.92767 18.214715,78.96383 18.000046,75.202593 z"
             inkscape:connector-curvature="0"
             id="path3756"
             style="opacity:0.3;fill:#000000;fill-opacity:1;fill-rule:evenodd;stroke:none" />
          <path
             d="M 18.000046,74.202593 C 17.964276,59.80861 38.789585,18.219527 48.483028,18.000964 53.330648,17.891654 60.593613,27.095853 66.70281,38.994598 72.81201,50.893341 77.767443,65.486637 78,76.155544 c 0,0 -23.452575,-45.813006 -29.302302,-45.948628 C 42.740636,30.071288 26.571705,62.484253 28.495014,66.094812 30.373366,69.620977 65.227201,58.253481 65.227201,58.253481 64.475861,59.410786 41.720959,74.455754 24.654781,78 22.078756,77.92767 18.214715,77.96383 18.000046,74.202593 z"
             inkscape:connector-curvature="0"
             id="path5556"
             style="fill:url(#linearGradient4464);fill-opacity:1;fill-rule:evenodd;stroke:none" />
          <path
             d="m 47.5,20.03125 c -0.490103,0.01105 -1.53298,0.430201 -2.84375,1.46875 -1.31077,1.038549 -2.843966,2.627663 -4.4375,4.625 -3.187069,3.994674 -6.651077,9.566654 -9.8125,15.59375 -3.161423,6.027096 -6.035909,12.530473 -8.09375,18.34375 -2.042255,5.769247 -3.27054,10.919432 -3.28125,14.03125 0.07029,1.136915 0.279027,1.175172 1.09375,1.46875 0.768265,0.276837 2.102834,0.335559 3.34375,0.375 0.124737,-0.02656 0.249503,-0.06588 0.375,-0.09375 -0.668339,-0.05317 -1.28916,-0.126451 -1.71875,-0.28125 -0.814723,-0.293578 -1.023456,-0.331835 -1.09375,-1.46875 0.01071,-3.111818 1.238995,-8.262003 3.28125,-14.03125 2.057841,-5.813277 4.932327,-12.316654 8.09375,-18.34375 3.161423,-6.027096 6.625431,-11.599076 9.8125,-15.59375 1.593534,-1.997337 3.12673,-3.586451 4.4375,-4.625 0.733901,-0.581485 1.359065,-0.957277 1.875,-1.1875 C 48.103732,20.130258 47.756607,20.025464 47.5,20.03125 z m 2.21875,8.15625 c -0.3753,-0.0085 -0.732285,0.02145 -1.0625,0.09375 1.45617,0.327614 2.328205,1.362882 3.4375,2.53125 1.32337,1.393843 2.76858,3.265452 4.3125,5.46875 3.08784,4.406596 6.59174,10.175879 9.90625,15.9375 3.640399,6.328114 4.535865,8.216531 6.875,12.625 -0.6338,-2.645902 -1.438967,-5.374052 -2.34375,-8.125 -0.694284,-1.254473 -1.480075,-2.672741 -2.53125,-4.5 C 64.99799,46.457129 61.49409,40.687846 58.40625,36.28125 56.86233,34.077952 55.41712,32.206343 54.09375,30.8125 52.77038,29.418657 51.797648,28.234973 49.75,28.1875 a 2.0436869,2.0436869 0 0 0 -0.03125,0 z m 1.21875,36.125 c -1.842152,0.531915 -1.890022,0.631673 -3.84375,1.15625 -4.507008,1.210134 -9.086281,2.314665 -12.75,2.90625 -1.213042,0.195871 -2.308313,0.341728 -3.3125,0.40625 0.178336,0.01366 0.344685,0.02687 0.53125,0.03125 1.361327,0.03194 2.94939,-0.141708 4.78125,-0.4375 3.613979,-0.583553 8.114925,-1.684198 12.5625,-2.875 0.04787,-0.02625 0.108533,-0.03627 0.15625,-0.0625 0.751234,-0.412933 1.16383,-0.720169 1.875,-1.125 z"
             inkscape:connector-curvature="0"
             id="path3738"
             style="opacity:0.6;fill:#ffffff;fill-opacity:1;fill-rule:evenodd;stroke:none" />
          <path
             d="M 48.46875,18 C 38.775307,18.218563 17.96423,59.793517 18,74.1875 c 0.214669,3.761237 4.080225,3.74017 6.65625,3.8125 17.066178,-3.544246 39.81116,-18.592695 40.5625,-19.75 0,0 -34.840398,11.369915 -36.71875,7.84375 C 26.576691,62.483191 42.730438,30.083122 48.6875,30.21875 54.537227,30.354372 78,76.15625 78,76.15625 77.767443,65.487343 72.7967,50.898743 66.6875,39 60.578303,27.101255 53.31637,17.89069 48.46875,18 z M 48.5,18.9375 c 1.826918,-0.0412 4.789472,1.960916 7.90625,5.65625 3.116778,3.695334 6.43792,8.940671 9.46875,14.84375 5.189438,10.107345 9.336988,22.072295 10.625,31.875 C 74.333777,67.176365 70.919138,60.734658 66.34375,52.78125 63.038014,47.034882 59.551996,41.292944 56.5,36.9375 54.974002,34.759778 53.569211,32.917383 52.3125,31.59375 51.055789,30.270117 50.046953,29.312043 48.71875,29.28125 47.54966,29.25463 46.492312,29.926892 45.40625,30.875 44.320188,31.823108 43.184806,33.118601 42,34.6875 c -2.369612,3.137798 -4.899815,7.327078 -7.1875,11.625 -2.287685,4.297922 -4.3305,8.716452 -5.6875,12.3125 -0.6785,1.798024 -1.183615,3.383751 -1.46875,4.6875 -0.285135,1.303749 -0.470889,2.276103 0.03125,3.21875 0.281405,0.528271 0.761714,0.787043 1.25,0.9375 0.488286,0.150457 1.038134,0.204248 1.65625,0.21875 1.236233,0.029 2.798312,-0.116339 4.59375,-0.40625 3.590876,-0.579823 8.13688,-1.701188 12.625,-2.90625 6.325909,-1.698509 9.358059,-2.704119 12.46875,-3.6875 -2.471611,1.601977 -5.829562,3.598144 -9.6875,5.71875 C 42.76994,70.706792 32.951514,75.303417 24.625,77.0625 23.335088,77.02635 21.82616,76.98153 20.75,76.59375 19.675149,76.206438 19.043804,75.691127 18.9375,74.1875 c -2e-5,-0.0082 5e-6,-0.02303 0,-0.03125 -8.32e-4,-0.01303 7.52e-4,-0.01807 0,-0.03125 0.0039,-3.375906 1.243102,-8.591577 3.3125,-14.4375 2.079498,-5.874456 4.971018,-12.396262 8.15625,-18.46875 3.185232,-6.072488 6.68127,-11.699889 9.9375,-15.78125 1.628115,-2.040681 3.18138,-3.693452 4.59375,-4.8125 1.41237,-1.119048 2.678046,-1.667558 3.5625,-1.6875 z"
             inkscape:connector-curvature="0"
             id="path3743"
             style="opacity:0.1;fill:#000000;fill-opacity:1;fill-rule:evenodd;stroke:none" />
          <path
             d="m 90.176092,53.595201 c -3.68576,2.000634 -7.284708,3.988326 -10.534146,6.20853 -4.365043,2.982449 -7.424399,5.968755 -8.829345,8.244115 -0.0064,0.01041 -0.01909,0.01507 -0.02544,0.02544 -0.855248,0.51272 -6.987278,4.21247 -10.101584,6.3612 -3.399982,2.345831 -9.134682,8.345893 -9.134682,8.345893 l 0.661564,0.407117 c 5.635631,-2.627661 16.97168,-5.241628 16.97168,-5.241628 l 0.381672,-0.101779 -0.101779,-0.254448 c 0,0 -0.04964,-0.106177 0,-0.432562 0.04965,-0.326383 0.217618,-0.839764 0.63612,-1.526688 0.909359,-1.492626 3.206874,-3.067916 4.758177,-4.020278 3.577895,-0.883217 8.639595,-3.238736 13.358518,-6.462978 0.670255,-0.457957 1.31324,-0.925417 1.95925,-1.399464 l 0,-10.152474 z"
             inkscape:connector-curvature="0"
             id="path10456"
             style="opacity:0.3;fill:url(#linearGradient4466);fill-opacity:1;stroke:none" />
          <path
             d="m 90.176092,28.175848 c -5.829787,7.272351 -12.578119,13.15294 -17.760469,20.126835 -3.383813,4.553597 -5.540367,8.952846 -6.335754,12.162613 -0.0036,0.01466 -0.02187,0.03627 -0.02545,0.05089 -0.678991,0.797208 -5.529202,6.494316 -7.938777,9.770802 C 55.485037,73.864029 51.5,82.60227 51.5,82.60227 l 0.712454,0.458006 C 56.854322,78.802698 66.766878,73.79837 66.766878,73.79837 l 0.330783,-0.178114 -0.127224,-0.330782 c 0,0 -0.07497,-0.145659 -0.101779,-0.58523 -0.02682,-0.439571 -0.0059,-1.143674 0.229003,-2.111919 0.510378,-2.103906 2.310223,-4.503853 3.536827,-5.979527 3.122276,-1.662158 7.28312,-5.458711 10.941262,-10.381477 3.144413,-4.231437 5.76624,-8.827173 8.600342,-13.562077 l 0,-12.493396 z"
             inkscape:connector-curvature="0"
             id="path10430"
             style="opacity:0.2;fill:url(#linearGradient4468);fill-opacity:1;stroke:none" />
          <path
             d="m 75.064672,49.547205 c -4.049599,8.250949 -9.764083,14.11871 -11.844527,13.001 -2.219108,-1.192242 -1.146289,-8.796381 3.008907,-17.262474 4.154218,-8.464108 10.627331,-15.800098 14.881728,-25.250423 0.810787,-1.801005 2.380901,-4.461769 4.610055,-3.33162 2.310558,1.171419 1.683681,3.363479 0.462943,5.853374 -4.714241,9.615464 -7.0695,18.73919 -11.119106,26.990143 z"
             inkscape:connector-curvature="0"
             id="path10375"
             style="fill:url(#linearGradient4470);fill-opacity:1;stroke:#000000;stroke-width:1" />
          <path
             d="m 60.457628,78.05204 a 5.4800777,7.7781744 0 1 1 -10.960155,0 5.4800777,7.7781744 0 1 1 10.960155,0 z"
             transform="matrix(0.51543413,-0.13805202,0.18764958,0.34818878,22.034792,39.12119)"
             id="path4343"
             style="fill:none;stroke:#2e3436;stroke-width:4.3448329;stroke-linecap:round;stroke-miterlimit:4;stroke-opacity:1;stroke-dasharray:none"
             inkscape:connector-curvature="0" />
          <path
             d="m 51.861559,82.693444 c 0,0 2.407526,-9.38992 4.281362,-13.2553 1.873833,-3.865379 6.304136,-11.55474 6.304136,-11.55474 0,0 1.278234,-1.91199 3.341616,-0.895006 2.063381,1.016983 1.467782,2.970373 1.467782,2.970373 0,0 -3.111695,4.686438 -3.370572,8.302459 -0.149227,2.084416 0.339404,2.936243 0.339404,2.936243 0,0 -8.56963,6.443574 -12.363728,11.495971 z"
             inkscape:connector-curvature="0"
             id="path4341"
             style="fill:url(#linearGradient4472);fill-opacity:1;fill-rule:evenodd;stroke:#c17d11;stroke-width:1;stroke-linecap:butt;stroke-linejoin:miter;stroke-miterlimit:4;stroke-opacity:1;stroke-dasharray:none" />
          <path
             d="m -27.930719,71.864853 a 1.237437,3.0052039 0 1 1 -2.474874,0 1.237437,3.0052039 0 1 1 2.474874,0 z"
             transform="matrix(0.40562096,0.17374134,-0.18617242,0.36893017,82.843384,47.705805)"
             id="path6537"
             style="fill:#000000;fill-opacity:0.6;stroke:#c17d11;stroke-width:0.78447628;stroke-linecap:round;stroke-miterlimit:4;stroke-opacity:1;stroke-dasharray:none"
             inkscape:connector-curvature="0" />
          <path
             d="m 51.909903,82.456262 c 1.69882,-4.379088 2.911293,-8.067331 5.035554,-12.111901"
             inkscape:connector-curvature="0"
             id="path8007"
             style="fill:#c17d11;fill-opacity:1;fill-rule:evenodd;stroke:#c17d11;stroke-width:0.34297702;stroke-linecap:butt;stroke-linejoin:miter;stroke-miterlimit:4;stroke-opacity:1;stroke-dasharray:none" />
          <path
             d="m 65.494638,58.327933 c -0.178208,0.144702 -0.296829,0.295173 -0.305337,0.305338 -5e-5,8.7e-5 -0.02539,-1.01e-4 -0.02544,0 -0.06143,0.106624 -4.405005,7.678924 -6.20853,11.399269 -0.614506,1.267612 -1.345489,3.313606 -2.010139,5.419742 2.749351,-2.47473 5.108113,-4.248228 5.750524,-4.732733 -0.122669,-0.603229 -0.207655,-1.446458 -0.127224,-2.569924 0.15355,-2.144791 1.06338,-4.307571 1.90836,-6.004972 0.764839,-1.536417 1.36704,-2.440336 1.501243,-2.646259 0.009,-0.03587 0.0442,-0.171917 0,-0.432562 -0.04097,-0.241605 -0.08618,-0.47758 -0.483452,-0.737899 z"
             inkscape:connector-curvature="0"
             id="path10381"
             style="fill:url(#linearGradient4474);fill-opacity:1;fill-rule:evenodd;stroke:none" />
          <path
             d="m 78.034285,41.7043 a 18.182745,2.2728431 0 1 1 -36.36549,0 18.182745,2.2728431 0 1 1 36.36549,0 z"
             transform="matrix(0.37707103,-0.72166035,0.72166035,0.37707103,17.69296,71.942488)"
             id="path10408"
             style="fill:url(#radialGradient4476);fill-opacity:1;stroke:none"
             inkscape:connector-curvature="0" />
        </g>
        <path
           style="font-size:medium;font-style:normal;font-variant:normal;font-weight:normal;font-stretch:normal;text-indent:0;text-align:start;text-decoration:none;line-height:normal;letter-spacing:normal;word-spacing:normal;text-transform:none;direction:ltr;block-progression:tb;writing-mode:lr-tb;text-anchor:start;baseline-shift:baseline;color:#000000;fill:#000000;fill-opacity:1;stroke:none;stroke-width:2.37550019999999984;marker:none;visibility:visible;display:inline;overflow:visible;enable-background:accumulate;font-family:Sans;-inkscape-font-specification:Sans;opacity:0.7"
           d="m -24.953027,-37.8125 c -3.050092,0 -5.546973,2.481554 -5.546973,5.517151 l 0,67.696928 c 0,3.035598 2.496881,5.51715 5.546973,5.51715 l 75.152537,0 c 3.050092,0 5.546973,-2.481552 5.546973,-5.51715 l 0,-67.696928 c 0,-3.035597 -2.496881,-5.517151 -5.546973,-5.517151 l -75.152537,0 z m 0,2.266505 75.152537,0 c 1.847794,0 3.280468,1.446316 3.280468,3.250646 l 0,67.696928 c 0,1.804334 -1.432674,3.250645 -3.280468,3.250645 l -75.152537,0 c -1.847794,0 -3.280468,-1.446311 -3.280468,-3.250645 l 0,-67.696928 c 0,-1.80433 1.432674,-3.250646 3.280468,-3.250646 z"
           id="path4989"
           inkscape:connector-curvature="0"
           transform="matrix(0.97178685,0,0,0.97178682,0.40798685,0.18323231)" />
        <rect
           ry="4.1530061"
           rx="0"
           y="34.030148"
           x="-29.308113"
           height="4.1530061"
           width="82.451546"
           id="rect4131"
           style="opacity:0.55;fill:url(#radialGradient4478);fill-opacity:1;stroke:none"
           transform="matrix(0.97178685,0,0,0.97178682,0.40798685,0.18323231)" />
        <rect
           transform="matrix(0,0.97178682,-0.97178685,0,0.40798685,0.18323231)"
           style="opacity:0.55;fill:url(#radialGradient4480);fill-opacity:1;stroke:none"
           id="rect4141"
           width="74.998405"
           height="4.159277"
           x="-37.792431"
           y="-52.16478"
           rx="0"
           ry="4.159277" />
        <g
           transform="matrix(0.86478736,0,0,0.88159515,-27.63677,-6.8787345)"
           id="g4324"
           style="opacity:0.7">
          <rect
             clip-path="url(#clipPath4156-4-0)"
             ry="3.9569881"
             rx="3.9569874"
             y="-30"
             x="2"
             height="92"
             width="92"
             id="rect4146"
             style="opacity:0.7;fill:url(#linearGradient4482);fill-opacity:1;stroke:none"
             transform="translate(-1.499875,-1.4)" />
          <path
             inkscape:connector-curvature="0"
             id="rect4190"
             d="m 4.468875,-31.4 c -2.192171,0 -3.96400836,1.776584 -3.96875,3.96875 l -0.163,75.3585 c 2.1045603,2.715549 1.8313808,2.596758 5.3354114,2.88575 1.9841699,-16.007558 40.1394806,-78.99425 85.1400886,-78.99425 0.536758,0 1.059349,0.02139 1.59375,0.03125 -0.333067,-1.850574 -1.925648,-3.25 -3.875,-3.25 z"
             style="opacity:0.3;fill:#ffffff;fill-opacity:1;stroke:none"
             sodipodi:nodetypes="ssccscss" />
        </g>
      </g>
    </g>
  </g>
</svg>
