<?xml version="1.0" encoding="UTF-8" standalone="no"?>
<!-- Created with Inkscape (http://www.inkscape.org/) -->

<svg
   xmlns:dc="http://purl.org/dc/elements/1.1/"
   xmlns:cc="http://creativecommons.org/ns#"
   xmlns:rdf="http://www.w3.org/1999/02/22-rdf-syntax-ns#"
   xmlns:svg="http://www.w3.org/2000/svg"
   xmlns="http://www.w3.org/2000/svg"
   xmlns:xlink="http://www.w3.org/1999/xlink"
   xmlns:sodipodi="http://sodipodi.sourceforge.net/DTD/sodipodi-0.dtd"
   xmlns:inkscape="http://www.inkscape.org/namespaces/inkscape"
   width="96"
   height="96"
   id="svg2"
   version="1.1"
   inkscape:version="0.48.5 r10040"
   sodipodi:docname="2-software-template.svg">
  <script
     xlink:href=""
     id="script2985" />
  <defs
     id="defs4">
    <radialGradient
       inkscape:collect="always"
       xlink:href="#linearGradient3888-8-4-8-6"
       id="radialGradient4073"
       gradientUnits="userSpaceOnUse"
       gradientTransform="matrix(0,1.6209438,-2.0382846,0,160.66427,-243.03657)"
       cx="158"
       cy="6.2131939"
       fx="158"
       fy="6.2131939"
       r="41" />
    <linearGradient
       inkscape:collect="always"
       id="linearGradient3888-8-4-8-6">
      <stop
         style="stop-color:#ffffff;stop-opacity:1;"
         offset="0"
         id="stop3890-4-7-9-7" />
      <stop
         style="stop-color:#ffffff;stop-opacity:0;"
         offset="1"
         id="stop3892-5-8-2-7" />
    </linearGradient>
    <radialGradient
       inkscape:collect="always"
       xlink:href="#linearGradient4091-0-3-0-7"
       id="radialGradient4075"
       gradientUnits="userSpaceOnUse"
       gradientTransform="matrix(-1.0721726,0,0,-0.87502024,199.46429,-19.125546)"
       cx="48"
       cy="-27"
       fx="48"
       fy="-27"
       r="42" />
    <linearGradient
       id="linearGradient4091-0-3-0-7">
      <stop
         style="stop-color:#ffffff;stop-opacity:1;"
         offset="0"
         id="stop4093-3-6-4-2" />
      <stop
         id="stop4099-6-1-8-3"
         offset="0.80000001"
         style="stop-color:#ffffff;stop-opacity:1;" />
      <stop
         style="stop-color:#ffffff;stop-opacity:0;"
         offset="1"
         id="stop4095-1-0-7-9" />
    </linearGradient>
    <linearGradient
       inkscape:collect="always"
       xlink:href="#linearGradient3832-0-6-1-1"
       id="linearGradient4129"
       x1="1.5"
       y1="88.171875"
       x2="94.5"
       y2="88.171875"
       gradientUnits="userSpaceOnUse"
       gradientTransform="matrix(1.0277057,0,0,1.0666195,-34.605293,-33.259368)" />
    <linearGradient
       id="linearGradient3832-0-6-1-1">
      <stop
         style="stop-color:#000000;stop-opacity:1;"
         offset="0"
         id="stop3834-6-3-7-1" />
      <stop
         id="stop3872-2-4"
         offset="0.1"
         style="stop-color:#000000;stop-opacity:0.58823532;" />
      <stop
         style="stop-color:#000000;stop-opacity:0.58823532;"
         offset="0.89999998"
         id="stop3844-6-2-7-6" />
      <stop
         style="stop-color:#000000;stop-opacity:1;"
         offset="1"
         id="stop3836-5-0-2-9" />
    </linearGradient>
    <radialGradient
       inkscape:collect="always"
       xlink:href="#linearGradient4133"
       id="radialGradient4478"
       gradientUnits="userSpaceOnUse"
       gradientTransform="matrix(0.95431793,0,0,0.04806809,-1.393303,33.948745)"
       cx="13.948145"
       cy="44.892841"
       fx="13.948145"
       fy="44.892841"
       r="43.199203" />
    <linearGradient
       inkscape:collect="always"
       id="linearGradient4133">
      <stop
         style="stop-color:#ffffff;stop-opacity:1;"
         offset="0"
         id="stop4135" />
      <stop
         style="stop-color:#ffffff;stop-opacity:0;"
         offset="1"
         id="stop4137" />
    </linearGradient>
    <radialGradient
       inkscape:collect="always"
       xlink:href="#linearGradient4133"
       id="radialGradient4480"
       gradientUnits="userSpaceOnUse"
       gradientTransform="matrix(0.86805317,0,0,0.04814066,-12.400957,-52.246305)"
       cx="13.948145"
       cy="44.892841"
       fx="13.948145"
       fy="44.892841"
       r="43.199203" />
    <linearGradient
       inkscape:collect="always"
       xlink:href="#linearGradient4213-7-6"
       id="linearGradient4482"
       gradientUnits="userSpaceOnUse"
       x1="2.7713892"
       y1="-28.64156"
       x2="50.527882"
       y2="14.514202" />
    <linearGradient
       inkscape:collect="always"
       id="linearGradient4213-7-6">
      <stop
         style="stop-color:#ffffff;stop-opacity:1;"
         offset="0"
         id="stop4215-6-9" />
      <stop
         style="stop-color:#ffffff;stop-opacity:0;"
         offset="1"
         id="stop4217-5-9" />
    </linearGradient>
    <clipPath
       clipPathUnits="userSpaceOnUse"
       id="clipPath4156-4-0">
      <path
         style="opacity:0.6;fill:#ffffff;fill-opacity:1;stroke:none"
         d="m 27.046336,-55.695463 -14.21366,13.321486 0.06127,0 15.653407,21.770763 10.231384,-10.546177 C 38.561832,-32.30156 27.468089,-54.819245 27.046336,-55.695463 z M 9.6468554,-39.382809 -5.2407289,-25.32124 15.987863,-7.8059573 26.372412,-18.382966 9.6468554,-39.382809 z m 31.4906096,12.951445 -9.741259,9.713584 8.944804,12.4580526 7.780753,-7.5550056 -6.984298,-14.616631 z m -49.8397109,4.378822 -13.7541661,12.9822847 26.2830181,13.84571 0.06127,-0.0617 -0.122531,-0.0617 L 13.598503,-5.4007374 -8.7022409,-22.052595 z m 38.0154159,7.400825 -9.802525,9.7752596 11.579232,9.5594001 7.62759,-7.40083 -8.669108,-11.0087257 -0.735189,-0.925104 z m 20.187073,5.6739697 -7.382526,7.2158 6.187844,8.54179 5.820249,-6.13651996 -4.625567,-9.62107004 z m -32.195166,6.32154 -9.5574606,9.49772 13.6622686,7.1849703 7.933918,-7.6783603 -12.038726,-9.00433 z m 23.311629,2.37443004 -7.10683,6.93826996 8.362778,6.9074403 5.360756,-5.6739699 -0.06127,-0.0925 -0.0919,0.12335 -6.463539,-8.20258036 z m -8.730374,8.54178036 -7.505057,7.3391599 10.353916,5.45811 c 1.397496,-1.32103 5.67514,-6.12292 5.850882,-6.32154 L 31.886332,8.2600031 z"
         id="path4158-0-3"
         inkscape:connector-curvature="0" />
    </clipPath>
    <radialGradient
       inkscape:collect="always"
       xlink:href="#radialGradient29545"
       id="radialGradient3462"
       gradientUnits="userSpaceOnUse"
       gradientTransform="matrix(0.09487444,0,0,0.09487444,8.473189,8.6743156)"
       cx="375.21439"
       cy="783.16357"
       fx="375.21439"
       fy="783.16357"
       r="300.5752" />
    <radialGradient
       cx="375.21439"
       cy="783.16357"
       r="300.5752"
       fx="375.21439"
       fy="783.16357"
       id="radialGradient29545"
       gradientUnits="userSpaceOnUse"
       gradientTransform="matrix(1.12563,0,0,1.12563,-41.8734,-39.5467)">
      <stop
         id="stop29547"
         style="stop-color:#eeeeef;stop-opacity:0.941176"
         offset="0.0112" />
      <stop
         id="stop29549"
         style="stop-color:#6193cf;stop-opacity:1"
         offset="0.29210001" />
      <stop
         id="stop29551"
         style="stop-color:#2c72c7;stop-opacity:1"
         offset="0.45750001" />
      <stop
         id="stop29553"
         style="stop-color:#0057ae;stop-opacity:1"
         offset="0.6767" />
      <stop
         id="stop29555"
         style="stop-color:#004d9a;stop-opacity:1"
         offset="0.8653" />
      <stop
         id="stop29557"
         style="stop-color:#00438a;stop-opacity:1"
         offset="1" />
    </radialGradient>
    <linearGradient
       inkscape:collect="always"
       xlink:href="#XMLID_4_"
       id="linearGradient3464"
       gradientUnits="userSpaceOnUse"
       gradientTransform="matrix(-0.09487444,0,0,0.09487444,98.72485,8.6743156)"
       x1="429.84909"
       y1="815.45459"
       x2="480.12021"
       y2="643.30768" />
    <linearGradient
       x1="429.84909"
       y1="815.45459"
       x2="480.12021"
       y2="643.30768"
       id="XMLID_4_"
       gradientUnits="userSpaceOnUse"
       gradientTransform="matrix(-1.12563,0,0,1.12563,1028.91,-39.5467)">
      <stop
         id="stop112"
         style="stop-color:#ffffff;stop-opacity:1"
         offset="0" />
      <stop
         id="stop114"
         style="stop-color:#e5eaf2;stop-opacity:1"
         offset="1" />
    </linearGradient>
    <linearGradient
       inkscape:collect="always"
       xlink:href="#XMLID_5_"
       id="linearGradient3466"
       gradientUnits="userSpaceOnUse"
       gradientTransform="matrix(0.09487444,0,0,0.09487444,8.473189,8.6743156)"
       x1="220.9512"
       y1="634.63232"
       x2="278.14471"
       y2="560.35498" />
    <linearGradient
       x1="220.9512"
       y1="634.63232"
       x2="278.14471"
       y2="560.35498"
       id="XMLID_5_"
       gradientUnits="userSpaceOnUse">
      <stop
         id="stop119"
         style="stop-color:#ffffff;stop-opacity:1"
         offset="0" />
      <stop
         id="stop121"
         style="stop-color:#193d6b;stop-opacity:1"
         offset="1" />
    </linearGradient>
    <linearGradient
       inkscape:collect="always"
       xlink:href="#XMLID_5_"
       id="linearGradient3468"
       gradientUnits="userSpaceOnUse"
       gradientTransform="matrix(0.09487444,0,0,0.09487444,8.473189,8.6743156)"
       x1="237.20799"
       y1="684.01898"
       x2="328.18469"
       y2="565.86761" />
    <linearGradient
       x1="220.9512"
       y1="634.63232"
       x2="278.14471"
       y2="560.35498"
       id="linearGradient3511"
       gradientUnits="userSpaceOnUse">
      <stop
         id="stop3513"
         style="stop-color:#ffffff;stop-opacity:1"
         offset="0" />
      <stop
         id="stop3515"
         style="stop-color:#193d6b;stop-opacity:1"
         offset="1" />
    </linearGradient>
    <linearGradient
       inkscape:collect="always"
       xlink:href="#XMLID_5_"
       id="linearGradient3470"
       gradientUnits="userSpaceOnUse"
       gradientTransform="matrix(0.09487444,0,0,0.09487444,8.473189,8.6743156)"
       x1="264.5405"
       y1="704.23578"
       x2="335.09619"
       y2="612.60522" />
    <linearGradient
       x1="220.9512"
       y1="634.63232"
       x2="278.14471"
       y2="560.35498"
       id="linearGradient3518"
       gradientUnits="userSpaceOnUse">
      <stop
         id="stop3520"
         style="stop-color:#ffffff;stop-opacity:1"
         offset="0" />
      <stop
         id="stop3522"
         style="stop-color:#193d6b;stop-opacity:1"
         offset="1" />
    </linearGradient>
    <linearGradient
       inkscape:collect="always"
       xlink:href="#XMLID_5_"
       id="linearGradient3472"
       gradientUnits="userSpaceOnUse"
       gradientTransform="matrix(0.09487444,0,0,0.09487444,8.473189,8.6743156)"
       x1="319.186"
       y1="713.54639"
       x2="373.12509"
       y2="626.00598" />
    <linearGradient
       x1="220.9512"
       y1="634.63232"
       x2="278.14471"
       y2="560.35498"
       id="linearGradient3525"
       gradientUnits="userSpaceOnUse">
      <stop
         id="stop3527"
         style="stop-color:#ffffff;stop-opacity:1"
         offset="0" />
      <stop
         id="stop3529"
         style="stop-color:#193d6b;stop-opacity:1"
         offset="1" />
    </linearGradient>
    <linearGradient
       inkscape:collect="always"
       xlink:href="#XMLID_5_"
       id="linearGradient3474"
       gradientUnits="userSpaceOnUse"
       gradientTransform="matrix(0.09487444,0,0,0.09487444,8.473189,8.6743156)"
       x1="331.49609"
       y1="790.51508"
       x2="409.85471"
       y2="688.75092" />
    <linearGradient
       x1="220.9512"
       y1="634.63232"
       x2="278.14471"
       y2="560.35498"
       id="linearGradient3532"
       gradientUnits="userSpaceOnUse">
      <stop
         id="stop3534"
         style="stop-color:#ffffff;stop-opacity:1"
         offset="0" />
      <stop
         id="stop3536"
         style="stop-color:#193d6b;stop-opacity:1"
         offset="1" />
    </linearGradient>
    <linearGradient
       inkscape:collect="always"
       xlink:href="#linearGradient5498"
       id="linearGradient3476"
       gradientUnits="userSpaceOnUse"
       gradientTransform="matrix(0.08428564,0,0,0.08428564,12.002509,12.007535)"
       x1="1508.4957"
       y1="-363.42487"
       x2="361.1441"
       y2="630.52039" />
    <linearGradient
       id="linearGradient5498">
      <stop
         id="stop5500"
         style="stop-color:#eeeeee;stop-opacity:1"
         offset="0" />
      <stop
         id="stop5502"
         style="stop-color:#eeeeee;stop-opacity:0"
         offset="1" />
    </linearGradient>
    <linearGradient
       inkscape:collect="always"
       xlink:href="#linearGradient5498"
       id="linearGradient3478"
       gradientUnits="userSpaceOnUse"
       gradientTransform="matrix(0.08428564,0,0,0.08428564,12.002509,12.007535)"
       x1="370.62177"
       y1="-309.6048"
       x2="370.20648"
       y2="458.38397" />
    <linearGradient
       id="linearGradient3545">
      <stop
         id="stop3547"
         style="stop-color:#eeeeee;stop-opacity:1"
         offset="0" />
      <stop
         id="stop3549"
         style="stop-color:#eeeeee;stop-opacity:0"
         offset="1" />
    </linearGradient>
    <linearGradient
       inkscape:collect="always"
       xlink:href="#linearGradient5498"
       id="linearGradient3480"
       gradientUnits="userSpaceOnUse"
       gradientTransform="matrix(0.08428564,0,0,0.08428564,12.002509,12.007535)"
       x1="247.47713"
       y1="274.88394"
       x2="130.31757"
       y2="580.54669" />
    <linearGradient
       id="linearGradient3552">
      <stop
         id="stop3554"
         style="stop-color:#eeeeee;stop-opacity:1"
         offset="0" />
      <stop
         id="stop3556"
         style="stop-color:#eeeeee;stop-opacity:0"
         offset="1" />
    </linearGradient>
    <linearGradient
       inkscape:collect="always"
       xlink:href="#linearGradient5498"
       id="linearGradient3482"
       gradientUnits="userSpaceOnUse"
       gradientTransform="matrix(0.08428564,0,0,0.08428564,12.002509,12.007535)"
       x1="220.36789"
       y1="756.76105"
       x2="185.21225"
       y2="491.06723" />
    <linearGradient
       id="linearGradient3559">
      <stop
         id="stop3561"
         style="stop-color:#eeeeee;stop-opacity:1"
         offset="0" />
      <stop
         id="stop3563"
         style="stop-color:#eeeeee;stop-opacity:0"
         offset="1" />
    </linearGradient>
    <linearGradient
       inkscape:collect="always"
       xlink:href="#linearGradient3832-0-6-1-1"
       id="linearGradient5738"
       x1="1.5"
       y1="86.625"
       x2="94.5"
       y2="86.625"
       gradientUnits="userSpaceOnUse" />
    <filter
       id="filter3974"
       inkscape:collect="always">
      <feGaussianBlur
         id="feGaussianBlur3976"
         stdDeviation="0.50758622"
         inkscape:collect="always" />
    </filter>
    <radialGradient
       gradientUnits="userSpaceOnUse"
       gradientTransform="matrix(1,0,0,0.88156786,0,17.34444)"
       r="12.171034"
       fy="146.45045"
       fx="315.09909"
       cy="146.45045"
       cx="315.09909"
       id="radialGradient3972"
       xlink:href="#linearGradient4933"
       inkscape:collect="always" />
    <linearGradient
       y2="328.5625"
       x2="397.10538"
       y1="463.6875"
       x1="394.03125"
       gradientTransform="matrix(0.562713,0,0,0.562713,258.93171,155.92466)"
       gradientUnits="userSpaceOnUse"
       id="linearGradient3930"
       xlink:href="#linearGradient4933"
       inkscape:collect="always" />
    <linearGradient
       y2="328.5625"
       x2="397.10538"
       y1="463.6875"
       x1="394.03125"
       gradientTransform="matrix(0.562713,0,0,0.562713,258.93171,155.92466)"
       gradientUnits="userSpaceOnUse"
       id="linearGradient3916"
       xlink:href="#linearGradient4933"
       inkscape:collect="always" />
    <radialGradient
       r="11.038675"
       fy="471.38705"
       fx="538.92696"
       cy="471.38705"
       cx="538.92696"
       gradientTransform="matrix(1,0,0,1.8611833,0,-405.95067)"
       gradientUnits="userSpaceOnUse"
       id="radialGradient3907"
       xlink:href="#linearGradient3828"
       inkscape:collect="always" />
    <radialGradient
       r="6.9189191"
       fy="133.47748"
       fx="320"
       cy="133.47748"
       cx="320"
       gradientTransform="matrix(1,0,0,0.45833332,0,72.300302)"
       gradientUnits="userSpaceOnUse"
       id="radialGradient3905"
       xlink:href="#linearGradient4423"
       inkscape:collect="always" />
    <radialGradient
       r="11.038675"
       fy="471.38705"
       fx="538.92696"
       cy="471.38705"
       cx="538.92696"
       gradientTransform="matrix(1,0,0,1.8611833,0,-405.95067)"
       gradientUnits="userSpaceOnUse"
       id="radialGradient3903"
       xlink:href="#linearGradient3828"
       inkscape:collect="always" />
    <radialGradient
       r="11.038675"
       fy="471.38705"
       fx="538.92696"
       cy="471.38705"
       cx="538.92696"
       gradientTransform="matrix(1,0,0,1.8611833,0,-405.95067)"
       gradientUnits="userSpaceOnUse"
       id="radialGradient3901"
       xlink:href="#linearGradient3828"
       inkscape:collect="always" />
    <radialGradient
       r="11.038675"
       fy="471.38705"
       fx="538.92696"
       cy="471.38705"
       cx="538.92696"
       gradientTransform="matrix(1,0,0,1.8611833,0,-405.95067)"
       gradientUnits="userSpaceOnUse"
       id="radialGradient3899"
       xlink:href="#linearGradient3828"
       inkscape:collect="always" />
    <radialGradient
       r="11.038675"
       fy="471.38705"
       fx="538.92696"
       cy="471.38705"
       cx="538.92696"
       gradientTransform="matrix(1,0,0,1.8611833,0,-405.95067)"
       gradientUnits="userSpaceOnUse"
       id="radialGradient3884"
       xlink:href="#linearGradient3828"
       inkscape:collect="always" />
    <radialGradient
       r="11.038675"
       fy="471.38705"
       fx="538.92696"
       cy="471.38705"
       cx="538.92696"
       gradientTransform="matrix(0.93285077,-0.18595102,0.34608893,1.7362063,166.47081,-0.71431289)"
       gradientUnits="userSpaceOnUse"
       id="radialGradient3882"
       xlink:href="#linearGradient3828"
       inkscape:collect="always" />
    <radialGradient
       r="11.038675"
       fy="471.38705"
       fx="538.92696"
       cy="471.38705"
       cx="538.92696"
       gradientTransform="matrix(1.4115742,0,0,1.8896957,133.5264,-99.327621)"
       gradientUnits="userSpaceOnUse"
       id="radialGradient3880"
       xlink:href="#linearGradient3828"
       inkscape:collect="always" />
    <filter
       height="2.5454954"
       y="-0.77274771"
       width="1.7083521"
       x="-0.35417603"
       id="filter3868"
       inkscape:collect="always">
      <feGaussianBlur
         id="feGaussianBlur3870"
         stdDeviation="2.0420961"
         inkscape:collect="always" />
    </filter>
    <radialGradient
       gradientUnits="userSpaceOnUse"
       gradientTransform="matrix(1,0,0,0.45833332,0,72.300302)"
       r="6.9189191"
       fy="133.47748"
       fx="320"
       cy="133.47748"
       cx="320"
       id="radialGradient3846"
       xlink:href="#linearGradient4423"
       inkscape:collect="always" />
    <radialGradient
       gradientUnits="userSpaceOnUse"
       gradientTransform="matrix(1,0,0,1.8611833,0,-405.95067)"
       r="11.038675"
       fy="471.38705"
       fx="538.92696"
       cy="471.38705"
       cx="538.92696"
       id="radialGradient3834"
       xlink:href="#linearGradient3828"
       inkscape:collect="always" />
    <linearGradient
       gradientUnits="userSpaceOnUse"
       y2="146.45045"
       x2="326.46576"
       y1="146.45045"
       x1="303.73242"
       id="linearGradient3818"
       xlink:href="#linearGradient4933"
       inkscape:collect="always" />
    <radialGradient
       gradientUnits="userSpaceOnUse"
       gradientTransform="matrix(1,0,0,0.87318697,0,18.571827)"
       r="11.366667"
       fy="146.45045"
       fx="315.09909"
       cy="146.45045"
       cx="315.09909"
       id="radialGradient3810"
       xlink:href="#linearGradient3828"
       inkscape:collect="always" />
    <radialGradient
       gradientUnits="userSpaceOnUse"
       gradientTransform="matrix(1,0,0,1.4218631,0,-193.40293)"
       r="33.884018"
       fy="458.44946"
       fx="570.79626"
       cy="458.44946"
       cx="570.79626"
       id="radialGradient3800"
       xlink:href="#linearGradient4933"
       inkscape:collect="always" />
    <linearGradient
       gradientUnits="userSpaceOnUse"
       y2="461.19168"
       x2="572.75323"
       y1="454.06195"
       x1="572.67834"
       id="linearGradient3792"
       xlink:href="#linearGradient3786"
       inkscape:collect="always" />
    <linearGradient
       gradientTransform="matrix(0.562713,0,0,0.562713,258.93171,155.92466)"
       y2="328.5625"
       x2="397.10538"
       y1="463.6875"
       x1="394.03125"
       gradientUnits="userSpaceOnUse"
       id="linearGradient4988"
       xlink:href="#linearGradient4933"
       inkscape:collect="always" />
    <linearGradient
       id="linearGradient4423">
      <stop
         style="stop-color:#c1c1c1;stop-opacity:1;"
         offset="0"
         id="stop4425" />
      <stop
         style="stop-color:#ffffff;stop-opacity:1;"
         offset="1"
         id="stop4427" />
    </linearGradient>
    <linearGradient
       id="linearGradient4933">
      <stop
         id="stop4935"
         offset="0"
         style="stop-color:#bf0000;stop-opacity:1;" />
      <stop
         style="stop-color:#ff4a4a;stop-opacity:1;"
         offset="0.25"
         id="stop3775" />
      <stop
         style="stop-color:#ff3636;stop-opacity:1;"
         offset="0.5"
         id="stop3773" />
      <stop
         id="stop4937"
         offset="1"
         style="stop-color:#b50000;stop-opacity:1;" />
    </linearGradient>
    <linearGradient
       id="linearGradient3786"
       inkscape:collect="always">
      <stop
         id="stop3788"
         offset="0"
         style="stop-color:#241f1c;stop-opacity:1;" />
      <stop
         id="stop3790"
         offset="1"
         style="stop-color:#241f1c;stop-opacity:0;" />
    </linearGradient>
    <linearGradient
       id="linearGradient3794">
      <stop
         id="stop3796"
         offset="0"
         style="stop-color:#ff0000;stop-opacity:1;" />
      <stop
         id="stop3798"
         offset="1"
         style="stop-color:#ff0000;stop-opacity:0;" />
    </linearGradient>
    <linearGradient
       id="linearGradient3828">
      <stop
         id="stop3830"
         offset="0"
         style="stop-color:#000000;stop-opacity:1;" />
      <stop
         style="stop-color:#656565;stop-opacity:1;"
         offset="0.5"
         id="stop3836" />
      <stop
         id="stop3832"
         offset="1"
         style="stop-color:#000000;stop-opacity:1;" />
    </linearGradient>
  </defs>
  <sodipodi:namedview
     id="base"
     pagecolor="#ffffff"
     bordercolor="#666666"
     borderopacity="1.0"
     inkscape:pageopacity="0.0"
     inkscape:pageshadow="2"
     inkscape:zoom="2.8408567"
     inkscape:cx="28.239703"
     inkscape:cy="60.639799"
     inkscape:current-layer="g4060"
     showgrid="true"
     inkscape:document-units="px"
     inkscape:grid-bbox="true"
     inkscape:showpageshadow="false"
     gridtolerance="1"
     guidetolerance="1"
     objecttolerance="1"
     inkscape:window-width="1280"
     inkscape:window-height="966"
     inkscape:window-x="0"
     inkscape:window-y="0"
     inkscape:window-maximized="1" />
  <metadata
     id="metadata7">
    <rdf:RDF>
      <cc:Work
         rdf:about="">
        <dc:format>image/svg+xml</dc:format>
        <dc:type
           rdf:resource="http://purl.org/dc/dcmitype/StillImage" />
        <dc:title></dc:title>
      </cc:Work>
    </rdf:RDF>
  </metadata>
  <g
     id="layer1"
     inkscape:label="Layer 1"
     inkscape:groupmode="layer"
     transform="translate(0,32)">
    <g
       transform="matrix(1.0034441,0,0,1.0049592,35.281259,11.473238)"
       id="g3384">
      <path
         inkscape:connector-curvature="0"
         id="path3288"
         d="m 55.462534,-41.268579 -82.003291,0 c -3.78581,0 -6.8336,3.043193 -6.8336,6.823302 l 0,81.87966 c 0,3.780111 3.04779,6.823304 6.8336,6.823304 l 82.003291,0 c 3.785819,0 6.833607,-3.043193 6.833607,-6.823304 l 0,-81.87966 c 0,-3.780109 -3.047788,-6.823302 -6.833607,-6.823302 z"
         style="opacity:0.15;fill:#000000;fill-opacity:1;fill-rule:nonzero;stroke:none;display:inline"
         transform="translate(-1.7858053,-1.9901305)" />
      <path
         style="opacity:0.15;fill:#000000;fill-opacity:1;fill-rule:nonzero;stroke:none;display:inline"
         d="m 54.821885,-40.52228 -80.721993,0 c -3.726657,0 -6.726825,2.995643 -6.726825,6.716688 l 0,80.60029 c 0,3.721047 3.000168,6.71669 6.726825,6.71669 l 80.721993,0 c 3.726665,0 6.726832,-2.995643 6.726832,-6.71669 l 0,-80.60029 c 0,-3.721045 -3.000167,-6.716688 -6.726832,-6.716688 z"
         id="path4085"
         inkscape:connector-curvature="0"
         transform="translate(-1.7858053,-1.9901305)" />
      <g
         transform="matrix(0.97178685,0,0,0.97178682,-1.3778184,-1.8068982)"
         id="g4060">
        <path
           inkscape:connector-curvature="0"
           id="rect4251-1"
           d="m 55.334401,-41.11932 -81.747021,0 c -3.773988,0 -6.812252,3.033683 -6.812252,6.80198 l 0,81.623788 c 0,3.768297 3.038264,6.80198 6.812252,6.80198 l 81.747021,0 c 3.773988,0 6.812252,-3.033683 6.812252,-6.80198 l 0,-81.623788 c 0,-3.768297 -3.038264,-6.80198 -6.812252,-6.80198 z"
           style="fill:#9d6b6c;fill-opacity:1;fill-rule:nonzero;stroke:none;display:inline" />
        <g
           transform="matrix(0.23432863,0,0,0.23397537,-85.720295,-98.767331)"
           id="layer1-7"
           inkscape:label="Layer 1">
          <g
             transform="matrix(1.0512996,0,0,1.0512996,14.875229,-29.039195)"
             id="g4972">
            <g
               transform="matrix(-1.1257444,0.36077825,0.36077825,1.1257444,872.84122,-230.99429)"
               id="g3909">
              <path
                 style="opacity:0.64203126;fill:none;stroke:#e1adad;stroke-width:2.25085211;stroke-linejoin:round;stroke-miterlimit:4;stroke-opacity:1;stroke-dasharray:none"
                 d="m 489.27476,340.81105 c 5.46142,21.5082 -19.24977,27.99879 -28.17082,41.39457 -6.07798,9.12575 2.98876,18.93158 15.33393,30.06998 -4.81388,-10.88068 -21.14935,-20.40155 0,-37.10389 26.37409,-20.82139 12.83689,-34.36066 12.83689,-34.36066 z m 16.33626,26.60577 c 0,0 -44.60052,11.13585 -23.29983,35.67952 6.28374,7.2346 -1.65297,13.7513 -1.65297,13.7513 0,0 15.94419,-8.23762 8.61654,-18.55194 -6.84378,-9.61873 -12.07576,-14.40091 16.33626,-30.87888 z"
                 id="path4966"
                 inkscape:connector-curvature="0" />
              <path
                 id="path4361"
                 d="m 489.27476,340.81105 c 5.46142,21.5082 -19.24977,27.99879 -28.17082,41.39457 -6.07798,9.12575 2.98876,18.93158 15.33393,30.06998 -4.81388,-10.88068 -21.14935,-20.40155 0,-37.10389 26.37409,-20.82139 12.83689,-34.36066 12.83689,-34.36066 z m 16.33626,26.60577 c 0,0 -44.60052,11.13585 -23.29983,35.67952 6.28374,7.2346 -1.65297,13.7513 -1.65297,13.7513 0,0 15.94419,-8.23762 8.61654,-18.55194 -6.84378,-9.61873 -12.07576,-14.40091 16.33626,-30.87888 z"
                 style="fill:url(#linearGradient3916);fill-opacity:1"
                 inkscape:connector-curvature="0" />
              <path
                 id="path4946"
                 d="m 489.27476,340.81105 c 0.13039,0.5135 0.2375,1.01561 0.33411,1.51229 0.82466,0.99018 2.96436,4.01079 3.11251,8.72205 0.24363,-6.51634 -3.44662,-10.23434 -3.44662,-10.23434 z m 0.77373,6.61188 c -0.58059,16.41153 -21.01058,22.86909 -28.94455,34.78269 -1.45108,2.17871 -2.03063,4.39952 -1.91674,6.66464 0.10287,-1.87648 0.70632,-3.72183 1.91674,-5.53921 8.11475,-12.18506 29.29276,-18.65023 28.94455,-35.90812 z m 15.56253,19.99389 c 0,0 -29.7199,7.41546 -29.05005,23.49327 0.56032,-11.78528 17.48936,-18.67861 25.23416,-21.22483 1.20501,-0.73417 2.46143,-1.48289 3.81589,-2.26844 z m -21.7172,20.71488 c -0.33406,3.76238 2.37316,7.06207 5.38094,11.28943 1.22736,1.72761 1.79331,3.39435 1.89916,4.97649 0.13598,-1.90955 -0.37567,-3.95747 -1.89916,-6.10192 -2.70442,-3.80098 -5.15651,-6.85337 -5.38094,-10.164 z m -18.00682,3.65763 c -0.38432,7.33081 5.94378,13.28775 9.4782,19.50152 0.3594,0.32741 0.70722,0.65502 1.07267,0.98475 -2.9563,-6.68205 -10.25445,-12.85164 -10.55087,-20.48627 z m 18.81572,17.77821 c -0.34026,4.23754 -4.0445,7.2801 -4.0445,7.2801 0,0 0.90855,-0.47319 2.18051,-1.31885 1.04297,-1.49719 2.02293,-3.57831 1.86399,-5.96125 z"
                 style="opacity:0.8515625;fill:#ffffff;fill-opacity:1"
                 inkscape:connector-curvature="0" />
              <path
                 id="path4955"
                 d="m 489.27476,340.81105 c 0.48692,1.91759 0.73392,3.72173 0.77373,5.41611 0.0504,-1.5805 -0.0936,-3.25053 -0.43962,-5.02925 -0.19391,-0.23283 -0.33411,-0.38686 -0.33411,-0.38686 z m 3.44662,9.10892 c -0.22202,5.93838 -3.70841,14.19873 -16.28351,24.12632 -8.16109,6.44507 -10.73712,11.82045 -10.55087,16.61761 0.23659,-4.51274 3.01813,-9.54333 10.55087,-15.49219 13.38662,-10.56825 16.47212,-19.25379 16.28351,-25.25174 z m 12.88964,17.49685 c 0,0 -1.51115,0.38529 -3.81589,1.14301 -14.08344,8.58054 -18.21774,13.7786 -17.90131,18.44644 0.42603,-4.79837 5.79204,-10.35341 21.7172,-19.58945 z m -46.42382,20.32801 c -0.41365,7.54603 7.36402,15.61056 17.25067,24.53077 -0.31408,-0.70991 -0.67411,-1.40946 -1.07267,-2.11017 -8.88277,-8.09215 -15.82896,-15.47891 -16.178,-22.4206 z m 17.37377,2.03984 c -0.18533,3.89806 1.42352,8.32624 5.75022,13.31167 1.61698,1.86167 2.28029,3.678 2.39153,5.34578 0.15753,-1.96192 -0.40294,-4.1817 -2.39153,-6.4712 -3.91224,-4.50787 -5.59952,-8.5689 -5.75022,-12.18625 z m 14.61295,13.48752 c -0.36285,5.09512 -5.3621,9.1545 -8.33519,11.13117 -1.06375,1.52703 -2.18051,2.44428 -2.18051,2.44428 0,0 11.04178,-5.7118 10.5157,-13.57545 z"
                 style="opacity:0.7;fill:#000000;fill-opacity:1"
                 inkscape:connector-curvature="0" />
              <path
                 inkscape:connector-curvature="0"
                 style="opacity:0.3;fill:#000000;fill-opacity:1"
                 d="m 489.27476,341.93648 c 0.48692,1.91759 0.73392,3.72173 0.77373,5.41611 0.0504,-1.58051 -0.0936,-3.25053 -0.43962,-5.02925 -0.19391,-0.23284 -0.33411,-0.38686 -0.33411,-0.38686 z m 3.44662,9.10891 c -0.22202,5.93839 -3.70841,14.19874 -16.28351,24.12632 -8.16109,6.44508 -10.73712,11.82045 -10.55087,16.61762 0.23659,-4.51274 3.01813,-9.54334 10.55087,-15.49219 13.38662,-10.56825 16.47212,-19.25379 16.28351,-25.25175 z m 12.88964,17.49686 c 0,0 -1.51115,0.38529 -3.81589,1.14301 -14.08344,8.58054 -18.21774,13.7786 -17.90131,18.44644 0.42603,-4.79838 5.79204,-10.35342 21.7172,-19.58945 z m -46.42382,20.32801 c -0.41365,7.54602 7.36402,15.61056 17.25067,24.53077 -0.31408,-0.70992 -0.67411,-1.40946 -1.07267,-2.11018 -8.88277,-8.09215 -15.82896,-15.4789 -16.178,-22.42059 z m 17.37377,2.03983 c -0.18533,3.89807 1.42352,8.32625 5.75022,13.31168 1.61698,1.86166 2.28029,3.67799 2.39153,5.34577 0.15753,-1.96192 -0.40294,-4.18169 -2.39153,-6.4712 -3.91224,-4.50786 -5.59952,-8.5689 -5.75022,-12.18625 z m 14.61295,13.48753 c -0.36285,5.09512 -5.3621,9.1545 -8.33519,11.13117 -1.06375,1.52702 -2.18051,2.44428 -2.18051,2.44428 0,0 11.04178,-5.7118 10.5157,-13.57545 z"
                 id="path4964" />
            </g>
            <g
               transform="matrix(2.4969371,0,0,2.4969371,-1038.1228,-699.15838)"
               id="g3886">
              <g
                 style="fill:url(#radialGradient3907);fill-opacity:1;stroke:#000000;stroke-width:1.23656476;stroke-miterlimit:4;stroke-opacity:1;stroke-dasharray:none"
                 id="g3874"
                 transform="matrix(-1,0,0,1,1144.2153,3.2906504)">
                <path
                   style="fill:url(#radialGradient3880);fill-opacity:1;stroke:#000000;stroke-width:1.55631161;stroke-linecap:butt;stroke-linejoin:miter;stroke-miterlimit:4;stroke-opacity:1;stroke-dasharray:none"
                   d="m 555.11657,448.657 -13.83597,7.02491 6.51105,8.78114 z"
                   id="path3876"
                   inkscape:connector-curvature="0"
                   sodipodi:nodetypes="cccc" />
                <path
                   sodipodi:nodetypes="cscccccsccscccc"
                   style="fill:url(#radialGradient3882);fill-opacity:1;stroke:#000000;stroke-width:1.23656464;stroke-linecap:butt;stroke-linejoin:miter;stroke-miterlimit:4;stroke-opacity:1;stroke-dasharray:none"
                   d="m 540.87667,455.50018 c 0,0 -14.58928,7.84455 -14.0532,10.53385 0.53607,2.6893 8.92205,8.28768 8.92205,8.28768 l 3.7668,-3.54702 1.18116,3.11994 -1.72615,8.17334 0.31808,7.2066 c 0,0 -1.50815,3.65602 -4.30289,0.85772 -2.79473,-2.79829 -3.43802,-6.02545 -3.43802,-6.02545 l 4.30109,1.93879 c 0,0 2.47666,-4.40831 0.86487,-6.88319 -1.61179,-2.47486 -2.04065,-4.6263 -2.04065,-4.6263 l 0.43064,-0.64507 0,0 -7.73912,-7.96426"
                   id="path3878"
                   inkscape:connector-curvature="0" />
              </g>
              <g
                 id="g3824"
                 style="fill:url(#radialGradient3903);fill-opacity:1;stroke:#000000;stroke-width:1.23656476;stroke-miterlimit:4;stroke-opacity:1;stroke-dasharray:none">
                <path
                   sodipodi:nodetypes="cccc"
                   transform="matrix(0.95120363,0,0,0.95120363,266.35142,322.57652)"
                   inkscape:connector-curvature="0"
                   id="path3820"
                   d="m 299.1299,135.03367 -10.26504,5.65101 4.61262,8.64865 z"
                   style="fill:url(#radialGradient3899);fill-opacity:1;stroke:#000000;stroke-width:1.29999995;stroke-linecap:butt;stroke-linejoin:miter;stroke-miterlimit:4;stroke-opacity:1;stroke-dasharray:none" />
                <path
                   transform="matrix(0.95120363,0,0,0.95120363,266.35142,322.57652)"
                   inkscape:connector-curvature="0"
                   id="path3822"
                   d="m 288.86486,140.68468 c 0,0 -13.26126,5.76577 -13.26126,8.64865 0,2.88289 7.4955,10.37838 7.4955,10.37838 l 4.61261,-2.88288 0.57658,3.45946 -3.45946,8.07207 -1.15315,7.4955 c 0,0 -2.30631,3.45946 -4.61262,0 -2.3063,-3.45946 -2.3063,-6.91892 -2.3063,-6.91892 l 4.03603,2.88288 c 0,0 3.45946,-4.03604 2.30631,-6.91892 -1.15315,-2.88288 -1.15315,-5.18919 -1.15315,-5.18919 l 0.57657,-0.57657 0,0 -6.34234,-9.80181"
                   style="fill:url(#radialGradient3901);fill-opacity:1;stroke:#000000;stroke-width:1.29999995;stroke-linecap:butt;stroke-linejoin:miter;stroke-miterlimit:4;stroke-opacity:1;stroke-dasharray:none"
                   sodipodi:nodetypes="cscccccsccscccc" />
              </g>
              <path
                 style="fill:url(#radialGradient3800);fill-opacity:1;stroke:#000000;stroke-width:1.33168507;stroke-miterlimit:4;stroke-opacity:1;stroke-dasharray:none"
                 d="m 599.80398,470.18591 c 4.97008,9.81778 6.31088,23.08113 -0.23801,31.13103 -3.10254,3.81365 -8.34943,6.46558 -14.41687,3.11147 -6.37204,-3.52251 -7.78877,-6.80307 -14.56563,-5.70619 -6.43366,-1.62582 -15.14096,7.47687 -21.75062,6.8126 -5.9278,-0.59575 -7.15975,-3.16029 -8.75466,-6.40546 -3.61153,-7.34845 -3.23052,-15.99984 0.62717,-24.55591 6.03671,-13.38897 15.47966,-38.24778 31.19464,-63.63659 13.52121,23.4225 24.0649,51.66538 27.90398,59.24905 z"
                 id="path3013"
                 inkscape:connector-curvature="0"
                 sodipodi:nodetypes="sascsascs" />
              <path
                 sodipodi:nodetypes="sascsascs"
                 inkscape:connector-curvature="0"
                 id="path3784"
                 d="m 599.80398,470.18591 c 4.97008,9.81778 6.31088,23.08113 -0.23801,31.13103 -3.10254,3.81365 -8.34943,6.46558 -14.41687,3.11147 -6.37204,-3.52251 -6.69054,-9.43882 -13.4674,-8.34194 -4.89614,-1.40617 -16.23919,10.11262 -22.84885,9.44835 -5.9278,-0.59575 -7.15975,-3.16029 -8.75466,-6.40546 -3.61153,-7.34845 -3.23052,-15.99984 0.62717,-24.55591 6.03671,-13.38897 15.47966,-38.24778 31.19464,-63.63659 13.52121,23.4225 24.0649,51.66538 27.90398,59.24905 z"
                 style="fill:url(#linearGradient3792);fill-opacity:1;stroke:none" />
              <path
                 transform="matrix(1.0340897,0,0,1.0340897,246.42172,304.67919)"
                 d="m 325.76576,146.45045 c 0,5.09496 -4.77563,9.22523 -10.66667,9.22523 -5.89104,0 -10.66667,-4.13027 -10.66667,-9.22523 0,-5.09495 4.77563,-9.22522 10.66667,-9.22522 5.89104,0 10.66667,4.13027 10.66667,9.22522 z"
                 sodipodi:ry="9.2252254"
                 sodipodi:rx="10.666667"
                 sodipodi:cy="146.45045"
                 sodipodi:cx="315.09909"
                 id="path3940"
                 style="fill:none;stroke:url(#radialGradient3972);stroke-width:1.39999998;stroke-miterlimit:4;stroke-opacity:1;stroke-dasharray:none;filter:url(#filter3974)"
                 sodipodi:type="arc" />
              <path
                 sodipodi:type="arc"
                 style="fill:url(#radialGradient3810);fill-opacity:1;stroke:url(#linearGradient3818);stroke-width:1.39999998;stroke-miterlimit:4;stroke-opacity:1;stroke-dasharray:none"
                 id="path3802"
                 sodipodi:cx="315.09909"
                 sodipodi:cy="146.45045"
                 sodipodi:rx="10.666667"
                 sodipodi:ry="9.2252254"
                 d="m 325.76576,146.45045 c 0,5.09496 -4.77563,9.22523 -10.66667,9.22523 -5.89104,0 -10.66667,-4.13027 -10.66667,-9.22523 0,-5.09495 4.77563,-9.22522 10.66667,-9.22522 5.89104,0 10.66667,4.13027 10.66667,9.22522 z"
                 transform="matrix(1.0340897,0,0,1.0340897,246.42172,304.67919)" />
              <path
                 sodipodi:type="arc"
                 style="fill:url(#radialGradient3905);fill-opacity:1;stroke:none;filter:url(#filter3868)"
                 id="path3838"
                 sodipodi:cx="320"
                 sodipodi:cy="133.47748"
                 sodipodi:rx="6.9189191"
                 sodipodi:ry="3.1711712"
                 d="m 326.91892,133.47748 c 0,1.75139 -3.09771,3.17117 -6.91892,3.17117 -3.82121,0 -6.91892,-1.41978 -6.91892,-3.17117 0,-1.75139 3.09771,-3.17117 6.91892,-3.17117 3.82121,0 6.91892,1.41978 6.91892,3.17117 z"
                 transform="matrix(0.78209228,0,0,1.446964,321.56394,262.43653)" />
              <path
                 transform="matrix(0.78209228,0,0,1.446964,321.56394,262.43653)"
                 d="m 326.91892,133.47748 c 0,1.75139 -3.09771,3.17117 -6.91892,3.17117 -3.82121,0 -6.91892,-1.41978 -6.91892,-3.17117 0,-1.75139 3.09771,-3.17117 6.91892,-3.17117 3.82121,0 6.91892,1.41978 6.91892,3.17117 z"
                 sodipodi:ry="3.1711712"
                 sodipodi:rx="6.9189191"
                 sodipodi:cy="133.47748"
                 sodipodi:cx="320"
                 id="path3872"
                 style="fill:url(#radialGradient3846);fill-opacity:1;stroke:none;filter:url(#filter3868)"
                 sodipodi:type="arc" />
            </g>
            <g
               id="g3918"
               transform="matrix(1.1257444,0.36077825,-0.36077825,1.1257444,-83.079638,-229.34896)">
              <path
                 inkscape:connector-curvature="0"
                 id="path3920"
                 d="m 489.27476,340.81105 c 5.46142,21.5082 -19.24977,27.99879 -28.17082,41.39457 -6.07798,9.12575 2.98876,18.93158 15.33393,30.06998 -4.81388,-10.88068 -21.14935,-20.40155 0,-37.10389 26.37409,-20.82139 12.83689,-34.36066 12.83689,-34.36066 z m 16.33626,26.60577 c 0,0 -44.60052,11.13585 -23.29983,35.67952 6.28374,7.2346 -1.65297,13.7513 -1.65297,13.7513 0,0 15.94419,-8.23762 8.61654,-18.55194 -6.84378,-9.61873 -12.07576,-14.40091 16.33626,-30.87888 z"
                 style="opacity:0.64203126;fill:none;stroke:#e1adad;stroke-width:2.25085211;stroke-linejoin:round;stroke-miterlimit:4;stroke-opacity:1;stroke-dasharray:none" />
              <path
                 inkscape:connector-curvature="0"
                 style="fill:url(#linearGradient3930);fill-opacity:1"
                 d="m 489.27476,340.81105 c 5.46142,21.5082 -19.24977,27.99879 -28.17082,41.39457 -6.07798,9.12575 2.98876,18.93158 15.33393,30.06998 -4.81388,-10.88068 -21.14935,-20.40155 0,-37.10389 26.37409,-20.82139 12.83689,-34.36066 12.83689,-34.36066 z m 16.33626,26.60577 c 0,0 -44.60052,11.13585 -23.29983,35.67952 6.28374,7.2346 -1.65297,13.7513 -1.65297,13.7513 0,0 15.94419,-8.23762 8.61654,-18.55194 -6.84378,-9.61873 -12.07576,-14.40091 16.33626,-30.87888 z"
                 id="path3922" />
              <path
                 inkscape:connector-curvature="0"
                 style="opacity:0.8515625;fill:#ffffff;fill-opacity:1"
                 d="m 489.27476,340.81105 c 0.13039,0.5135 0.2375,1.01561 0.33411,1.51229 0.82466,0.99018 2.96436,4.01079 3.11251,8.72205 0.24363,-6.51634 -3.44662,-10.23434 -3.44662,-10.23434 z m 0.77373,6.61188 c -0.58059,16.41153 -21.01058,22.86909 -28.94455,34.78269 -1.45108,2.17871 -2.03063,4.39952 -1.91674,6.66464 0.10287,-1.87648 0.70632,-3.72183 1.91674,-5.53921 8.11475,-12.18506 29.29276,-18.65023 28.94455,-35.90812 z m 15.56253,19.99389 c 0,0 -29.7199,7.41546 -29.05005,23.49327 0.56032,-11.78528 17.48936,-18.67861 25.23416,-21.22483 1.20501,-0.73417 2.46143,-1.48289 3.81589,-2.26844 z m -21.7172,20.71488 c -0.33406,3.76238 2.37316,7.06207 5.38094,11.28943 1.22736,1.72761 1.79331,3.39435 1.89916,4.97649 0.13598,-1.90955 -0.37567,-3.95747 -1.89916,-6.10192 -2.70442,-3.80098 -5.15651,-6.85337 -5.38094,-10.164 z m -18.00682,3.65763 c -0.38432,7.33081 5.94378,13.28775 9.4782,19.50152 0.3594,0.32741 0.70722,0.65502 1.07267,0.98475 -2.9563,-6.68205 -10.25445,-12.85164 -10.55087,-20.48627 z m 18.81572,17.77821 c -0.34026,4.23754 -4.0445,7.2801 -4.0445,7.2801 0,0 0.90855,-0.47319 2.18051,-1.31885 1.04297,-1.49719 2.02293,-3.57831 1.86399,-5.96125 z"
                 id="path3924" />
              <path
                 inkscape:connector-curvature="0"
                 style="opacity:0.7;fill:#000000;fill-opacity:1"
                 d="m 489.27476,340.81105 c 0.48692,1.91759 0.73392,3.72173 0.77373,5.41611 0.0504,-1.5805 -0.0936,-3.25053 -0.43962,-5.02925 -0.19391,-0.23283 -0.33411,-0.38686 -0.33411,-0.38686 z m 3.44662,9.10892 c -0.22202,5.93838 -3.70841,14.19873 -16.28351,24.12632 -8.16109,6.44507 -10.73712,11.82045 -10.55087,16.61761 0.23659,-4.51274 3.01813,-9.54333 10.55087,-15.49219 13.38662,-10.56825 16.47212,-19.25379 16.28351,-25.25174 z m 12.88964,17.49685 c 0,0 -1.51115,0.38529 -3.81589,1.14301 -14.08344,8.58054 -18.21774,13.7786 -17.90131,18.44644 0.42603,-4.79837 5.79204,-10.35341 21.7172,-19.58945 z m -46.42382,20.32801 c -0.41365,7.54603 7.36402,15.61056 17.25067,24.53077 -0.31408,-0.70991 -0.67411,-1.40946 -1.07267,-2.11017 -8.88277,-8.09215 -15.82896,-15.47891 -16.178,-22.4206 z m 17.37377,2.03984 c -0.18533,3.89806 1.42352,8.32624 5.75022,13.31167 1.61698,1.86167 2.28029,3.678 2.39153,5.34578 0.15753,-1.96192 -0.40294,-4.1817 -2.39153,-6.4712 -3.91224,-4.50787 -5.59952,-8.5689 -5.75022,-12.18625 z m 14.61295,13.48752 c -0.36285,5.09512 -5.3621,9.1545 -8.33519,11.13117 -1.06375,1.52703 -2.18051,2.44428 -2.18051,2.44428 0,0 11.04178,-5.7118 10.5157,-13.57545 z"
                 id="path3926" />
              <path
                 id="path3928"
                 d="m 489.27476,341.93648 c 0.48692,1.91759 0.73392,3.72173 0.77373,5.41611 0.0504,-1.58051 -0.0936,-3.25053 -0.43962,-5.02925 -0.19391,-0.23284 -0.33411,-0.38686 -0.33411,-0.38686 z m 3.44662,9.10891 c -0.22202,5.93839 -3.70841,14.19874 -16.28351,24.12632 -8.16109,6.44508 -10.73712,11.82045 -10.55087,16.61762 0.23659,-4.51274 3.01813,-9.54334 10.55087,-15.49219 13.38662,-10.56825 16.47212,-19.25379 16.28351,-25.25175 z m 12.88964,17.49686 c 0,0 -1.51115,0.38529 -3.81589,1.14301 -14.08344,8.58054 -18.21774,13.7786 -17.90131,18.44644 0.42603,-4.79838 5.79204,-10.35342 21.7172,-19.58945 z m -46.42382,20.32801 c -0.41365,7.54602 7.36402,15.61056 17.25067,24.53077 -0.31408,-0.70992 -0.67411,-1.40946 -1.07267,-2.11018 -8.88277,-8.09215 -15.82896,-15.4789 -16.178,-22.42059 z m 17.37377,2.03983 c -0.18533,3.89807 1.42352,8.32625 5.75022,13.31168 1.61698,1.86166 2.28029,3.67799 2.39153,5.34577 0.15753,-1.96192 -0.40294,-4.18169 -2.39153,-6.4712 -3.91224,-4.50786 -5.59952,-8.5689 -5.75022,-12.18625 z m 14.61295,13.48753 c -0.36285,5.09512 -5.3621,9.1545 -8.33519,11.13117 -1.06375,1.52702 -2.18051,2.44428 -2.18051,2.44428 0,0 11.04178,-5.7118 10.5157,-13.57545 z"
                 style="opacity:0.3;fill:#000000;fill-opacity:1"
                 inkscape:connector-curvature="0" />
            </g>
          </g>
        </g>
        <g
           transform="matrix(1.1353753,0,0,1.1336634,-153.57465,-46.461735)"
           id="g3272">
          <path
             style="opacity:0.2;fill:url(#radialGradient4073);fill-opacity:1;fill-rule:nonzero;stroke:none;display:inline"
             d="m 112,5.5 c -2.7873,0 -5,2.2127028 -5,5 l 0,20.71875 0,7 0,38.59375 c 1.07066,1.628779 2.89693,2.71875 5,2.71875 l 4,0 64,0 4,0 c 2.10307,0 3.92934,-1.089971 5,-2.71875 l 0,-38.59375 0,-7 L 189,10.5 c 0,-2.7872972 -2.2127,-5 -5,-5 z"
             id="path3400-6"
             inkscape:connector-curvature="0"
             sodipodi:nodetypes="sscccsccscccsss" />
          <path
             style="opacity:0.45;fill:url(#radialGradient4075);fill-opacity:1;fill-rule:nonzero;stroke:none;display:inline"
             d="m 112,4.5 c -3.324,0 -6,2.6759996 -6,6 l 0,15 1,0 0,-15 c 0,-2.7872972 2.2127,-5 5,-5 l 72,0 c 2.7873,0 5,2.2127028 5,5 l 0,15 1,0 0,-15 c 0,-3.3240004 -2.676,-6 -6,-6 l -72,0 z"
             id="path4236-5"
             inkscape:connector-curvature="0" />
        </g>
        <path
           style="fill:url(#linearGradient5738);fill-opacity:1;fill-rule:nonzero;stroke:none;display:inline;opacity:0.9"
           d="M 1.5 78.75 L 1.5 87.84375 C 1.5 91.523892 4.4761068 94.5 8.15625 94.5 L 87.84375 94.5 C 91.523893 94.5 94.5 91.523892 94.5 87.84375 L 94.5 78.75 C 94.5 82.430142 91.523893 85.40625 87.84375 85.40625 L 8.15625 85.40625 C 4.4761068 85.40625 1.5 82.430142 1.5 78.75 z "
           id="path5727"
           transform="matrix(1.0255003,0,0,1.0239543,-34.763123,-42.655251)" />
      </g>
      <path
         inkscape:connector-curvature="0"
         id="path4989"
         d="m -24.953027,-37.8125 c -3.050092,0 -5.546973,2.481554 -5.546973,5.517151 l 0,67.696928 c 0,3.035598 2.496881,5.51715 5.546973,5.51715 l 75.152537,0 c 3.050092,0 5.546973,-2.481552 5.546973,-5.51715 l 0,-67.696928 c 0,-3.035597 -2.496881,-5.517151 -5.546973,-5.517151 l -75.152537,0 z m 0,2.266505 75.152537,0 c 1.847794,0 3.280468,1.446316 3.280468,3.250646 l 0,67.696928 c 0,1.804334 -1.432674,3.250645 -3.280468,3.250645 l -75.152537,0 c -1.847794,0 -3.280468,-1.446311 -3.280468,-3.250645 l 0,-67.696928 c 0,-1.80433 1.432674,-3.250646 3.280468,-3.250646 z"
         style="font-size:medium;font-style:normal;font-variant:normal;font-weight:normal;font-stretch:normal;text-indent:0;text-align:start;text-decoration:none;line-height:normal;letter-spacing:normal;word-spacing:normal;text-transform:none;direction:ltr;block-progression:tb;writing-mode:lr-tb;text-anchor:start;baseline-shift:baseline;opacity:0.7;color:#000000;fill:#000000;fill-opacity:1;stroke:none;stroke-width:2.3755002;marker:none;visibility:visible;display:inline;overflow:visible;enable-background:accumulate;font-family:Sans;-inkscape-font-specification:Sans"
         transform="matrix(0.97178685,0,0,0.97178682,0.40798685,0.18323231)" />
      <rect
         transform="matrix(0.97178685,0,0,0.97178682,0.40798685,0.18323231)"
         style="opacity:0.55;fill:url(#radialGradient4478);fill-opacity:1;stroke:none"
         id="rect4131"
         width="82.451546"
         height="4.1530061"
         x="-29.308113"
         y="34.030148"
         rx="0"
         ry="4.1530061" />
      <rect
         ry="4.159277"
         rx="0"
         y="-52.16478"
         x="-37.792431"
         height="4.159277"
         width="74.998405"
         id="rect4141"
         style="opacity:0.55;fill:url(#radialGradient4480);fill-opacity:1;stroke:none"
         transform="matrix(0,0.97178682,-0.97178685,0,0.40798685,0.18323231)" />
      <g
         style="opacity:0.7"
         id="g4324"
         transform="matrix(0.86478736,0,0,0.88159515,-27.63677,-6.8787345)">
        <rect
           transform="translate(-1.499875,-1.4)"
           style="opacity:0.7;fill:url(#linearGradient4482);fill-opacity:1;stroke:none"
           id="rect4146"
           width="92"
           height="92"
           x="2"
           y="-30"
           rx="3.9569874"
           ry="3.9569881"
           clip-path="url(#clipPath4156-4-0)" />
        <path
           sodipodi:nodetypes="ssccscss"
           style="opacity:0.3;fill:#ffffff;fill-opacity:1;stroke:none"
           d="m 4.468875,-31.4 c -2.192171,0 -3.96400836,1.776584 -3.96875,3.96875 l -0.163,75.3585 c 2.1045603,2.715549 1.8313808,2.596758 5.3354114,2.88575 1.9841699,-16.007558 40.1394806,-78.99425 85.1400886,-78.99425 0.536758,0 1.059349,0.02139 1.59375,0.03125 -0.333067,-1.850574 -1.925648,-3.25 -3.875,-3.25 z"
           id="rect4190"
           inkscape:connector-curvature="0" />
      </g>
    </g>
  </g>
</svg>
