<?xml version="1.0" encoding="UTF-8" standalone="no"?>
<!-- Created with Inkscape (http://www.inkscape.org/) -->

<svg
   xmlns:dc="http://purl.org/dc/elements/1.1/"
   xmlns:cc="http://creativecommons.org/ns#"
   xmlns:rdf="http://www.w3.org/1999/02/22-rdf-syntax-ns#"
   xmlns:svg="http://www.w3.org/2000/svg"
   xmlns="http://www.w3.org/2000/svg"
   xmlns:xlink="http://www.w3.org/1999/xlink"
   xmlns:sodipodi="http://sodipodi.sourceforge.net/DTD/sodipodi-0.dtd"
   xmlns:inkscape="http://www.inkscape.org/namespaces/inkscape"
   version="1.0"
   width="96"
   height="96"
   id="svg2408"
   inkscape:version="0.48.5 r10040"
   sodipodi:docname="network-receive.svg">
  <sodipodi:namedview
     pagecolor="#ffffff"
     bordercolor="#666666"
     borderopacity="1"
     objecttolerance="10"
     gridtolerance="10"
     guidetolerance="10"
     inkscape:pageopacity="0"
     inkscape:pageshadow="2"
     inkscape:window-width="1280"
     inkscape:window-height="966"
     id="namedview63"
     showgrid="false"
     inkscape:zoom="1.8005371"
     inkscape:cx="22.145247"
     inkscape:cy="47.791729"
     inkscape:window-x="0"
     inkscape:window-y="0"
     inkscape:window-maximized="1"
     inkscape:current-layer="svg2408" />
  <defs
     id="defs2410">
    <linearGradient
       x1="45.447727"
       y1="92.539597"
       x2="45.447727"
       y2="7.0165396"
       id="ButtonShadow"
       gradientUnits="userSpaceOnUse"
       gradientTransform="scale(1.0058652,0.994169)">
      <stop
         id="stop3750"
         style="stop-color:#000000;stop-opacity:1"
         offset="0" />
      <stop
         id="stop3752"
         style="stop-color:#000000;stop-opacity:0.58823532"
         offset="1" />
    </linearGradient>
    <linearGradient
       id="linearGradient3737">
      <stop
         id="stop3739"
         style="stop-color:#ffffff;stop-opacity:1"
         offset="0" />
      <stop
         id="stop3741"
         style="stop-color:#ffffff;stop-opacity:0"
         offset="1" />
    </linearGradient>
    <filter
       color-interpolation-filters="sRGB"
       id="filter3174">
      <feGaussianBlur
         id="feGaussianBlur3176"
         stdDeviation="1.71" />
    </filter>
    <linearGradient
       x1="36.357143"
       y1="6"
       x2="36.357143"
       y2="63.893143"
       id="linearGradient3188"
       xlink:href="#linearGradient3737"
       gradientUnits="userSpaceOnUse" />
    <filter
       x="-0.192"
       y="-0.192"
       width="1.3839999"
       height="1.3839999"
       color-interpolation-filters="sRGB"
       id="filter3794">
      <feGaussianBlur
         id="feGaussianBlur3796"
         stdDeviation="5.28" />
    </filter>
    <linearGradient
       x1="48"
       y1="20.220806"
       x2="48"
       y2="138.66119"
       id="linearGradient3613"
       xlink:href="#linearGradient3737"
       gradientUnits="userSpaceOnUse" />
    <radialGradient
       cx="48"
       cy="90.171875"
       r="42"
       fx="48"
       fy="90.171875"
       id="radialGradient3619"
       xlink:href="#linearGradient3737"
       gradientUnits="userSpaceOnUse"
       gradientTransform="matrix(1.1573129,0,0,0.99590774,-7.5510206,0.19713193)" />
    <clipPath
       id="clipPath3613">
      <rect
         width="84"
         height="84"
         rx="6"
         ry="6"
         x="6"
         y="6"
         id="rect3615"
         style="fill:#ffffff;fill-opacity:1;fill-rule:nonzero;stroke:none" />
    </clipPath>
    <linearGradient
       id="linearGradient4081">
      <stop
         id="stop4083"
         style="stop-color:#aaaaaa;stop-opacity:1"
         offset="0" />
      <stop
         id="stop4085-9"
         style="stop-color:#f0f0f0;stop-opacity:1"
         offset="1" />
    </linearGradient>
    <linearGradient
       x1="45.447727"
       y1="92.539597"
       x2="45.447727"
       y2="7.0165396"
       id="ButtonShadow-0"
       gradientUnits="userSpaceOnUse"
       gradientTransform="matrix(1.0058652,0,0,0.994169,100,0)">
      <stop
         id="stop3750-8"
         style="stop-color:#000000;stop-opacity:1"
         offset="0" />
      <stop
         id="stop3752-5"
         style="stop-color:#000000;stop-opacity:0.58823532"
         offset="1" />
    </linearGradient>
    <linearGradient
       x1="32.251034"
       y1="6.1317081"
       x2="32.251034"
       y2="90.238609"
       id="linearGradient3780"
       xlink:href="#ButtonShadow-0"
       gradientUnits="userSpaceOnUse"
       gradientTransform="matrix(1.0238095,0,0,-1.0119048,-1.1428571,98.071429)" />
    <linearGradient
       x1="32.251034"
       y1="6.1317081"
       x2="32.251034"
       y2="90.238609"
       id="linearGradient3772"
       xlink:href="#ButtonShadow-0"
       gradientUnits="userSpaceOnUse"
       gradientTransform="matrix(1.0238095,0,0,-1.0119048,-1.1428571,98.071429)" />
    <linearGradient
       x1="32.251034"
       y1="6.1317081"
       x2="32.251034"
       y2="90.238609"
       id="linearGradient3725"
       xlink:href="#ButtonShadow-0"
       gradientUnits="userSpaceOnUse"
       gradientTransform="matrix(1.0238095,0,0,-1.0119048,-1.1428571,98.071429)" />
    <linearGradient
       x1="32.251034"
       y1="6.1317081"
       x2="32.251034"
       y2="90.238609"
       id="linearGradient3721"
       xlink:href="#ButtonShadow-0"
       gradientUnits="userSpaceOnUse"
       gradientTransform="matrix(1,0,0,-1,0,97)" />
    <linearGradient
       x1="32.251034"
       y1="6.1317081"
       x2="32.251034"
       y2="90.238609"
       id="linearGradient3016"
       xlink:href="#ButtonShadow-0"
       gradientUnits="userSpaceOnUse"
       gradientTransform="matrix(1.0238095,0,0,-1.0119048,-1.1428571,98.071429)" />
    <linearGradient
       x1="16"
       y1="48"
       x2="80"
       y2="48"
       id="linearGradient3773"
       xlink:href="#linearGradient4081"
       gradientUnits="userSpaceOnUse"
       gradientTransform="matrix(0.875,0,0,0.875,-90,-84)" />
    <linearGradient
       x1="31.725"
       y1="79.814171"
       x2="31.725"
       y2="10.985223"
       id="linearGradient3832"
       xlink:href="#linearGradient4081"
       gradientUnits="userSpaceOnUse"
       gradientTransform="matrix(0.9009009,0,0,0.9009009,3.4189189,6.0953392)" />
    <radialGradient
       inkscape:collect="always"
       xlink:href="#linearGradient4050"
       id="radialGradient4543"
       gradientUnits="userSpaceOnUse"
       gradientTransform="matrix(1,0,0,0.04885057,-16.372364,-3.861835)"
       cx="48"
       cy="-16.128"
       fx="48"
       fy="-16.128"
       r="44.543999" />
    <linearGradient
       inkscape:collect="always"
       id="linearGradient4050">
      <stop
         style="stop-color:#ffffff;stop-opacity:1;"
         offset="0"
         id="stop4052" />
      <stop
         style="stop-color:#ffffff;stop-opacity:0;"
         offset="1"
         id="stop4054" />
    </linearGradient>
    <linearGradient
       inkscape:collect="always"
       xlink:href="#linearGradient4160"
       id="linearGradient4549"
       gradientUnits="userSpaceOnUse"
       gradientTransform="matrix(1,0,0,1.160558,-17.652363,-37.714316)"
       x1="2.5"
       y1="54.296875"
       x2="93.5"
       y2="54.296875" />
    <linearGradient
       id="linearGradient4160">
      <stop
         id="stop4170"
         offset="0"
         style="stop-color:#ffffff;stop-opacity:0;" />
      <stop
         style="stop-color:#ffffff;stop-opacity:0.96470588;"
         offset="0.03175623"
         id="stop4186" />
      <stop
         style="stop-color:#ffffff;stop-opacity:0;"
         offset="0.09425623"
         id="stop4182" />
      <stop
         style="stop-color:#ffffff;stop-opacity:0;"
         offset="0.49595019"
         id="stop4180" />
      <stop
         style="stop-color:#ffffff;stop-opacity:0;"
         offset="0.90525883"
         id="stop4178" />
      <stop
         id="stop4184"
         offset="0.96241152"
         style="stop-color:#ffffff;stop-opacity:0.98823529;" />
      <stop
         id="stop4168"
         offset="1"
         style="stop-color:#ffffff;stop-opacity:0;" />
    </linearGradient>
    <radialGradient
       inkscape:collect="always"
       xlink:href="#linearGradient4348"
       id="radialGradient4553"
       gradientUnits="userSpaceOnUse"
       gradientTransform="matrix(1.0772109,0,0,0.06481785,-21.162394,64.974669)"
       cx="47.699135"
       cy="55.411221"
       fx="47.699135"
       fy="55.411221"
       r="41.470058" />
    <linearGradient
       id="linearGradient4348">
      <stop
         style="stop-color:#ffffff;stop-opacity:1;"
         offset="0"
         id="stop4350" />
      <stop
         style="stop-color:#ffffff;stop-opacity:0;"
         offset="1"
         id="stop4352" />
    </linearGradient>
    <linearGradient
       y2="11.140625"
       x2="93.5"
       y1="11.140625"
       x1="2.5"
       gradientTransform="translate(-17.652364,-22.601697)"
       gradientUnits="userSpaceOnUse"
       id="linearGradient7255"
       xlink:href="#linearGradient4160"
       inkscape:collect="always" />
    <linearGradient
       id="linearGradient4122">
      <stop
         id="stop4124"
         offset="0"
         style="stop-color:#000000;stop-opacity:0;" />
      <stop
         style="stop-color:#000000;stop-opacity:0.96470588;"
         offset="0.03175623"
         id="stop4126" />
      <stop
         style="stop-color:#000000;stop-opacity:0;"
         offset="0.09425623"
         id="stop4128" />
      <stop
         style="stop-color:#000000;stop-opacity:0;"
         offset="0.49595019"
         id="stop4130" />
      <stop
         style="stop-color:#000000;stop-opacity:0;"
         offset="0.90525883"
         id="stop4132" />
      <stop
         id="stop4134"
         offset="0.96241152"
         style="stop-color:#000000;stop-opacity:0.98823529;" />
      <stop
         id="stop4136"
         offset="1"
         style="stop-color:#000000;stop-opacity:0;" />
    </linearGradient>
    <linearGradient
       gradientTransform="matrix(1.0238095,0,0,-1.0119048,-1.1428571,98.071429)"
       gradientUnits="userSpaceOnUse"
       xlink:href="#ButtonShadow-0-3"
       id="linearGradient3016-0"
       y2="90.238609"
       x2="32.251034"
       y1="6.1317081"
       x1="32.251034" />
    <linearGradient
       gradientTransform="matrix(1,0,0,-1,0,97)"
       gradientUnits="userSpaceOnUse"
       xlink:href="#ButtonShadow-0-3"
       id="linearGradient3721-2"
       y2="90.238609"
       x2="32.251034"
       y1="6.1317081"
       x1="32.251034" />
    <linearGradient
       gradientTransform="matrix(1.0238095,0,0,-1.0119048,-1.1428571,98.071429)"
       gradientUnits="userSpaceOnUse"
       xlink:href="#ButtonShadow-0-3"
       id="linearGradient3725-5"
       y2="90.238609"
       x2="32.251034"
       y1="6.1317081"
       x1="32.251034" />
    <linearGradient
       gradientTransform="matrix(1.0238095,0,0,-1.0119048,-1.1428571,98.071429)"
       gradientUnits="userSpaceOnUse"
       xlink:href="#ButtonShadow-0-3"
       id="linearGradient3772-2"
       y2="90.238609"
       x2="32.251034"
       y1="6.1317081"
       x1="32.251034" />
    <linearGradient
       gradientTransform="matrix(1.0238095,0,0,-1.0119048,-1.1428571,98.071429)"
       gradientUnits="userSpaceOnUse"
       xlink:href="#ButtonShadow-0-3"
       id="linearGradient3780-4"
       y2="90.238609"
       x2="32.251034"
       y1="6.1317081"
       x1="32.251034" />
    <linearGradient
       gradientTransform="matrix(1.0058652,0,0,0.994169,100,0)"
       gradientUnits="userSpaceOnUse"
       id="ButtonShadow-0-3"
       y2="7.0165396"
       x2="45.447727"
       y1="92.539597"
       x1="45.447727">
      <stop
         offset="0"
         style="stop-color:#000000;stop-opacity:1"
         id="stop3750-8-3" />
      <stop
         offset="1"
         style="stop-color:#000000;stop-opacity:0.58823532"
         id="stop3752-5-5" />
    </linearGradient>
    <linearGradient
       gradientUnits="userSpaceOnUse"
       xlink:href="#linearGradient3807"
       id="linearGradient3813"
       y2="74"
       x2="24"
       y1="54"
       x1="24" />
    <linearGradient
       gradientUnits="userSpaceOnUse"
       xlink:href="#linearGradient3799"
       id="linearGradient3805"
       y2="73"
       x2="40"
       y1="42"
       x1="40" />
    <linearGradient
       gradientUnits="userSpaceOnUse"
       xlink:href="#linearGradient3783"
       id="linearGradient3797"
       y2="73"
       x2="56"
       y1="30"
       x1="56" />
    <linearGradient
       gradientUnits="userSpaceOnUse"
       xlink:href="#linearGradient3783"
       id="linearGradient3789"
       y2="72.009262"
       x2="72"
       y1="18"
       x1="72" />
    <linearGradient
       gradientTransform="matrix(0.75,0,0,0.75,-1.5,79.5)"
       gradientUnits="userSpaceOnUse"
       xlink:href="#linearGradient4081-7"
       id="linearGradient2963"
       y2="-82"
       x2="96"
       y1="-2"
       x1="96" />
    <linearGradient
       gradientTransform="matrix(0.75,0,0,0.78947368,4.4999994,79.578945)"
       gradientUnits="userSpaceOnUse"
       xlink:href="#linearGradient4081-7"
       id="linearGradient3695"
       y2="-34"
       x2="24"
       y1="-2"
       x1="24" />
    <linearGradient
       gradientTransform="matrix(0.75,0,0,0.75657895,2.4999985,79.513158)"
       gradientUnits="userSpaceOnUse"
       xlink:href="#linearGradient4081-7"
       id="linearGradient3693"
       y2="-50"
       x2="56"
       y1="-2"
       x1="56" />
    <linearGradient
       gradientTransform="matrix(0.75,0,0,0.7401316,0.6111087,79.480263)"
       gradientUnits="userSpaceOnUse"
       xlink:href="#linearGradient4081-7"
       id="linearGradient3691"
       y2="-66"
       x2="72"
       y1="-2"
       x1="72" />
    <linearGradient
       id="linearGradient4081-7">
      <stop
         offset="0"
         style="stop-color:#aaaaaa;stop-opacity:1"
         id="stop4083-6" />
      <stop
         offset="1"
         style="stop-color:#f0f0f0;stop-opacity:1"
         id="stop4085-9-5" />
    </linearGradient>
    <clipPath
       id="clipPath3613-6">
      <rect
         style="fill:#ffffff;fill-opacity:1;fill-rule:nonzero;stroke:none"
         id="rect3615-4"
         y="6"
         x="6"
         ry="6"
         rx="6"
         height="84"
         width="84" />
    </clipPath>
    <radialGradient
       gradientTransform="matrix(1.1573129,0,0,0.99590774,-7.5510206,0.19713193)"
       gradientUnits="userSpaceOnUse"
       xlink:href="#linearGradient3737-8"
       id="radialGradient3619-3"
       fy="90.171875"
       fx="48"
       r="42"
       cy="90.171875"
       cx="48" />
    <linearGradient
       gradientUnits="userSpaceOnUse"
       xlink:href="#linearGradient3737-8"
       id="linearGradient3613-2"
       y2="138.66119"
       x2="48"
       y1="20.220806"
       x1="48" />
    <filter
       id="filter3794-0"
       color-interpolation-filters="sRGB"
       height="1.3839999"
       width="1.3839999"
       y="-0.192"
       x="-0.192">
      <feGaussianBlur
         stdDeviation="5.28"
         id="feGaussianBlur3796-6" />
    </filter>
    <linearGradient
       gradientUnits="userSpaceOnUse"
       xlink:href="#linearGradient3737-8"
       id="linearGradient3188-0"
       y2="63.893143"
       x2="36.357143"
       y1="6"
       x1="36.357143" />
    <filter
       id="filter3174-4"
       color-interpolation-filters="sRGB">
      <feGaussianBlur
         stdDeviation="1.71"
         id="feGaussianBlur3176-9" />
    </filter>
    <linearGradient
       id="linearGradient3737-8">
      <stop
         offset="0"
         style="stop-color:#ffffff;stop-opacity:1"
         id="stop3739-3" />
      <stop
         offset="1"
         style="stop-color:#ffffff;stop-opacity:0"
         id="stop3741-4" />
    </linearGradient>
    <linearGradient
       gradientTransform="scale(1.0058652,0.994169)"
       gradientUnits="userSpaceOnUse"
       id="ButtonShadow-3"
       y2="7.0165396"
       x2="45.447727"
       y1="92.539597"
       x1="45.447727">
      <stop
         offset="0"
         style="stop-color:#000000;stop-opacity:1"
         id="stop3750-3" />
      <stop
         offset="1"
         style="stop-color:#000000;stop-opacity:0.58823532"
         id="stop3752-50" />
    </linearGradient>
    <linearGradient
       id="linearGradient3783">
      <stop
         offset="0"
         style="stop-color:#ffffff;stop-opacity:1"
         id="stop3785" />
      <stop
         offset="1"
         style="stop-color:#ffffff;stop-opacity:0"
         id="stop3787" />
    </linearGradient>
    <linearGradient
       id="linearGradient3799">
      <stop
         offset="0"
         style="stop-color:#ffffff;stop-opacity:1"
         id="stop3801" />
      <stop
         offset="1"
         style="stop-color:#ffffff;stop-opacity:0"
         id="stop3803" />
    </linearGradient>
    <linearGradient
       id="linearGradient3807">
      <stop
         offset="0"
         style="stop-color:#ffffff;stop-opacity:1"
         id="stop3809" />
      <stop
         offset="1"
         style="stop-color:#ffffff;stop-opacity:0"
         id="stop3811" />
    </linearGradient>
  </defs>
  <metadata
     id="metadata2413">
    <rdf:RDF>
      <cc:Work
         rdf:about="">
        <dc:format>image/svg+xml</dc:format>
        <dc:type
           rdf:resource="http://purl.org/dc/dcmitype/StillImage" />
        <dc:title />
      </cc:Work>
    </rdf:RDF>
  </metadata>
  <g
     id="g3453">
    <g
       style="display:none"
       id="layer2-0">
      <rect
         style="opacity:0.9;fill:url(#ButtonShadow-3);fill-opacity:1;fill-rule:nonzero;stroke:none;filter:url(#filter3174-4)"
         id="rect3745-6"
         y="7"
         x="5"
         ry="6"
         rx="6"
         height="85"
         width="86" />
    </g>
    <g
       style="display:none"
       id="layer5-0">
      <rect
         style="opacity:0.1;fill:url(#linearGradient3613-2);fill-opacity:1;fill-rule:nonzero;stroke:#ffffff;stroke-width:0.5;stroke-linecap:round;stroke-linejoin:miter;stroke-miterlimit:4;stroke-opacity:1;stroke-dasharray:none;stroke-dashoffset:0;filter:url(#filter3794-0)"
         id="rect3171-3"
         clip-path="url(#clipPath3613-6)"
         y="15"
         x="15"
         ry="12"
         rx="12"
         height="66"
         width="66" />
    </g>
    <g
       id="layer1"
       inkscape:label="Layer 1"
       transform="translate(-1.7651365e-7,32)">
      <g
         transform="matrix(1,0,0,-1,17.652363,41.3983)"
         id="g4080">
        <rect
           transform="scale(1,-1)"
           ry="4.1290321"
           rx="4.1290321"
           y="-73.3983"
           x="-17.652363"
           height="96"
           width="96"
           id="rect4113"
           style="opacity:0.15;fill:#000000;fill-opacity:1;stroke:none" />
        <rect
           transform="scale(1,-1)"
           style="opacity:0.15;fill:#000000;fill-opacity:1;stroke:none"
           id="rect4129"
           width="94.5"
           height="94.5"
           x="-16.902363"
           y="-72.6483"
           rx="4.0645151"
           ry="4.0645151" />
        <rect
           transform="scale(1,-1)"
           ry="3.999999"
           rx="3.9999986"
           y="-71.8983"
           x="-16.152363"
           height="93"
           width="93"
           id="rect4131"
           style="opacity:0.15;fill:#000000;fill-opacity:1;stroke:none" />
        <rect
           ry="3.0576727"
           rx="3.9569874"
           y="-6.8256979"
           x="-12.916362"
           height="4.3519998"
           width="89.087997"
           id="rect4048"
           style="opacity:0.65090906;fill:url(#radialGradient4543);fill-opacity:1;stroke:none" />
        <path
           id="rect4080"
           d="m -11.527364,-20.414197 c -2.182681,0 -3.9375,1.754819 -3.9375,3.9375 l 0,12 c 0,-2.182681 1.754819,-3.9375 3.9375,-3.9375 l 83.75,0 c 2.182681,0 3.9375,1.754819 3.9375,3.9375 l 0,-12 c 0,-2.182681 -1.754819,-3.9375 -3.9375,-3.9375 l -83.75,0 z"
           style="opacity:0;fill:#000000;fill-opacity:1;stroke:none"
           inkscape:connector-curvature="0" />
        <rect
           ry="3.9057946"
           rx="3.9142997"
           y="-70.902092"
           x="-15.156122"
           height="90.809761"
           width="91.007515"
           id="rect4133"
           style="fill:#445c66;fill-opacity:1;stroke:#92a1a4;stroke-width:0.99243301;stroke-miterlimit:4;stroke-opacity:1;stroke-dasharray:none"
           transform="scale(1,-1)" />
        <path
           id="path4058"
           d="m -11.229786,-20.105492 c -2.168501,0 -3.925898,2.107782 -3.925898,4.708633 l 0,4.74571 c 0,-2.600851 1.757397,-4.708633 3.925898,-4.708633 l 83.154841,0 c 2.168502,0 3.925898,2.107782 3.925898,4.708633 l 0,-4.74571 c 0,-2.600851 -1.757396,-4.708633 -3.925898,-4.708633 l -83.154841,0 z"
           style="fill:#2a3a42;fill-opacity:1;stroke:none"
           inkscape:connector-curvature="0" />
        <path
           id="rect4371"
           d="m -11.246113,-20.197145 c -2.168522,0 -3.90625,2.022203 -3.90625,4.53343 l 0,81.92814 c 0,2.511227 1.737728,4.53343 3.90625,4.53343 l 83.1875,0 c 2.168522,0 3.90625,-2.022203 3.90625,-4.53343 l 0,-81.92814 c 0,-2.511227 -1.737728,-4.53343 -3.90625,-4.53343 l -83.1875,0 z"
           style="opacity:0.29166667;fill:url(#linearGradient4549);fill-opacity:1;stroke:none"
           inkscape:connector-curvature="0" />
        <rect
           y="65.878304"
           x="-14.452364"
           height="5.3759999"
           width="89.343994"
           id="rect4338"
           style="opacity:0.76727271;fill:url(#radialGradient4553);fill-opacity:1;stroke:none" />
      </g>
    </g>
  </g>
  <g
     id="layer2"
     style="display:none">
    <rect
       width="86"
       height="85"
       rx="6"
       ry="6"
       x="5"
       y="7"
       id="rect3745"
       style="opacity:0.9;fill:url(#ButtonShadow);fill-opacity:1;fill-rule:nonzero;stroke:none;filter:url(#filter3174)" />
  </g>
  <g
     id="layer5"
     style="display:none">
    <rect
       width="66"
       height="66"
       rx="12"
       ry="12"
       x="15"
       y="15"
       clip-path="url(#clipPath3613)"
       id="rect3171"
       style="opacity:0.1;fill:url(#linearGradient3613);fill-opacity:1;fill-rule:nonzero;stroke:#ffffff;stroke-width:0.5;stroke-linecap:round;stroke-linejoin:miter;stroke-miterlimit:4;stroke-opacity:1;stroke-dasharray:none;stroke-dashoffset:0;filter:url(#filter3794)" />
  </g>
  <g
     id="layer4">
    <path
       d="m 72.75,15.96875 c -1.012029,0 -1.998275,0.421391 -2.84375,1.09375 -0.06006,0.04776 -0.129385,0.07382 -0.1875,0.125 -0.127578,0.0728 -0.225117,0.141872 -0.25,0.15625 -0.0023,0.0013 -0.03121,-3.9e-5 -0.03125,0 L 58.125,28.6875 l -4.375,0 c -1.205044,-0.0098 -2.401437,0.465346 -3.3125,1.375 l -8.09375,8.0625 a 1.0236899,1.0236899 0 0 0 0,0.03125 1.0236899,1.0236899 0 0 0 -0.21875,0.3125 1.0236899,1.0236899 0 0 0 -0.03125,0.09375 c -1.379208,1.697031 -1.391854,4.073821 -0.03125,5.78125 0.110755,0.138987 0.152341,0.309417 0.28125,0.4375 0.0013,0.0023 -4e-5,0.03121 0,0.03125 l 9.90625,9.875 c 0.837726,0.837034 1.937025,1.301618 3.09375,1.34375 0.02083,7.59e-4 0.04164,-4.74e-4 0.0625,0 5.8e-5,7e-6 0.08447,0.03077 0.09375,0.03125 0.0209,1.8e-5 0.04158,2.69e-4 0.0625,0 a 1.0236899,1.0236899 0 0 0 0.09375,0 c 0.04322,-7.98e-4 0.0818,-0.02924 0.125,-0.03125 A 1.0236899,1.0236899 0 0 0 55.875,56 c 1.082757,-0.0735 2.142807,-0.487828 2.96875,-1.3125 l 8.125,-8.125 c 0.872497,-0.87385 1.384887,-2.043412 1.375,-3.28125 l 0,-4.40625 11.3125,-11.28125 a 1.0236899,1.0236899 0 0 0 0,-0.03125 1.0236899,1.0236899 0 0 0 0.21875,-0.3125 1.0236899,1.0236899 0 0 0 0.03125,-0.09375 c 1.491477,-1.835171 1.462537,-4.517192 -0.25,-6.21875 l -3.5625,-3.59375 -0.03125,0 c -0.09603,-0.0965 -0.210863,-0.133145 -0.3125,-0.21875 -0.04688,-0.02688 -0.124712,-0.06243 -0.125,-0.0625 -0.874965,-0.690821 -1.890029,-1.09375 -2.875,-1.09375 z"
       id="path3764"
       style="opacity:0.05;fill:#000000;fill-opacity:1;stroke:none" />
    <path
       d="m 72.75,17 c -0.913619,0 -1.857634,0.353853 -2.5625,1.0625 -0.0063,0.0063 -0.02498,-0.0064 -0.03125,0 l -11.625,11.65625 -4.78125,0 c -0.941291,-0.0076 -1.878786,0.348642 -2.59375,1.0625 l -8.09375,8.0625 0,0.03125 c -1.432848,1.423662 -1.432848,3.763838 0,5.1875 0.0064,0.0064 -0.0065,0.02491 0,0.03125 l 9.90625,9.875 c 0.70104,0.700461 1.630388,1.074891 2.59375,1.0625 -0.01189,9.8e-5 0.02369,7.16e-4 0.0625,0 0.908047,-0.01677 1.805261,-0.36883 2.5,-1.0625 l 8.125,-8.125 c 0.686249,-0.687313 1.070165,-1.602824 1.0625,-2.5625 l 0,-4.8125 11.625,-11.59375 0,-0.03125 c 1.432848,-1.423662 1.432848,-3.763838 0,-5.1875 L 75.375,18.0625 c -0.0064,-0.0066 -0.02476,0.0065 -0.03125,0 C 74.612049,17.32723 73.6441,17 72.75,17 z"
       id="path3760"
       style="opacity:0.1;fill:#000000;fill-opacity:1;stroke:none" />
    <path
       d="m 72.75,17.90625 c -0.710373,0 -1.417375,0.250005 -1.9375,0.78125 L 58.875,30.625 l -5.125,0 c -0.728573,-0.0059 -1.433067,0.246396 -1.96875,0.78125 L 43.6875,39.5 c -1.111079,1.087823 -1.111079,2.849677 0,3.9375 l 9.90625,9.90625 c 0.518965,0.518537 1.236014,0.790675 1.96875,0.78125 0.0099,-8.2e-5 0.02138,1.82e-4 0.03125,0 0.701873,-0.01296 1.390889,-0.266682 1.90625,-0.78125 l 8.125,-8.125 c 0.511925,-0.512719 0.787065,-1.209418 0.78125,-1.9375 l 0,-5.15625 11.90625,-11.90625 c 1.111079,-1.087823 1.111079,-2.849677 0,-3.9375 L 74.71875,18.6875 C 74.175733,18.132873 73.460373,17.90625 72.75,17.90625 z"
       inkscape:connector-curvature="0"
       id="path3859"
       style="opacity:0.15;fill:#000000;fill-opacity:1;stroke:none" />
    <path
       d="m 72.75,18.90625 c -0.458475,0 -0.896962,0.171332 -1.21875,0.5 L 59.3125,31.625 l -5.5625,0 c -0.45801,-0.0037 -0.925877,0.176379 -1.25,0.5 l -8.09375,8.09375 c -0.657336,0.643577 -0.657336,1.856423 0,2.5 L 54.3125,52.625 c 0.330688,0.330415 0.782663,0.511205 1.25,0.5 0.448625,-0.0037 0.901269,-0.183008 1.21875,-0.5 l 8.125,-8.125 c 0.323621,-0.324123 0.503658,-0.76074 0.5,-1.21875 l 0,-5.59375 L 77.59375,25.5 c 0.657336,-0.643577 0.657336,-1.856423 0,-2.5 L 74,19.40625 c -0.321788,-0.328668 -0.791525,-0.5 -1.25,-0.5 z"
       inkscape:connector-curvature="0"
       id="path3853"
       style="opacity:0.3;fill:#000000;fill-opacity:1;stroke:none" />
    <path
       d="m 72.75,17.90625 c -0.458475,0 -0.896962,0.171332 -1.21875,0.5 L 59.3125,30.625 l -5.5625,0 c -0.45801,-0.0037 -0.925877,0.176379 -1.25,0.5 l -8.09375,8.09375 c -0.657336,0.643577 -0.657336,1.856423 0,2.5 L 54.3125,51.625 c 0.330688,0.330415 0.782663,0.511205 1.25,0.5 0.448625,-0.0037 0.901269,-0.183008 1.21875,-0.5 l 8.125,-8.125 c 0.323621,-0.324123 0.503658,-0.76074 0.5,-1.21875 l 0,-5.59375 L 77.59375,24.5 c 0.657336,-0.643577 0.657336,-1.856423 0,-2.5 L 74,18.40625 c -0.321788,-0.328668 -0.791525,-0.5 -1.25,-0.5 z"
       inkscape:connector-curvature="0"
       id="path2984"
       style="fill:url(#linearGradient3832);fill-opacity:1;stroke:none" />
    <path
       d="m 40.4375,43.875 c -0.448625,0.0037 -0.901269,0.214258 -1.21875,0.53125 L 31.09375,52.5 c -0.323621,0.324123 -0.503658,0.79199 -0.5,1.25 l 0,5.5625 -12.1875,12.21875 c -0.657336,0.643577 -0.657336,1.825173 0,2.46875 L 22,77.59375 c 0.643577,0.657336 1.825173,0.657336 2.46875,0 l 12.21875,-12.1875 5.5625,0 c 0.45801,0.0037 0.925877,-0.176379 1.25,-0.5 l 8.09375,-8.125 c 0.657336,-0.643577 0.657336,-1.825173 0,-2.46875 L 41.6875,44.40625 c -0.330688,-0.330415 -0.782663,-0.542455 -1.25,-0.53125 z"
       inkscape:connector-curvature="0"
       id="path3804"
       style="opacity:0.2;fill:#ffffff;fill-opacity:1;stroke:none" />
    <path
       d="m 72.75,17.90625 c -0.458475,0 -0.896962,0.171332 -1.21875,0.5 L 59.3125,30.625 l -5.5625,0 c -0.45801,-0.0037 -0.925877,0.176379 -1.25,0.5 l -8.09375,8.09375 c -0.447494,0.438127 -0.599286,1.14343 -0.4375,1.75 0.07587,-0.284437 0.227658,-0.54455 0.4375,-0.75 L 52.5,32.125 c 0.324123,-0.323621 0.79199,-0.5037 1.25,-0.5 l 5.5625,0 12.21875,-12.21875 c 0.321788,-0.328668 0.760275,-0.5 1.21875,-0.5 0.458475,0 0.928212,0.171332 1.25,0.5 L 77.59375,23 c 0.209842,0.20545 0.361634,0.465563 0.4375,0.75 0.161786,-0.60657 0.01,-1.311873 -0.4375,-1.75 L 74,18.40625 c -0.321788,-0.328668 -0.791525,-0.5 -1.25,-0.5 z"
       inkscape:connector-curvature="0"
       id="path3835"
       style="opacity:0.75;fill:#ffffff;fill-opacity:1;stroke:none" />
    <path
       d="m 78.03125,22.75 c -0.07587,0.284437 -0.227658,0.54455 -0.4375,0.75 l -12.1875,12.1875 0,1 L 77.59375,24.5 c 0.447494,-0.438127 0.599286,-1.14343 0.4375,-1.75 z m -34.0625,17.21875 c -0.161786,0.60657 -0.01,1.311873 0.4375,1.75 L 54.3125,51.625 c 0.330688,0.330415 0.782663,0.511205 1.25,0.5 0.448625,-0.0037 0.901269,-0.183008 1.21875,-0.5 l 8.125,-8.125 c 0.323621,-0.324123 0.503658,-0.76074 0.5,-1.21875 l 0,-1 c 0.0037,0.45801 -0.176379,0.894627 -0.5,1.21875 l -8.125,8.125 c -0.317481,0.316992 -0.770125,0.4963 -1.21875,0.5 -0.467337,0.0112 -0.919312,-0.169585 -1.25,-0.5 l -9.90625,-9.90625 c -0.209842,-0.20545 -0.361634,-0.465563 -0.4375,-0.75 z"
       inkscape:connector-curvature="0"
       id="path3844"
       style="opacity:0.13999999;fill:#000000;fill-opacity:1;stroke:none" />
  </g>
</svg>
