<?xml version="1.0" encoding="UTF-8" standalone="no"?>
<!-- Created with Inkscape (http://www.inkscape.org/) -->

<svg
   xmlns:dc="http://purl.org/dc/elements/1.1/"
   xmlns:cc="http://creativecommons.org/ns#"
   xmlns:rdf="http://www.w3.org/1999/02/22-rdf-syntax-ns#"
   xmlns:svg="http://www.w3.org/2000/svg"
   xmlns="http://www.w3.org/2000/svg"
   xmlns:xlink="http://www.w3.org/1999/xlink"
   xmlns:sodipodi="http://sodipodi.sourceforge.net/DTD/sodipodi-0.dtd"
   xmlns:inkscape="http://www.inkscape.org/namespaces/inkscape"
   width="96"
   height="96"
   id="svg2"
   version="1.1"
   inkscape:version="0.48.5 r10040"
   sodipodi:docname="acroreader.svg">
  <script
     xlink:href=""
     id="script2985" />
  <defs
     id="defs4">
    <linearGradient
       inkscape:collect="always"
       xlink:href="#linearGradient4213-7"
       id="linearGradient6553"
       gradientUnits="userSpaceOnUse"
       x1="2.7713892"
       y1="-28.64156"
       x2="50.527882"
       y2="14.514202" />
    <linearGradient
       inkscape:collect="always"
       id="linearGradient4213-7">
      <stop
         style="stop-color:#ffffff;stop-opacity:1;"
         offset="0"
         id="stop4215-6" />
      <stop
         style="stop-color:#ffffff;stop-opacity:0;"
         offset="1"
         id="stop4217-5" />
    </linearGradient>
    <clipPath
       clipPathUnits="userSpaceOnUse"
       id="clipPath4156-4">
      <path
         style="opacity:0.6;fill:#ffffff;fill-opacity:1;stroke:none"
         d="m 27.046336,-55.695463 -14.21366,13.321486 0.06127,0 15.653407,21.770763 10.231384,-10.546177 C 38.561832,-32.30156 27.468089,-54.819245 27.046336,-55.695463 z M 9.6468554,-39.382809 -5.2407289,-25.32124 15.987863,-7.8059573 26.372412,-18.382966 9.6468554,-39.382809 z m 31.4906096,12.951445 -9.741259,9.713584 8.944804,12.4580526 7.780753,-7.5550056 -6.984298,-14.616631 z m -49.8397109,4.378822 -13.7541661,12.9822847 26.2830181,13.84571 0.06127,-0.0617 -0.122531,-0.0617 L 13.598503,-5.4007374 -8.7022409,-22.052595 z m 38.0154159,7.400825 -9.802525,9.7752596 11.579232,9.5594001 7.62759,-7.40083 -8.669108,-11.0087257 -0.735189,-0.925104 z m 20.187073,5.6739697 -7.382526,7.2158 6.187844,8.54179 5.820249,-6.13651996 -4.625567,-9.62107004 z m -32.195166,6.32154 -9.5574606,9.49772 13.6622686,7.1849703 7.933918,-7.6783603 -12.038726,-9.00433 z m 23.311629,2.37443004 -7.10683,6.93826996 8.362778,6.9074403 5.360756,-5.6739699 -0.06127,-0.0925 -0.0919,0.12335 -6.463539,-8.20258036 z m -8.730374,8.54178036 -7.505057,7.3391599 10.353916,5.45811 c 1.397496,-1.32103 5.67514,-6.12292 5.850882,-6.32154 L 31.886332,8.2600031 z"
         id="path4158-0"
         inkscape:connector-curvature="0" />
    </clipPath>
    <radialGradient
       inkscape:collect="always"
       xlink:href="#linearGradient6003"
       id="radialGradient6551"
       gradientUnits="userSpaceOnUse"
       gradientTransform="matrix(1,0,0,1.0238493,0,-0.37455191)"
       cx="38.911999"
       cy="15.704967"
       fx="38.911999"
       fy="15.704967"
       r="7.0037241" />
    <linearGradient
       inkscape:collect="always"
       id="linearGradient6003">
      <stop
         style="stop-color:#ffffff;stop-opacity:1;"
         offset="0"
         id="stop6005" />
      <stop
         style="stop-color:#ffffff;stop-opacity:0;"
         offset="1"
         id="stop6007" />
    </linearGradient>
    <filter
       color-interpolation-filters="sRGB"
       inkscape:collect="always"
       id="filter6133"
       x="-0.28371564"
       width="1.5674313"
       y="-0.27554357"
       height="1.5510871">
      <feGaussianBlur
         inkscape:collect="always"
         stdDeviation="1.331572"
         id="feGaussianBlur6135" />
    </filter>
    <linearGradient
       inkscape:collect="always"
       xlink:href="#linearGradient4160"
       id="linearGradient6543"
       gradientUnits="userSpaceOnUse"
       x1="2"
       y1="87.015625"
       x2="94"
       y2="87.015625"
       gradientTransform="translate(-5.9348566,-15.85999)" />
    <linearGradient
       id="linearGradient4160">
      <stop
         id="stop4170"
         offset="0"
         style="stop-color:#000000;stop-opacity:0.47058824;" />
      <stop
         style="stop-color:#000000;stop-opacity:0.96470588;"
         offset="0.05958231"
         id="stop4186" />
      <stop
         style="stop-color:#000000;stop-opacity:0;"
         offset="0.14434318"
         id="stop4182" />
      <stop
         style="stop-color:#000000;stop-opacity:1;"
         offset="0.49595019"
         id="stop4180" />
      <stop
         style="stop-color:#000000;stop-opacity:0;"
         offset="0.86073709"
         id="stop4178" />
      <stop
         id="stop4184"
         offset="0.95406371"
         style="stop-color:#000000;stop-opacity:0.98823529;" />
      <stop
         id="stop4168"
         offset="1"
         style="stop-color:#000000;stop-opacity:0.47058824;" />
    </linearGradient>
    <radialGradient
       inkscape:collect="always"
       xlink:href="#linearGradient4205"
       id="radialGradient6541"
       gradientUnits="userSpaceOnUse"
       gradientTransform="matrix(1,0,0,0.06487772,-5.9348567,61.975612)"
       cx="48"
       cy="49.015625"
       fx="48"
       fy="49.015625"
       r="46" />
    <linearGradient
       inkscape:collect="always"
       id="linearGradient4205">
      <stop
         style="stop-color:#ffffff;stop-opacity:1;"
         offset="0"
         id="stop4207" />
      <stop
         style="stop-color:#ffffff;stop-opacity:0;"
         offset="1"
         id="stop4209" />
    </linearGradient>
    <radialGradient
       inkscape:collect="always"
       xlink:href="#linearGradient4205"
       id="radialGradient4788"
       gradientUnits="userSpaceOnUse"
       gradientTransform="matrix(1,0,0,0.06487772,-5.9348567,61.975612)"
       cx="48"
       cy="49.015625"
       fx="48"
       fy="49.015625"
       r="46" />
    <linearGradient
       inkscape:collect="always"
       xlink:href="#linearGradient4160"
       id="linearGradient4790"
       gradientUnits="userSpaceOnUse"
       gradientTransform="translate(-5.9348566,-15.85999)"
       x1="2"
       y1="87.015625"
       x2="94"
       y2="87.015625" />
    <radialGradient
       inkscape:collect="always"
       xlink:href="#linearGradient6003"
       id="radialGradient4792"
       gradientUnits="userSpaceOnUse"
       gradientTransform="matrix(1,0,0,1.0238493,0,-0.37455191)"
       cx="38.911999"
       cy="15.704967"
       fx="38.911999"
       fy="15.704967"
       r="7.0037241" />
    <linearGradient
       inkscape:collect="always"
       xlink:href="#linearGradient4213-7"
       id="linearGradient4794"
       gradientUnits="userSpaceOnUse"
       x1="2.7713892"
       y1="-28.64156"
       x2="50.527882"
       y2="14.514202" />
    <linearGradient
       gradientTransform="matrix(1.0238095,0,0,1.0119048,-1.1428571,-98.071429)"
       gradientUnits="userSpaceOnUse"
       xlink:href="#ButtonShadow-0"
       id="linearGradient3071"
       y2="90.238609"
       x2="32.251034"
       y1="6.1317081"
       x1="32.251034" />
    <linearGradient
       gradientTransform="translate(0,-97)"
       gradientUnits="userSpaceOnUse"
       xlink:href="#ButtonShadow-0"
       id="linearGradient3721"
       y2="90.238609"
       x2="32.251034"
       y1="6.1317081"
       x1="32.251034" />
    <linearGradient
       gradientTransform="matrix(1.0238095,0,0,1.0119048,-1.1428571,-98.071429)"
       gradientUnits="userSpaceOnUse"
       xlink:href="#ButtonShadow-0"
       id="linearGradient3725"
       y2="90.238609"
       x2="32.251034"
       y1="6.1317081"
       x1="32.251034" />
    <linearGradient
       gradientTransform="matrix(1.0238095,0,0,1.0119048,-1.1428571,-98.071429)"
       gradientUnits="userSpaceOnUse"
       xlink:href="#ButtonShadow-0"
       id="linearGradient3772"
       y2="90.238609"
       x2="32.251034"
       y1="6.1317081"
       x1="32.251034" />
    <linearGradient
       gradientTransform="matrix(1.0238095,0,0,1.0119048,-1.1428571,-98.071429)"
       gradientUnits="userSpaceOnUse"
       xlink:href="#ButtonShadow-0"
       id="linearGradient3780"
       y2="90.238609"
       x2="32.251034"
       y1="6.1317081"
       x1="32.251034" />
    <linearGradient
       gradientTransform="matrix(1.0058652,0,0,0.994169,100,0)"
       gradientUnits="userSpaceOnUse"
       id="ButtonShadow-0"
       y2="7.0165396"
       x2="45.447727"
       y1="92.539597"
       x1="45.447727">
      <stop
         offset="0"
         style="stop-color:#000000;stop-opacity:1"
         id="stop3750-8" />
      <stop
         offset="1"
         style="stop-color:#000000;stop-opacity:0.58823532"
         id="stop3752-5" />
    </linearGradient>
    <filter
       id="filter3787"
       color-interpolation-filters="sRGB">
      <feGaussianBlur
         stdDeviation="0.42"
         id="feGaussianBlur3789" />
    </filter>
    <clipPath
       id="clipPath3775">
      <path
         style="fill:#ffffff"
         id="path3777"
         inkscape:connector-curvature="0"
         d="m -84,16 0,12.8 A 51.2,51.2 0 0 1 -32.8,80 L -20,80 A 64,64 0 0 0 -84,16 z m 0,21.577143 0,12.434286 A 29.988571,29.988571 0 0 1 -54.011429,80 l 12.434286,0 A 42.422857,42.422857 0 0 0 -84,37.577143 z m 8.777142,24.868571 C -80.07034,62.445714 -84,66.375376 -84,71.222857 -84,76.07034 -80.07034,80 -75.222858,80 c 4.847482,0 8.777144,-3.92966 8.777144,-8.777143 0,-4.847481 -3.929662,-8.777143 -8.777144,-8.777143 z" />
    </clipPath>
    <filter
       id="filter3762"
       color-interpolation-filters="sRGB"
       height="1.24"
       width="1.24"
       y="-0.12"
       x="-0.12">
      <feGaussianBlur
         stdDeviation="3.2"
         id="feGaussianBlur3764" />
    </filter>
    <clipPath
       id="clipPath3754">
      <path
         style="fill:#ff0000;fill-opacity:1;fill-rule:nonzero;stroke:none"
         id="path3756"
         inkscape:connector-curvature="0"
         d="m -78,6 c -3.324,0 -6,2.676 -6,6 l 0,72 c 0,3.324 2.676,6 6,6 l 72,0 c 3.324,0 6,-2.676 6,-6 L 0,12 C 0,8.676 -2.676,6 -6,6 l -72,0 z m 4,10 a 64,64 0 0 1 64,64 l -12.8125,0 A 51.2,51.2 0 0 0 -74,28.8125 L -74,16 z m 0,21.5625 A 42.422857,42.422857 0 0 1 -31.5625,80 L -44,80 A 29.988571,29.988571 0 0 0 -74,50 l 0,-12.4375 z m 8.78125,24.875 c 4.847482,0 8.78125,3.933769 8.78125,8.78125 C -56.4375,76.066233 -60.371268,80 -65.21875,80 -70.066232,80 -74,76.066233 -74,71.21875 c 0,-4.847481 3.933768,-8.78125 8.78125,-8.78125 z" />
    </clipPath>
    <linearGradient
       gradientUnits="userSpaceOnUse"
       xlink:href="#linearGradient2841"
       id="linearGradient3617"
       y2="5.9877172"
       x2="48"
       y1="90"
       x1="48" />
    <clipPath
       id="clipPath3613">
      <rect
         style="fill:#ffffff;fill-opacity:1;fill-rule:nonzero;stroke:none"
         id="rect3615"
         y="6"
         x="6"
         ry="6"
         rx="6"
         height="84"
         width="84" />
    </clipPath>
    <radialGradient
       gradientTransform="matrix(1.1573129,0,0,0.99590774,-7.5510206,0.19713193)"
       gradientUnits="userSpaceOnUse"
       xlink:href="#linearGradient3737"
       id="radialGradient3619"
       fy="90.171875"
       fx="48"
       r="42"
       cy="90.171875"
       cx="48" />
    <linearGradient
       gradientUnits="userSpaceOnUse"
       xlink:href="#linearGradient3737"
       id="linearGradient3613"
       y2="138.66119"
       x2="48"
       y1="20.220806"
       x1="48" />
    <filter
       id="filter3794"
       color-interpolation-filters="sRGB"
       height="1.3839999"
       width="1.3839999"
       y="-0.192"
       x="-0.192">
      <feGaussianBlur
         stdDeviation="5.28"
         id="feGaussianBlur3796" />
    </filter>
    <linearGradient
       gradientUnits="userSpaceOnUse"
       xlink:href="#linearGradient3737"
       id="linearGradient3188"
       y2="63.893143"
       x2="36.357143"
       y1="6"
       x1="36.357143" />
    <filter
       id="filter3174"
       color-interpolation-filters="sRGB">
      <feGaussianBlur
         stdDeviation="1.71"
         id="feGaussianBlur3176" />
    </filter>
    <linearGradient
       id="linearGradient3737">
      <stop
         offset="0"
         style="stop-color:#ffffff;stop-opacity:1"
         id="stop3739" />
      <stop
         offset="1"
         style="stop-color:#ffffff;stop-opacity:0"
         id="stop3741" />
    </linearGradient>
    <linearGradient
       gradientTransform="scale(1.0058652,0.994169)"
       gradientUnits="userSpaceOnUse"
       id="ButtonShadow"
       y2="7.0165396"
       x2="45.447727"
       y1="92.539597"
       x1="45.447727">
      <stop
         offset="0"
         style="stop-color:#000000;stop-opacity:1"
         id="stop3750" />
      <stop
         offset="1"
         style="stop-color:#000000;stop-opacity:0.58823532"
         id="stop3752" />
    </linearGradient>
    <linearGradient
       id="linearGradient2841">
      <stop
         offset="0"
         style="stop-color:#d4530d;stop-opacity:1"
         id="stop2843" />
      <stop
         offset="1"
         style="stop-color:#f7ad25;stop-opacity:1"
         id="stop2845" />
    </linearGradient>
    <clipPath
       id="clipPath3754-4">
      <path
         style="fill:#ff0000;fill-opacity:1;fill-rule:nonzero;stroke:none"
         id="path3756-9"
         inkscape:connector-curvature="0"
         d="m -78,6 c -3.324,0 -6,2.676 -6,6 l 0,72 c 0,3.324 2.676,6 6,6 l 72,0 c 3.324,0 6,-2.676 6,-6 L 0,12 C 0,8.676 -2.676,6 -6,6 l -72,0 z m 4,10 a 64,64 0 0 1 64,64 l -12.8125,0 A 51.2,51.2 0 0 0 -74,28.8125 L -74,16 z m 0,21.5625 A 42.422857,42.422857 0 0 1 -31.5625,80 L -44,80 A 29.988571,29.988571 0 0 0 -74,50 l 0,-12.4375 z m 8.78125,24.875 c 4.847482,0 8.78125,3.933769 8.78125,8.78125 C -56.4375,76.066233 -60.371268,80 -65.21875,80 -70.066232,80 -74,76.066233 -74,71.21875 c 0,-4.847481 3.933768,-8.78125 8.78125,-8.78125 z" />
    </clipPath>
    <filter
       id="filter3762-6"
       color-interpolation-filters="sRGB"
       height="1.24"
       width="1.24"
       y="-0.12"
       x="-0.12">
      <feGaussianBlur
         stdDeviation="3.2"
         id="feGaussianBlur3764-4" />
    </filter>
    <clipPath
       id="clipPath3775-9">
      <path
         style="fill:#ffffff"
         id="path3777-8"
         inkscape:connector-curvature="0"
         d="m -84,16 0,12.8 A 51.2,51.2 0 0 1 -32.8,80 L -20,80 A 64,64 0 0 0 -84,16 z m 0,21.577143 0,12.434286 A 29.988571,29.988571 0 0 1 -54.011429,80 l 12.434286,0 A 42.422857,42.422857 0 0 0 -84,37.577143 z m 8.777142,24.868571 C -80.07034,62.445714 -84,66.375376 -84,71.222857 -84,76.07034 -80.07034,80 -75.222858,80 c 4.847482,0 8.777144,-3.92966 8.777144,-8.777143 0,-4.847481 -3.929662,-8.777143 -8.777144,-8.777143 z" />
    </clipPath>
    <filter
       id="filter3787-7"
       color-interpolation-filters="sRGB">
      <feGaussianBlur
         stdDeviation="0.42"
         id="feGaussianBlur3789-8" />
    </filter>
  </defs>
  <sodipodi:namedview
     id="base"
     pagecolor="#ffffff"
     bordercolor="#666666"
     borderopacity="1.0"
     inkscape:pageopacity="0.0"
     inkscape:pageshadow="2"
     inkscape:zoom="0.88776773"
     inkscape:cx="18.486414"
     inkscape:cy="-1.9121783"
     inkscape:current-layer="g4774"
     showgrid="true"
     inkscape:document-units="px"
     inkscape:grid-bbox="true"
     inkscape:showpageshadow="false"
     gridtolerance="1"
     guidetolerance="1"
     objecttolerance="1"
     inkscape:window-width="832"
     inkscape:window-height="963"
     inkscape:window-x="64"
     inkscape:window-y="43"
     inkscape:window-maximized="0" />
  <metadata
     id="metadata7">
    <rdf:RDF>
      <cc:Work
         rdf:about="">
        <dc:format>image/svg+xml</dc:format>
        <dc:type
           rdf:resource="http://purl.org/dc/dcmitype/StillImage" />
        <dc:title></dc:title>
      </cc:Work>
    </rdf:RDF>
  </metadata>
  <g
     id="layer1"
     inkscape:label="Layer 1"
     inkscape:groupmode="layer"
     transform="translate(0,32)">
    <g
       id="g4774"
       transform="translate(5.9348564,-16.14001)">
      <rect
         style="opacity:0.15;fill:#000000;fill-opacity:1;stroke:none;display:inline"
         id="rect4113"
         width="96"
         height="96"
         x="-5.9348564"
         y="-15.85999"
         rx="4.1290321"
         ry="4.1290321" />
      <rect
         ry="4.0645151"
         rx="4.0645151"
         y="-15.10999"
         x="-5.1848564"
         height="94.5"
         width="94.5"
         id="rect4129"
         style="opacity:0.15;fill:#000000;fill-opacity:1;stroke:none;display:inline" />
      <rect
         style="opacity:0.15;fill:#000000;fill-opacity:1;stroke:none;display:inline"
         id="rect4131"
         width="93"
         height="93"
         x="-4.4348564"
         y="-14.35999"
         rx="3.9999986"
         ry="3.999999" />
      <rect
         ry="3.9569881"
         rx="3.9569874"
         y="-13.85999"
         x="-3.9348567"
         height="92"
         width="92"
         id="rect4133"
         style="fill:#ff6600;fill-opacity:1;stroke:none;display:inline" />
      <path
         id="path4188"
         d="m -3.9348566,64.171259 0,10 c 0,2.192171 1.776579,3.96875 3.96875047,3.96875 l 84.06249913,0 c 2.192171,0 3.96875,-1.776579 3.96875,-3.96875 l 0,-10 c 0,2.192171 -1.776579,3.96875 -3.96875,3.96875 l -84.06249913,0 c -2.19217147,0 -3.96875047,-1.776579 -3.96875047,-3.96875 z"
         style="opacity:0.55;fill:#000000;fill-opacity:1;stroke:none;display:inline"
         inkscape:connector-curvature="0" />
      <path
         style="opacity:0.98000004;fill:url(#radialGradient4788);fill-opacity:1;stroke:none;display:inline"
         d="m -3.9348566,62.171259 0,2 c 0,2.192171 1.776579,3.96875 3.96875047,3.96875 l 84.06249913,0 c 2.192171,0 3.96875,-1.776579 3.96875,-3.96875 l 0,-2 c 0,2.192171 -1.776579,3.96875 -3.96875,3.96875 l -84.06249913,0 c -2.19217147,0 -3.96875047,-1.776579 -3.96875047,-3.96875 z"
         id="path4203"
         inkscape:connector-curvature="0" />
      <path
         style="opacity:0.53818186;fill:url(#linearGradient4790);fill-opacity:1;stroke:none;display:inline"
         d="m -3.9348566,64.171259 0,10 c 0,2.192171 1.776579,3.96875 3.96875047,3.96875 l 84.06249913,0 c 2.192171,0 3.96875,-1.776579 3.96875,-3.96875 l 0,-10 c 0,2.192171 -1.776579,3.96875 -3.96875,3.96875 l -84.06249913,0 c -2.19217147,0 -3.96875047,-1.776579 -3.96875047,-3.96875 z"
         id="rect4135"
         inkscape:connector-curvature="0" />
      <path
         sodipodi:type="arc"
         style="opacity:0.60727276;fill:url(#radialGradient4792);fill-opacity:1;stroke:none;display:inline;filter:url(#filter6133)"
         id="path5955"
         sodipodi:cx="38.911999"
         sodipodi:cy="15.704967"
         sodipodi:rx="5.632"
         sodipodi:ry="5.7990336"
         d="m 44.543999,15.704967 c 0,3.202717 -2.521533,5.799033 -5.632,5.799033 -3.110468,0 -5.632,-2.596316 -5.632,-5.799033 0,-3.202718 2.521532,-5.7990341 5.632,-5.7990341 3.110467,0 5.632,2.5963161 5.632,5.7990341 z"
         transform="translate(4.0651444,-15.859991)" />
      <g
         transform="matrix(0.99891115,0,0,1,-4.2561146,17.548009)"
         id="g4324"
         style="opacity:0.6">
        <path
           style="font-size:medium;font-style:normal;font-variant:normal;font-weight:normal;font-stretch:normal;text-indent:0;text-align:start;text-decoration:none;line-height:normal;letter-spacing:normal;word-spacing:normal;text-transform:none;direction:ltr;block-progression:tb;writing-mode:lr-tb;text-anchor:start;baseline-shift:baseline;color:#000000;fill:#000000;fill-opacity:1;stroke:none;stroke-width:2.3755002;marker:none;visibility:visible;display:inline;overflow:visible;enable-background:accumulate;font-family:Sans;-inkscape-font-specification:Sans"
           d="m 9.6899184,-29.852699 c -2.977491,0 -5.414937,2.4235 -5.414937,5.388083 l 0,66.113234 c 0,2.964583 2.437446,5.388082 5.414937,5.388082 l 73.3636596,0 c 2.97749,0 5.41494,-2.423499 5.41494,-5.388082 l 0,-66.113234 c 0,-2.964583 -2.43745,-5.388083 -5.41494,-5.388083 l -73.3636596,0 z m 0,2.213483 73.3636596,0 c 1.80381,0 3.20238,1.41248 3.20238,3.1746 l 0,66.113234 c 0,1.762123 -1.39857,3.174599 -3.20238,3.174599 l -73.3636596,0 c -1.803811,0 -3.202383,-1.412476 -3.202383,-3.174599 l 0,-66.113234 c 0,-1.76212 1.398572,-3.1746 3.202383,-3.1746 z"
           id="path4989"
           inkscape:connector-curvature="0" />
        <rect
           clip-path="url(#clipPath4156-4)"
           ry="3.9569881"
           rx="3.9569874"
           y="-30"
           x="2"
           height="92"
           width="92"
           id="rect4146"
           style="opacity:0.84375;fill:url(#linearGradient4794);fill-opacity:1;stroke:none"
           transform="translate(-1.499875,-1.4)" />
        <path
           inkscape:connector-curvature="0"
           id="rect4190"
           d="m 4.468875,-31.4 c -2.192171,0 -3.96400836,1.776584 -3.96875,3.96875 l -0.163,75.3585 c 2.1045603,2.715549 1.8313808,2.596758 5.3354114,2.88575 1.9841699,-16.007558 40.1394806,-78.99425 85.1400886,-78.99425 0.536758,0 1.059349,0.02139 1.59375,0.03125 -0.333067,-1.850574 -1.925648,-3.25 -3.875,-3.25 z"
           style="opacity:0.32638891;fill:#ffffff;fill-opacity:1;stroke:none"
           sodipodi:nodetypes="ssccscss" />
      </g>
      <g
         id="g4331"
         transform="translate(51.948695,259.30343)">
        <g
           style="display:none"
           id="layer2">
          <rect
             style="opacity:0.9;fill:url(#ButtonShadow);fill-opacity:1;fill-rule:nonzero;stroke:none;filter:url(#filter3174)"
             id="rect3745"
             y="7"
             x="5"
             ry="6"
             rx="6"
             height="85"
             width="86" />
        </g>
      </g>
      <g
         id="layer3"
         transform="translate(-13.334856,-18.65999)">
        <path
           style="opacity:0.4;fill:#ffffff;filter:url(#filter3762-6)"
           id="path3744"
           clip-path="url(#clipPath3754-4)"
           transform="translate(90,0)"
           inkscape:connector-curvature="0"
           d="m -74,16 0,12.8 A 51.2,51.2 0 0 1 -22.8,80 L -10,80 A 64,64 0 0 0 -74,16 z m 0,21.577143 0,12.434286 A 29.988571,29.988571 0 0 1 -44.011429,80 l 12.434286,0 A 42.422857,42.422857 0 0 0 -74,37.577143 z m 8.777142,24.868571 C -70.07034,62.445714 -74,66.375376 -74,71.222857 -74,76.07034 -70.07034,80 -65.222858,80 c 4.847482,0 8.777144,-3.92966 8.777144,-8.777143 0,-4.847481 -3.929662,-8.777143 -8.777144,-8.777143 z" />
        <path
           style="fill:#ffffff"
           id="circle3643"
           inkscape:connector-curvature="0"
           d="m 16,16 0,12.8 A 51.2,51.2 0 0 1 67.2,80 L 80,80 A 64,64 0 0 0 16,16 z m 0,21.577143 0,12.434286 A 29.988571,29.988571 0 0 1 45.988571,80 l 12.434286,0 A 42.422857,42.422857 0 0 0 16,37.577143 z m 8.777142,24.868571 C 19.92966,62.445714 16,66.375376 16,71.222857 16,76.07034 19.92966,80 24.777142,80 c 4.847482,0 8.777144,-3.92966 8.777144,-8.777143 0,-4.847481 -3.929662,-8.777143 -8.777144,-8.777143 z" />
        <path
           style="opacity:0.8;fill:#000000;fill-opacity:1;fill-rule:nonzero;stroke:none;filter:url(#filter3787-7)"
           id="rect3766"
           clip-path="url(#clipPath3775-9)"
           transform="translate(100,0)"
           inkscape:connector-curvature="0"
           d="m -88,6 c -3.324,0 -6,2.676 -6,6 l 0,72 c 0,3.324 2.676,6 6,6 l 72,0 c 3.324,0 6,-2.676 6,-6 l 0,-72 c 0,-3.324 -2.676,-6 -6,-6 l -72,0 z m 4,11 a 64,64 0 0 1 64,64 l -12.8125,0 A 51.2,51.2 0 0 0 -84,29.8125 L -84,17 z m 0,21.5625 A 42.422857,42.422857 0 0 1 -41.5625,81 L -54,81 A 29.988571,29.988571 0 0 0 -84,51 l 0,-12.4375 z m 8.78125,24.875 c 4.847482,0 8.78125,3.933769 8.78125,8.78125 C -66.4375,77.066233 -70.371268,81 -75.21875,81 -80.066232,81 -84,77.066233 -84,72.21875 c 0,-4.847481 3.933768,-8.78125 8.78125,-8.78125 z" />
      </g>
    </g>
  </g>
</svg>
