<?xml version="1.0" encoding="UTF-8" standalone="no"?>
<!-- Created with Inkscape (http://www.inkscape.org/) -->

<svg
   xmlns:dc="http://purl.org/dc/elements/1.1/"
   xmlns:cc="http://creativecommons.org/ns#"
   xmlns:rdf="http://www.w3.org/1999/02/22-rdf-syntax-ns#"
   xmlns:svg="http://www.w3.org/2000/svg"
   xmlns="http://www.w3.org/2000/svg"
   xmlns:xlink="http://www.w3.org/1999/xlink"
   xmlns:sodipodi="http://sodipodi.sourceforge.net/DTD/sodipodi-0.dtd"
   xmlns:inkscape="http://www.inkscape.org/namespaces/inkscape"
   width="96"
   height="96"
   id="svg2"
   version="1.1"
   inkscape:version="0.48.5 r10040"
   sodipodi:docname="abrt.svg">
  <script
     xlink:href=""
     id="script2985" />
  <defs
     id="defs4">
    <linearGradient
       y2="14.514202"
       x2="50.527882"
       y1="-28.64156"
       x1="2.7713892"
       gradientUnits="userSpaceOnUse"
       id="linearGradient4353"
       xlink:href="#linearGradient4213-7"
       inkscape:collect="always" />
    <linearGradient
       inkscape:collect="always"
       id="linearGradient4213-7">
      <stop
         style="stop-color:#ffffff;stop-opacity:1;"
         offset="0"
         id="stop4215-6" />
      <stop
         style="stop-color:#ffffff;stop-opacity:0;"
         offset="1"
         id="stop4217-5" />
    </linearGradient>
    <clipPath
       clipPathUnits="userSpaceOnUse"
       id="clipPath4156-4">
      <path
         style="opacity:0.6;fill:#ffffff;fill-opacity:1;stroke:none"
         d="m 27.046336,-55.695463 -14.21366,13.321486 0.06127,0 15.653407,21.770763 10.231384,-10.546177 C 38.561832,-32.30156 27.468089,-54.819245 27.046336,-55.695463 z M 9.6468554,-39.382809 -5.2407289,-25.32124 15.987863,-7.8059573 26.372412,-18.382966 9.6468554,-39.382809 z m 31.4906096,12.951445 -9.741259,9.713584 8.944804,12.4580526 7.780753,-7.5550056 -6.984298,-14.616631 z m -49.8397109,4.378822 -13.7541661,12.9822847 26.2830181,13.84571 0.06127,-0.0617 -0.122531,-0.0617 L 13.598503,-5.4007374 -8.7022409,-22.052595 z m 38.0154159,7.400825 -9.802525,9.7752596 11.579232,9.5594001 7.62759,-7.40083 -8.669108,-11.0087257 -0.735189,-0.925104 z m 20.187073,5.6739697 -7.382526,7.2158 6.187844,8.54179 5.820249,-6.13651996 -4.625567,-9.62107004 z m -32.195166,6.32154 -9.5574606,9.49772 13.6622686,7.1849703 7.933918,-7.6783603 -12.038726,-9.00433 z m 23.311629,2.37443004 -7.10683,6.93826996 8.362778,6.9074403 5.360756,-5.6739699 -0.06127,-0.0925 -0.0919,0.12335 -6.463539,-8.20258036 z m -8.730374,8.54178036 -7.505057,7.3391599 10.353916,5.45811 c 1.397496,-1.32103 5.67514,-6.12292 5.850882,-6.32154 L 31.886332,8.2600031 z"
         id="path4158-0"
         inkscape:connector-curvature="0" />
    </clipPath>
    <radialGradient
       inkscape:collect="always"
       xlink:href="#linearGradient6003"
       id="radialGradient6009"
       cx="38.911999"
       cy="15.704967"
       fx="38.911999"
       fy="15.704967"
       r="7.0037241"
       gradientTransform="matrix(1,0,0,1.0238493,0,-0.37455191)"
       gradientUnits="userSpaceOnUse" />
    <linearGradient
       inkscape:collect="always"
       id="linearGradient6003">
      <stop
         style="stop-color:#ffffff;stop-opacity:1;"
         offset="0"
         id="stop6005" />
      <stop
         style="stop-color:#ffffff;stop-opacity:0;"
         offset="1"
         id="stop6007" />
    </linearGradient>
    <filter
       color-interpolation-filters="sRGB"
       inkscape:collect="always"
       id="filter6133"
       x="-0.28371564"
       width="1.5674313"
       y="-0.27554357"
       height="1.5510871">
      <feGaussianBlur
         inkscape:collect="always"
         stdDeviation="1.331572"
         id="feGaussianBlur6135" />
    </filter>
    <radialGradient
       inkscape:collect="always"
       xlink:href="#linearGradient5947"
       id="radialGradient5953"
       cx="48"
       cy="-18.328125"
       fx="48"
       fy="-18.328125"
       r="46"
       gradientTransform="matrix(1,0,0,0.25373641,-14.545455,-12.404885)"
       gradientUnits="userSpaceOnUse" />
    <linearGradient
       id="linearGradient5947">
      <stop
         style="stop-color:#565656;stop-opacity:1;"
         offset="0"
         id="stop5949" />
      <stop
         style="stop-color:#030303;stop-opacity:1;"
         offset="1"
         id="stop5951" />
    </linearGradient>
    <filter
       x="-0.25041613"
       y="-0.031692162"
       width="1.5008323"
       height="1.0633843"
       color-interpolation-filters="sRGB"
       id="filter3503">
      <feGaussianBlur
         id="feGaussianBlur3505"
         stdDeviation="1.236517" />
    </filter>
    <filter
       x="-0.23371603"
       y="-0.03558654"
       width="1.4674321"
       height="1.0711731"
       color-interpolation-filters="sRGB"
       id="filter3499">
      <feGaussianBlur
         id="feGaussianBlur3501"
         stdDeviation="1.236517" />
    </filter>
    <filter
       x="-0.25100267"
       y="-0.026537415"
       width="1.5020055"
       height="1.0530748"
       color-interpolation-filters="sRGB"
       id="filter3513">
      <feGaussianBlur
         id="feGaussianBlur3515"
         stdDeviation="0.78924581" />
    </filter>
    <filter
       x="-0.25100267"
       y="-0.026537415"
       width="1.5020055"
       height="1.0530748"
       color-interpolation-filters="sRGB"
       id="filter6175">
      <feGaussianBlur
         id="feGaussianBlur6177"
         stdDeviation="0.78924581" />
    </filter>
    <filter
       x="-0.30874929"
       y="-0.027863683"
       width="1.6174986"
       height="1.0557274"
       color-interpolation-filters="sRGB"
       id="filter3525">
      <feGaussianBlur
         id="feGaussianBlur3527"
         stdDeviation="1.0871431" />
    </filter>
    <filter
       x="-0.25041613"
       y="-0.031692162"
       width="1.5008323"
       height="1.0633843"
       color-interpolation-filters="sRGB"
       id="filter6181">
      <feGaussianBlur
         id="feGaussianBlur6183"
         stdDeviation="1.236517" />
    </filter>
    <filter
       x="-0.23371603"
       y="-0.03558654"
       width="1.4674321"
       height="1.0711731"
       color-interpolation-filters="sRGB"
       id="filter6185">
      <feGaussianBlur
         id="feGaussianBlur6187"
         stdDeviation="1.236517" />
    </filter>
    <filter
       x="-0.25100267"
       y="-0.026537415"
       width="1.5020055"
       height="1.0530748"
       color-interpolation-filters="sRGB"
       id="filter6189">
      <feGaussianBlur
         id="feGaussianBlur6191"
         stdDeviation="0.78924581" />
    </filter>
    <filter
       x="-0.25100267"
       y="-0.026537415"
       width="1.5020055"
       height="1.0530748"
       color-interpolation-filters="sRGB"
       id="filter6193">
      <feGaussianBlur
         id="feGaussianBlur6195"
         stdDeviation="0.78924581" />
    </filter>
    <filter
       x="-0.30874929"
       y="-0.027863683"
       width="1.6174986"
       height="1.0557274"
       color-interpolation-filters="sRGB"
       id="filter6197">
      <feGaussianBlur
         id="feGaussianBlur6199"
         stdDeviation="1.0871431" />
    </filter>
    <filter
       color-interpolation-filters="sRGB"
       id="filter4689">
      <feGaussianBlur
         id="feGaussianBlur4691"
         stdDeviation="0.65275495" />
    </filter>
    <radialGradient
       inkscape:collect="always"
       xlink:href="#linearGradient4459"
       id="radialGradient4998"
       gradientUnits="userSpaceOnUse"
       cx="46.289753"
       cy="54.148411"
       fx="46.289753"
       fy="54.148411"
       r="13.780919"
       gradientTransform="matrix(1.2594524,0,0,1.2553461,59.744353,-59.721178)" />
    <linearGradient
       id="linearGradient4459">
      <stop
         id="stop4461"
         style="stop-color:#ffffff;stop-opacity:1"
         offset="0" />
      <stop
         id="stop3483"
         style="stop-color:#ffffff;stop-opacity:0.34146342"
         offset="0.5" />
      <stop
         id="stop4463"
         style="stop-color:#ffffff;stop-opacity:0"
         offset="1" />
    </linearGradient>
    <linearGradient
       inkscape:collect="always"
       xlink:href="#linearGradient4593"
       id="linearGradient5000"
       gradientUnits="userSpaceOnUse"
       gradientTransform="matrix(0.68945914,0,0,0.68945914,5.458219,5.1965253)"
       x1="63.189781"
       y1="74.24736"
       x2="57.662792"
       y2="74.24736" />
    <linearGradient
       id="linearGradient4593">
      <stop
         id="stop4595"
         style="stop-color:#000000;stop-opacity:1"
         offset="0" />
      <stop
         id="stop4597"
         style="stop-color:#000000;stop-opacity:0"
         offset="1" />
    </linearGradient>
    <linearGradient
       inkscape:collect="always"
       xlink:href="#linearGradient4160"
       id="linearGradient4166"
       x1="2"
       y1="87.015625"
       x2="94"
       y2="87.015625"
       gradientUnits="userSpaceOnUse"
       gradientTransform="translate(-14.545455,-30.727273)" />
    <linearGradient
       id="linearGradient4160">
      <stop
         id="stop4170"
         offset="0"
         style="stop-color:#000000;stop-opacity:0.47058824;" />
      <stop
         style="stop-color:#000000;stop-opacity:0.96470588;"
         offset="0.05958231"
         id="stop4186" />
      <stop
         style="stop-color:#000000;stop-opacity:0;"
         offset="0.14434318"
         id="stop4182" />
      <stop
         style="stop-color:#000000;stop-opacity:1;"
         offset="0.49595019"
         id="stop4180" />
      <stop
         style="stop-color:#000000;stop-opacity:0;"
         offset="0.86073709"
         id="stop4178" />
      <stop
         id="stop4184"
         offset="0.95406371"
         style="stop-color:#000000;stop-opacity:0.98823529;" />
      <stop
         id="stop4168"
         offset="1"
         style="stop-color:#000000;stop-opacity:0.47058824;" />
    </linearGradient>
    <radialGradient
       inkscape:collect="always"
       xlink:href="#linearGradient4205"
       id="radialGradient4211"
       cx="48"
       cy="49.015625"
       fx="48"
       fy="49.015625"
       r="46"
       gradientTransform="matrix(1,0,0,0.06487772,-14.545455,47.10833)"
       gradientUnits="userSpaceOnUse" />
    <linearGradient
       inkscape:collect="always"
       id="linearGradient4205">
      <stop
         style="stop-color:#ffffff;stop-opacity:1;"
         offset="0"
         id="stop4207" />
      <stop
         style="stop-color:#ffffff;stop-opacity:0;"
         offset="1"
         id="stop4209" />
    </linearGradient>
    <radialGradient
       inkscape:collect="always"
       xlink:href="#linearGradient4205"
       id="radialGradient6541"
       gradientUnits="userSpaceOnUse"
       gradientTransform="matrix(1,0,0,0.06487772,-14.545455,47.10833)"
       cx="48"
       cy="49.015625"
       fx="48"
       fy="49.015625"
       r="46" />
    <linearGradient
       inkscape:collect="always"
       xlink:href="#linearGradient4160"
       id="linearGradient6543"
       gradientUnits="userSpaceOnUse"
       gradientTransform="translate(-14.545455,-30.727273)"
       x1="2"
       y1="87.015625"
       x2="94"
       y2="87.015625" />
    <radialGradient
       inkscape:collect="always"
       xlink:href="#linearGradient4459"
       id="radialGradient6545"
       gradientUnits="userSpaceOnUse"
       gradientTransform="matrix(1.2594524,0,0,1.2553461,59.744353,-59.721178)"
       cx="46.289753"
       cy="54.148411"
       fx="46.289753"
       fy="54.148411"
       r="13.780919" />
    <linearGradient
       inkscape:collect="always"
       xlink:href="#linearGradient4593"
       id="linearGradient6547"
       gradientUnits="userSpaceOnUse"
       gradientTransform="matrix(0.68945914,0,0,0.68945914,5.458219,5.1965253)"
       x1="63.189781"
       y1="74.24736"
       x2="57.662792"
       y2="74.24736" />
    <radialGradient
       inkscape:collect="always"
       xlink:href="#linearGradient5947"
       id="radialGradient6549"
       gradientUnits="userSpaceOnUse"
       gradientTransform="matrix(1,0,0,0.25373641,-14.545455,-12.404885)"
       cx="48"
       cy="-18.328125"
       fx="48"
       fy="-18.328125"
       r="46" />
    <radialGradient
       inkscape:collect="always"
       xlink:href="#linearGradient6003"
       id="radialGradient6551"
       gradientUnits="userSpaceOnUse"
       gradientTransform="matrix(1,0,0,1.0238493,0,-0.37455191)"
       cx="38.911999"
       cy="15.704967"
       fx="38.911999"
       fy="15.704967"
       r="7.0037241" />
    <linearGradient
       inkscape:collect="always"
       xlink:href="#linearGradient4213-7"
       id="linearGradient6553"
       gradientUnits="userSpaceOnUse"
       x1="2.7713892"
       y1="-28.64156"
       x2="50.527882"
       y2="14.514202" />
  </defs>
  <sodipodi:namedview
     id="base"
     pagecolor="#ffffff"
     bordercolor="#666666"
     borderopacity="1.0"
     inkscape:pageopacity="0.0"
     inkscape:pageshadow="2"
     inkscape:zoom="5.5"
     inkscape:cx="19.278569"
     inkscape:cy="32"
     inkscape:current-layer="g4324"
     showgrid="true"
     inkscape:document-units="px"
     inkscape:grid-bbox="true"
     inkscape:showpageshadow="false"
     gridtolerance="1"
     guidetolerance="1"
     objecttolerance="1"
     inkscape:window-width="1280"
     inkscape:window-height="966"
     inkscape:window-x="0"
     inkscape:window-y="0"
     inkscape:window-maximized="1" />
  <metadata
     id="metadata7">
    <rdf:RDF>
      <cc:Work
         rdf:about="">
        <dc:format>image/svg+xml</dc:format>
        <dc:type
           rdf:resource="http://purl.org/dc/dcmitype/StillImage" />
        <dc:title />
      </cc:Work>
    </rdf:RDF>
  </metadata>
  <g
     id="layer1"
     inkscape:label="Layer 1"
     inkscape:groupmode="layer"
     transform="translate(0,32)">
    <g
       id="g6498"
       transform="translate(14.545455,-1.272728)">
      <rect
         ry="4.1290321"
         rx="4.1290321"
         y="-30.727272"
         x="-14.545455"
         height="96"
         width="96"
         id="rect4113"
         style="opacity:0.15;fill:#000000;fill-opacity:1;stroke:none;display:inline" />
      <rect
         style="opacity:0.15;fill:#000000;fill-opacity:1;stroke:none;display:inline"
         id="rect4129"
         width="94.5"
         height="94.5"
         x="-13.795455"
         y="-29.977272"
         rx="4.0645151"
         ry="4.0645151" />
      <rect
         ry="3.999999"
         rx="3.9999986"
         y="-29.227272"
         x="-13.045455"
         height="93"
         width="93"
         id="rect4131"
         style="opacity:0.15;fill:#000000;fill-opacity:1;stroke:none;display:inline" />
      <rect
         style="fill:#d40000;fill-opacity:1;stroke:none;display:inline"
         id="rect4133"
         width="92"
         height="92"
         x="-12.545455"
         y="-28.727272"
         rx="3.9569874"
         ry="3.9569881" />
      <path
         inkscape:connector-curvature="0"
         style="opacity:0.55;fill:#000000;fill-opacity:1;stroke:none;display:inline"
         d="m -12.545455,49.303977 0,10 c 0,2.192171 1.776579,3.96875 3.9687505,3.96875 l 84.0624995,0 c 2.192171,0 3.96875,-1.776579 3.96875,-3.96875 l 0,-10 c 0,2.192171 -1.776579,3.96875 -3.96875,3.96875 l -84.0624995,0 c -2.1921715,0 -3.9687505,-1.776579 -3.9687505,-3.96875 z"
         id="path4188" />
      <path
         inkscape:connector-curvature="0"
         id="path4203"
         d="m -12.545455,47.303977 0,2 c 0,2.192171 1.776579,3.96875 3.9687505,3.96875 l 84.0624995,0 c 2.192171,0 3.96875,-1.776579 3.96875,-3.96875 l 0,-2 c 0,2.192171 -1.776579,3.96875 -3.96875,3.96875 l -84.0624995,0 c -2.1921715,0 -3.9687505,-1.776579 -3.9687505,-3.96875 z"
         style="opacity:0.98000004;fill:url(#radialGradient6541);fill-opacity:1;stroke:none;display:inline" />
      <path
         inkscape:connector-curvature="0"
         id="rect4135"
         d="m -12.545455,49.303977 0,10 c 0,2.192171 1.776579,3.96875 3.9687505,3.96875 l 84.0624995,0 c 2.192171,0 3.96875,-1.776579 3.96875,-3.96875 l 0,-10 c 0,2.192171 -1.776579,3.96875 -3.96875,3.96875 l -84.0624995,0 c -2.1921715,0 -3.9687505,-1.776579 -3.9687505,-3.96875 z"
         style="opacity:0.53818186;fill:url(#linearGradient6543);fill-opacity:1;stroke:none;display:inline" />
      <g
         transform="matrix(1.128,0,0,1.0123457,-199.34571,-25.910088)"
         id="g4961"
         style="display:inline">
        <g
           id="g5009">
          <g
             transform="translate(68.056965,20.933268)"
             id="layer1-5">
            <g
               style="display:inline"
               id="g3529"
               transform="matrix(0.71186443,0,0,0.70954345,92.313022,-30.168988)">
              <path
                 style="opacity:0.3;fill:#680000;fill-opacity:0.75;fill-rule:evenodd;stroke:none;filter:url(#filter3503)"
                 id="path3489"
                 inkscape:connector-curvature="0"
                 d="m 29.681979,23.053004 c 0,0 -10.386183,51.339896 3.533569,93.639576 -10.24735,-65.724382 4.59364,-92.226149 4.59364,-92.226149 l -8.127209,-1.413427 z" />
              <path
                 style="opacity:0.3;fill:#680000;fill-opacity:0.75;fill-rule:evenodd;stroke:none;filter:url(#filter3499)"
                 id="path3487"
                 inkscape:connector-curvature="0"
                 d="m 15.547703,19.872792 c 0,0 -10.7395394,41.445903 0.706714,83.392228 -6.3604237,-60.42403 7.420495,-81.978801 7.420495,-81.978801 l -8.127209,-1.413427 z" />
              <path
                 style="opacity:0.3;fill:#ff5555;fill-opacity:0.75;fill-rule:evenodd;stroke:none;filter:url(#filter3513)"
                 id="path3517"
                 transform="matrix(0.9996438,-0.02985683,0.02668893,1.1182989,22.576257,6.0343587)"
                 inkscape:connector-curvature="0"
                 d="m 21.55477,103.61837 c 0,0 -4.240283,-38.16254 3.533569,-71.378088 -6.49746,16.730616 -11.307421,38.16254 -3.533569,71.378088 z" />
              <path
                 style="opacity:0.3;fill:#ff5555;fill-opacity:0.75;fill-rule:evenodd;stroke:none;filter:url(#filter3513)"
                 id="path3507"
                 transform="matrix(0.9996438,-0.02668893,0.02668893,0.9996438,-1.4520112,6.2467845)"
                 inkscape:connector-curvature="0"
                 d="m 21.55477,103.61837 c 0,0 -4.240283,-38.16254 3.533569,-71.378088 -6.49746,16.730616 -11.307421,38.16254 -3.533569,71.378088 z" />
              <path
                 style="opacity:0.3;fill:#680000;fill-opacity:0.75;fill-rule:evenodd;stroke:none;filter:url(#filter3525)"
                 id="path3519"
                 transform="matrix(1,0,0,0.6700005,0,7.6074785)"
                 inkscape:connector-curvature="0"
                 d="m 52.29682,23.053004 c 0,0 -1.905618,49.757701 3.533569,93.639576 -2.120142,-64.669585 4.59364,-92.226149 4.59364,-92.226149 L 52.29682,23.053004 z" />
            </g>
            <g
               style="display:inline"
               id="g3536"
               transform="matrix(-0.71186443,0,0,0.70954345,183.74836,-29.91611)">
              <path
                 style="opacity:0.3;fill:#680000;fill-opacity:0.75;fill-rule:evenodd;stroke:none;filter:url(#filter3503)"
                 id="path3538"
                 inkscape:connector-curvature="0"
                 d="m 29.681979,23.053004 c 0,0 -10.386183,51.339896 3.533569,93.639576 -10.24735,-65.724382 4.59364,-92.226149 4.59364,-92.226149 l -8.127209,-1.413427 z" />
              <path
                 style="opacity:0.3;fill:#680000;fill-opacity:0.75;fill-rule:evenodd;stroke:none;filter:url(#filter3499)"
                 id="path3540"
                 inkscape:connector-curvature="0"
                 d="m 15.547703,19.872792 c 0,0 -10.7395394,41.445903 0.706714,83.392228 -6.3604237,-60.42403 7.420495,-81.978801 7.420495,-81.978801 l -8.127209,-1.413427 z" />
              <path
                 style="opacity:0.3;fill:#ff5555;fill-opacity:0.75;fill-rule:evenodd;stroke:none;filter:url(#filter3513)"
                 id="path3542"
                 transform="matrix(0.9996438,-0.02985683,0.02668893,1.1182989,22.576257,6.0343587)"
                 inkscape:connector-curvature="0"
                 d="m 21.55477,103.61837 c 0,0 -4.240283,-38.16254 3.533569,-71.378088 -6.49746,16.730616 -11.307421,38.16254 -3.533569,71.378088 z" />
              <path
                 style="opacity:0.3;fill:#ff5555;fill-opacity:0.75;fill-rule:evenodd;stroke:none;filter:url(#filter3513)"
                 id="path3544"
                 transform="matrix(0.9996438,-0.02668893,0.02668893,0.9996438,-1.4520112,6.2467845)"
                 inkscape:connector-curvature="0"
                 d="m 21.55477,103.61837 c 0,0 -4.240283,-38.16254 3.533569,-71.378088 -6.49746,16.730616 -11.307421,38.16254 -3.533569,71.378088 z" />
              <path
                 style="opacity:0.3;fill:#680000;fill-opacity:0.75;fill-rule:evenodd;stroke:none;filter:url(#filter3525)"
                 id="path3546"
                 transform="matrix(1,0,0,0.6700005,0,7.6074785)"
                 inkscape:connector-curvature="0"
                 d="m 52.29682,23.053004 c 0,0 -1.905618,49.757701 3.533569,93.639576 -2.120142,-64.669585 4.59364,-92.226149 4.59364,-92.226149 L 52.29682,23.053004 z" />
            </g>
            <path
               inkscape:connector-curvature="0"
               style="opacity:0.8;fill:#ffd903;fill-opacity:1;fill-rule:nonzero;stroke:none;display:inline;filter:url(#filter4689)"
               id="path4669"
               transform="matrix(0.66936904,0,0,1.0212275,94.350361,-39.853098)"
               d="m 89.450256,33.898411 a 25.485828,9.8984127 0 1 1 -50.971656,0 25.485828,9.8984127 0 1 1 50.971656,0 z" />
            <path
               style="fill:#000000;fill-opacity:0.75;fill-rule:evenodd;stroke:none;display:inline"
               id="path4655"
               inkscape:connector-curvature="0"
               d="m 128.9207,-9.5229906 c 2.00751,0.02339 2.66654,2.457891 1.92106,4.017989 -0.45696,2.165993 -2.5351,3.351614 -3.34636,5.30667804 -1.04637,2.63405996 -0.14678,5.52509996 1.16593,7.88681296 1.06017,2.218347 2.36955,4.8546016 4.96124,5.5178616 1.52531,0.484265 2.78619,-0.914146 4.28284,-0.586599 1.89214,0.32011 3.78991,1.992637 5.73054,0.929911 1.29796,-0.948997 2.06801,-2.443485 2.91363,-3.7767476 1.8954,-3.282293 1.25801,-7.53453 -0.89017,-10.53731996 -0.84731,-1.38056304 -2.15702,-2.46224504 -2.86392,-3.91589304 -0.51973,-2.034131 0.66826,-4.172671 -0.1881,-6.1597464 -1.20847,-1.493525 -3.38559,-0.875019 -4.98041,-0.489697 -2.2677,0.706473 -4.66852,2.0182994 -7.08045,1.161666 -0.60475,-0.07335 -1.24053,0.1718114 -1.62583,0.6450844 z" />
            <path
               style="fill:#000000;fill-opacity:0.70588235;fill-rule:evenodd;stroke:none;display:inline"
               id="path2678"
               inkscape:connector-curvature="0"
               d="m 114.33702,9.7646186 c 0,0.3342964 0,0.3342964 0,0 0,-4.489858 -8.48058,5.7665544 -7.54626,9.0259944 1.14323,3.988285 0.3775,5.014442 4.7793,5.014442 2.63635,0 4.08018,-2.163117 5.28238,-3.760832 1.76001,-2.339027 2.26388,-3.529338 2.26388,-6.017329 0,-0.792301 -1.65622,-2.892716 -2.26388,-3.449936 -0.89342,-0.8192694 -0.61523,-0.433542 -2.51542,-0.8123394 z" />
            <path
               style="fill:#000000;fill-opacity:0.70588235;fill-rule:evenodd;stroke:none;display:inline"
               id="path2684"
               inkscape:connector-curvature="0"
               d="m 165.83386,9.4417124 c -2.28131,-1.566467 -6.59607,-2.033816 -6.25829,1.1490436 0.43305,4.080413 1.78532,5.307006 3.28968,7.296685 0.53742,0.710805 3.317,3.240485 4.31283,3.642202 2.37967,0.959958 3.68711,-0.646814 4.8687,-2.1032 1.73543,-2.139009 -1.95486,-7.593262 -3.25877,-9.317836 -1.09187,-1.4441246 -0.93328,-1.3604866 -2.03188,-1.8036586 -0.45319,-0.18282 -0.61484,0.757843 -0.92227,1.136764 z" />
            <path
               style="fill:#000000;fill-opacity:0.70588235;fill-rule:evenodd;stroke:none;display:inline"
               id="path3456"
               inkscape:connector-curvature="0"
               d="m 125.74711,25.046579 c -0.58453,-0.463047 -2.70895,-0.869748 -3.72907,-0.946637 -0.61575,-0.04641 -2.95534,2.013393 -3.60329,2.656932 -1.16263,1.154696 -2.37146,2.731365 -3.45222,4.199134 -0.72823,0.988997 -1.21131,2.240263 -1.80601,3.99043 -0.69262,2.038326 -0.33099,2.960946 -0.90737,4.657173 -0.57672,1.697271 0.30064,2.416719 1.17986,3.150558 0.46135,0.385055 2.51955,0.447601 3.33433,0.783768 0.76778,0.316776 1.77373,1.027795 2.67497,1.399646 0.78772,0.325006 1.37123,0.290097 2.75693,-0.934327 1.25661,-1.110372 1.97224,0.326645 4.24794,-1.799005 1.03156,-0.963539 2.30027,-4.120432 2.72998,-5.385051 0.77909,-2.292805 0.36616,-4.207359 0.22705,-4.641891 -0.45833,-1.431773 -0.62451,-3.556217 -1.15454,-5.211922 -0.58195,-1.817919 -1.00661,-0.811859 -2.49856,-1.918808 z" />
            <path
               style="fill:#000000;fill-opacity:0.70588235;fill-rule:evenodd;stroke:none;display:inline"
               id="path3458"
               inkscape:connector-curvature="0"
               d="m 148.37582,25.964265 c 0.53671,-1.682553 3.38978,-1.016568 5.14758,-0.230876 1.94687,0.870201 2.13942,1.246137 3.56004,3.119929 1.9732,2.602634 2.60207,2.529352 3.17144,5.233621 0.57199,2.716764 -1.05664,3.901553 -1.60818,5.630575 -0.28978,0.908464 -1.65616,2.047821 -2.17226,2.685977 -0.61125,0.755813 -1.88509,1.094762 -2.81512,1.755659 -1.39362,0.990324 -3.2962,-0.867885 -4.22401,-1.486167 -1.59799,-1.064869 -1.93839,-3.368331 -2.16013,-4.42152 -0.33436,-1.588065 -1.6092,-2.604976 -2.47786,-4.603724 -0.57013,-1.311875 -1.51972,-4.298996 -1.64044,-4.872399 -0.24123,-1.145707 1.15272,-1.808714 1.75356,-2.551644 0.42839,-0.529692 1.27749,-0.978169 2.50479,-1.371951 0.76762,-0.246286 0.34645,-0.300584 0.96059,1.11252 z" />
            <path
               inkscape:connector-curvature="0"
               style="opacity:0.7;fill:url(#radialGradient6545);fill-opacity:1;fill-rule:nonzero;stroke:none;display:inline"
               id="path4457"
               d="m 135.40051,8.253819 a 17.356415,17.299826 0 0 1 -34.71283,0 17.356415,17.299826 0 1 1 34.71283,0 z" />
          </g>
          <g
             transform="translate(156.5676,-11.688)"
             id="layer4">
            <path
               style="font-size:medium;font-style:normal;font-variant:normal;font-weight:normal;font-stretch:normal;text-indent:0;text-align:start;text-decoration:none;line-height:normal;letter-spacing:normal;word-spacing:normal;text-transform:none;direction:ltr;block-progression:tb;writing-mode:lr-tb;text-anchor:start;opacity:0.2;color:#000000;fill:#ffcc00;fill-opacity:1;stroke:none;stroke-width:0.99999994px;marker:none;visibility:visible;display:inline;overflow:visible;enable-background:accumulate;font-family:Abandoned Bitplane;-inkscape-font-specification:Abandoned Bitplane"
               id="path4553"
               inkscape:connector-curvature="0"
               d="M 48.59375,14.90625 47.625,15.125 C 52.663904,40.187826 45.740493,64.628497 49.59375,90 l 1,-0.125 c -3.812053,-25.100195 3.098174,-49.611118 -2,-74.96875 z" />
            <path
               style="opacity:0.4;fill:url(#linearGradient6547);fill-opacity:1;fill-rule:nonzero;stroke:none;display:inline"
               id="path4591"
               inkscape:connector-curvature="0"
               d="m 44.21875,16.227872 0,73.772128 5.494128,0 C 46.003347,65.05873 52.588823,40.938192 47.98923,16.227872 l -3.77048,0 z" />
          </g>
        </g>
      </g>
      <path
         inkscape:connector-curvature="0"
         id="rect5932"
         d="m -8.5767045,-28.727273 c -2.1921705,0 -3.9687505,1.745329 -3.9687505,3.9375 l 0,11.1875 c 10.5658215,5.0042333 27.015903,8.2187503 45.5,8.2187503 19.082187,0 35.989921,-3.434726 46.5,-8.7187503 l 0,-10.6875 c 0,-2.192171 -1.745329,-3.9375 -3.9375,-3.9375 l -84.0937495,0 z"
         style="fill:url(#radialGradient6549);fill-opacity:1;stroke:none;display:inline" />
      <path
         inkscape:connector-curvature="0"
         id="path6141"
         d="m -8.5767045,-24.727273 c -2.1921705,0 -3.9687505,1.745329 -3.9687505,3.9375 l 0,11.1875003 c 10.5658215,5.004233 27.015903,8.21875 45.5,8.21875 19.082187,0 35.989921,-3.434726 46.5,-8.7187503 l 0,-10.6875 c 0,-2.192171 -1.745329,-3.9375 -3.9375,-3.9375 l -84.0937495,0 z"
         style="opacity:0.09090911;fill:#030303;fill-opacity:1;stroke:none;display:inline" />
      <path
         style="opacity:0.22181815;fill:#030303;fill-opacity:1;stroke:none;display:inline"
         d="m -8.5767045,-26.727273 c -2.1921705,0 -3.9687505,1.745329 -3.9687505,3.9375 l 0,11.1875 c 10.5658215,5.0042333 27.015903,8.2187503 45.5,8.2187503 19.082187,0 35.989921,-3.434726 46.5,-8.7187503 l 0,-10.6875 c 0,-2.192171 -1.745329,-3.9375 -3.9375,-3.9375 l -84.0937495,0 z"
         id="path6137"
         inkscape:connector-curvature="0" />
      <path
         transform="translate(-4.5454545,-30.727273)"
         d="m 44.543999,15.704967 c 0,3.202717 -2.521533,5.799033 -5.632,5.799033 -3.110468,0 -5.632,-2.596316 -5.632,-5.799033 0,-3.202718 2.521532,-5.7990341 5.632,-5.7990341 3.110467,0 5.632,2.5963161 5.632,5.7990341 z"
         sodipodi:ry="5.7990336"
         sodipodi:rx="5.632"
         sodipodi:cy="15.704967"
         sodipodi:cx="38.911999"
         id="path5955"
         style="opacity:0.60727276;fill:url(#radialGradient6551);fill-opacity:1;stroke:none;display:inline;filter:url(#filter6133)"
         sodipodi:type="arc" />
      <g
         style="opacity:0.6"
         id="g4324"
         transform="matrix(0.99891115,0,0,1,-12.866713,2.6807273)">
        <path
           inkscape:connector-curvature="0"
           id="path4989"
           d="m 9.6899184,-29.852699 c -2.977491,0 -5.414937,2.4235 -5.414937,5.388083 l 0,66.113234 c 0,2.964583 2.437446,5.388082 5.414937,5.388082 l 73.3636596,0 c 2.97749,0 5.41494,-2.423499 5.41494,-5.388082 l 0,-66.113234 c 0,-2.964583 -2.43745,-5.388083 -5.41494,-5.388083 l -73.3636596,0 z m 0,2.213483 73.3636596,0 c 1.80381,0 3.20238,1.41248 3.20238,3.1746 l 0,66.113234 c 0,1.762123 -1.39857,3.174599 -3.20238,3.174599 l -73.3636596,0 c -1.803811,0 -3.202383,-1.412476 -3.202383,-3.174599 l 0,-66.113234 c 0,-1.76212 1.398572,-3.1746 3.202383,-3.1746 z"
           style="font-size:medium;font-style:normal;font-variant:normal;font-weight:normal;font-stretch:normal;text-indent:0;text-align:start;text-decoration:none;line-height:normal;letter-spacing:normal;word-spacing:normal;text-transform:none;direction:ltr;block-progression:tb;writing-mode:lr-tb;text-anchor:start;baseline-shift:baseline;opacity:1;color:#000000;fill:#000000;fill-opacity:1;stroke:none;stroke-width:2.37550019999999984;marker:none;visibility:visible;display:inline;overflow:visible;enable-background:accumulate;font-family:Sans;-inkscape-font-specification:Sans" />
        <rect
           transform="translate(-1.499875,-1.4)"
           style="opacity:0.72222222;fill:url(#linearGradient6553);fill-opacity:1;stroke:none"
           id="rect4146"
           width="92"
           height="92"
           x="2"
           y="-30"
           rx="3.9569874"
           ry="3.9569881"
           clip-path="url(#clipPath4156-4)" />
        <path
           sodipodi:nodetypes="ssccscss"
           style="opacity:0.32638889;fill:#ffffff;fill-opacity:1;stroke:none"
           d="m 4.468875,-31.4 c -2.192171,0 -3.96400836,1.776584 -3.96875,3.96875 l -0.163,75.3585 c 2.1045603,2.715549 1.8313808,2.596758 5.3354114,2.88575 1.9841699,-16.007558 40.1394806,-78.99425 85.1400886,-78.99425 0.536758,0 1.059349,0.02139 1.59375,0.03125 -0.333067,-1.850574 -1.925648,-3.25 -3.875,-3.25 z"
           id="rect4190"
           inkscape:connector-curvature="0" />
      </g>
    </g>
  </g>
</svg>
